# MagicaVoxel @ Ephtracy

# group
o 

# material
mtllib battery_1_1.2b.mtl
usemtl palette

# normals
vn -1 0 0
vn 1 0 0
vn 0 0 1
vn 0 0 -1
vn 0 -1 0
vn 0 1 0

# texcoords
vt 0.931641 0.5
vt 0.962891 0.5
vt 0.966797 0.5
vt 0.982422 0.5
vt 0.994141 0.5

# verts
v -0.5 0 0.2
v -0.5 0 -0.2
v -0.5 2.9 0.2
v -0.5 2.9 -0.2
v -0.4 0 0.3
v -0.4 0 0.2
v -0.4 0 -0.2
v -0.4 0 -0.3
v -0.4 2.9 0.3
v -0.4 2.9 0.2
v -0.4 2.9 -0.2
v -0.4 2.9 -0.3
v -0.3 0 0.4
v -0.3 0 0.3
v -0.3 0 -0.3
v -0.3 0 -0.4
v -0.3 2.9 0.4
v -0.3 2.9 0.3
v -0.3 2.9 0.2
v -0.3 2.9 -0.2
v -0.3 2.9 -0.3
v -0.3 2.9 -0.4
v -0.3 3 0.2
v -0.3 3 -0.2
v -0.2 0 0.5
v -0.2 0 0.4
v -0.2 0 -0.4
v -0.2 0 -0.5
v -0.2 0.3 0.5
v -0.2 0.3 0.4
v -0.2 0.4 0.5
v -0.2 0.4 0.4
v -0.2 2.3 0.5
v -0.2 2.3 0.4
v -0.2 2.5 0.5
v -0.2 2.5 0.4
v -0.2 2.9 0.5
v -0.2 2.9 0.4
v -0.2 2.9 0.3
v -0.2 2.9 0.2
v -0.2 2.9 -0.2
v -0.2 2.9 -0.3
v -0.2 2.9 -0.4
v -0.2 2.9 -0.5
v -0.2 3 0.3
v -0.2 3 0.2
v -0.2 3 -0.2
v -0.2 3 -0.3
v -0.2 3.1 0.2
v -0.2 3.1 -0.2
v 0.2 0.1 0.4
v 0.2 0.1 0.3
v 0.2 0.1 -0.3
v 0.2 0.1 -0.4
v 0.2 0.3 0.4
v 0.2 0.4 0.4
v 0.2 2.3 0.4
v 0.2 2.5 0.4
v 0.2 2.7 0.4
v 0.2 2.7 0.3
v 0.2 2.7 0.2
v 0.2 2.7 -0.2
v 0.2 2.7 -0.3
v 0.2 2.7 -0.4
v 0.2 2.8 0.3
v 0.2 2.8 0.2
v 0.2 2.8 -0.2
v 0.2 2.8 -0.3
v 0.2 2.9 0.3
v 0.2 2.9 0.2
v 0.2 2.9 -0.2
v 0.2 2.9 -0.3
v 0.2 3 0.2
v 0.2 3 -0.2
v 0.3 0.1 0.3
v 0.3 0.1 0.2
v 0.3 0.1 -0.2
v 0.3 0.1 -0.3
v 0.3 2.7 0.3
v 0.3 2.7 0.2
v 0.3 2.7 -0.2
v 0.3 2.7 -0.3
v 0.3 2.8 0.2
v 0.3 2.8 -0.2
v 0.3 2.9 0.2
v 0.3 2.9 -0.2
v 0.4 0.1 0.2
v 0.4 0.1 -0.2
v 0.4 2.7 0.2
v 0.4 2.7 -0.2
v -0.4 0.1 0.2
v -0.4 0.1 -0.2
v -0.4 2.7 0.2
v -0.4 2.7 -0.2
v -0.3 0.1 0.3
v -0.3 0.1 0.2
v -0.3 0.1 -0.2
v -0.3 0.1 -0.3
v -0.3 2.7 0.3
v -0.3 2.7 0.2
v -0.3 2.7 -0.2
v -0.3 2.7 -0.3
v -0.3 2.8 0.2
v -0.3 2.8 -0.2
v -0.3 2.9 0.2
v -0.3 2.9 -0.2
v -0.2 0.1 0.4
v -0.2 0.1 0.3
v -0.2 0.1 -0.3
v -0.2 0.1 -0.4
v -0.2 0.3 0.4
v -0.2 0.4 0.4
v -0.2 2.3 0.4
v -0.2 2.5 0.4
v -0.2 2.7 0.4
v -0.2 2.7 0.3
v -0.2 2.7 0.2
v -0.2 2.7 -0.2
v -0.2 2.7 -0.3
v -0.2 2.7 -0.4
v -0.2 2.8 0.3
v -0.2 2.8 0.2
v -0.2 2.8 -0.2
v -0.2 2.8 -0.3
v -0.2 2.9 0.3
v -0.2 2.9 0.2
v -0.2 2.9 -0.2
v -0.2 2.9 -0.3
v -0.2 3 0.2
v -0.2 3 -0.2
v 0.2 0 0.5
v 0.2 0 0.4
v 0.2 0 -0.4
v 0.2 0 -0.5
v 0.2 0.3 0.5
v 0.2 0.3 0.4
v 0.2 0.4 0.5
v 0.2 0.4 0.4
v 0.2 2.3 0.5
v 0.2 2.3 0.4
v 0.2 2.5 0.5
v 0.2 2.5 0.4
v 0.2 2.9 0.5
v 0.2 2.9 0.4
v 0.2 2.9 0.3
v 0.2 2.9 0.2
v 0.2 2.9 -0.2
v 0.2 2.9 -0.3
v 0.2 2.9 -0.4
v 0.2 2.9 -0.5
v 0.2 3 0.3
v 0.2 3 0.2
v 0.2 3 -0.2
v 0.2 3 -0.3
v 0.2 3.1 0.2
v 0.2 3.1 -0.2
v 0.3 0 0.4
v 0.3 0 0.3
v 0.3 0 -0.3
v 0.3 0 -0.4
v 0.3 2.9 0.4
v 0.3 2.9 0.3
v 0.3 2.9 0.2
v 0.3 2.9 -0.2
v 0.3 2.9 -0.3
v 0.3 2.9 -0.4
v 0.3 3 0.2
v 0.3 3 -0.2
v 0.4 0 0.3
v 0.4 0 0.2
v 0.4 0 -0.2
v 0.4 0 -0.3
v 0.4 2.9 0.3
v 0.4 2.9 0.2
v 0.4 2.9 -0.2
v 0.4 2.9 -0.3
v 0.5 0 0.2
v 0.5 0 -0.2
v 0.5 2.9 0.2
v 0.5 2.9 -0.2
v -0.2 0 0.5
v -0.2 0.3 0.5
v -0.2 0.4 0.5
v -0.2 2.3 0.5
v -0.2 2.5 0.5
v -0.2 2.9 0.5
v -0.1 2.2 0.5
v -0.1 2.3 0.5
v -0.1 2.5 0.5
v -0.1 2.6 0.5
v 0.1 2.2 0.5
v 0.1 2.3 0.5
v 0.1 2.5 0.5
v 0.1 2.6 0.5
v 0.2 0 0.5
v 0.2 0.3 0.5
v 0.2 0.4 0.5
v 0.2 2.3 0.5
v 0.2 2.5 0.5
v 0.2 2.9 0.5
v -0.3 0 0.4
v -0.3 2.9 0.4
v -0.2 0 0.4
v -0.2 0.3 0.4
v -0.2 0.4 0.4
v -0.2 2.3 0.4
v -0.2 2.5 0.4
v -0.2 2.9 0.4
v 0.2 0 0.4
v 0.2 0.3 0.4
v 0.2 0.4 0.4
v 0.2 2.3 0.4
v 0.2 2.5 0.4
v 0.2 2.9 0.4
v 0.3 0 0.4
v 0.3 2.9 0.4
v -0.4 0 0.3
v -0.4 2.9 0.3
v -0.3 0 0.3
v -0.3 2.9 0.3
v -0.2 2.9 0.3
v -0.2 3 0.3
v 0.2 2.9 0.3
v 0.2 3 0.3
v 0.3 0 0.3
v 0.3 2.9 0.3
v 0.4 0 0.3
v 0.4 2.9 0.3
v -0.5 0 0.2
v -0.5 2.9 0.2
v -0.4 0 0.2
v -0.4 2.9 0.2
v -0.3 2.9 0.2
v -0.3 3 0.2
v -0.2 2.9 0.2
v -0.2 3 0.2
v -0.2 3.1 0.2
v 0.2 2.9 0.2
v 0.2 3 0.2
v 0.2 3.1 0.2
v 0.3 2.9 0.2
v 0.3 3 0.2
v 0.4 0 0.2
v 0.4 2.9 0.2
v 0.5 0 0.2
v 0.5 2.9 0.2
v -0.4 0.1 -0.2
v -0.4 2.7 -0.2
v -0.3 0.1 -0.2
v -0.3 2.7 -0.2
v -0.3 2.8 -0.2
v -0.3 2.9 -0.2
v -0.2 2.7 -0.2
v -0.2 2.8 -0.2
v -0.2 2.9 -0.2
v -0.2 3 -0.2
v 0.2 2.7 -0.2
v 0.2 2.8 -0.2
v 0.2 2.9 -0.2
v 0.2 3 -0.2
v 0.3 0.1 -0.2
v 0.3 2.7 -0.2
v 0.3 2.8 -0.2
v 0.3 2.9 -0.2
v 0.4 0.1 -0.2
v 0.4 2.7 -0.2
v -0.3 0.1 -0.3
v -0.3 2.7 -0.3
v -0.2 0.1 -0.3
v -0.2 2.7 -0.3
v -0.2 2.8 -0.3
v -0.2 2.9 -0.3
v 0.2 0.1 -0.3
v 0.2 2.7 -0.3
v 0.2 2.8 -0.3
v 0.2 2.9 -0.3
v 0.3 0.1 -0.3
v 0.3 2.7 -0.3
v -0.2 0.1 -0.4
v -0.2 2.7 -0.4
v 0.2 0.1 -0.4
v 0.2 2.7 -0.4
v -0.2 0.1 0.4
v -0.2 0.3 0.4
v -0.2 0.4 0.4
v -0.2 2.3 0.4
v -0.2 2.5 0.4
v -0.2 2.7 0.4
v -0.1 2.2 0.4
v -0.1 2.3 0.4
v -0.1 2.5 0.4
v -0.1 2.6 0.4
v 0.1 2.2 0.4
v 0.1 2.3 0.4
v 0.1 2.5 0.4
v 0.1 2.6 0.4
v 0.2 0.1 0.4
v 0.2 0.3 0.4
v 0.2 0.4 0.4
v 0.2 2.3 0.4
v 0.2 2.5 0.4
v 0.2 2.7 0.4
v -0.3 0.1 0.3
v -0.3 2.7 0.3
v -0.2 0.1 0.3
v -0.2 2.7 0.3
v -0.2 2.8 0.3
v -0.2 2.9 0.3
v 0.2 0.1 0.3
v 0.2 2.7 0.3
v 0.2 2.8 0.3
v 0.2 2.9 0.3
v 0.3 0.1 0.3
v 0.3 2.7 0.3
v -0.4 0.1 0.2
v -0.4 2.7 0.2
v -0.3 0.1 0.2
v -0.3 2.7 0.2
v -0.3 2.8 0.2
v -0.3 2.9 0.2
v -0.2 2.7 0.2
v -0.2 2.8 0.2
v -0.2 2.9 0.2
v -0.2 3 0.2
v 0.2 2.7 0.2
v 0.2 2.8 0.2
v 0.2 2.9 0.2
v 0.2 3 0.2
v 0.3 0.1 0.2
v 0.3 2.7 0.2
v 0.3 2.8 0.2
v 0.3 2.9 0.2
v 0.4 0.1 0.2
v 0.4 2.7 0.2
v -0.5 0 -0.2
v -0.5 2.9 -0.2
v -0.4 0 -0.2
v -0.4 2.9 -0.2
v -0.3 2.9 -0.2
v -0.3 3 -0.2
v -0.2 2.9 -0.2
v -0.2 3 -0.2
v -0.2 3.1 -0.2
v 0.2 2.9 -0.2
v 0.2 3 -0.2
v 0.2 3.1 -0.2
v 0.3 2.9 -0.2
v 0.3 3 -0.2
v 0.4 0 -0.2
v 0.4 2.9 -0.2
v 0.5 0 -0.2
v 0.5 2.9 -0.2
v -0.4 0 -0.3
v -0.4 2.9 -0.3
v -0.3 0 -0.3
v -0.3 2.9 -0.3
v -0.2 2.9 -0.3
v -0.2 3 -0.3
v 0.2 2.9 -0.3
v 0.2 3 -0.3
v 0.3 0 -0.3
v 0.3 2.9 -0.3
v 0.4 0 -0.3
v 0.4 2.9 -0.3
v -0.3 0 -0.4
v -0.3 2.9 -0.4
v -0.2 0 -0.4
v -0.2 2.9 -0.4
v 0.2 0 -0.4
v 0.2 2.9 -0.4
v 0.3 0 -0.4
v 0.3 2.9 -0.4
v -0.2 0 -0.5
v -0.2 2.9 -0.5
v 0.2 0 -0.5
v 0.2 2.9 -0.5
v -0.2 0 0.5
v 0.2 0 0.5
v -0.3 0 0.4
v -0.2 0 0.4
v 0.2 0 0.4
v 0.3 0 0.4
v -0.4 0 0.3
v -0.3 0 0.3
v -0.2 0 0.3
v 0.2 0 0.3
v 0.3 0 0.3
v 0.4 0 0.3
v -0.5 0 0.2
v -0.4 0 0.2
v -0.3 0 0.2
v -0.2 0 0.2
v 0.2 0 0.2
v 0.3 0 0.2
v 0.4 0 0.2
v 0.5 0 0.2
v -0.5 0 -0.2
v -0.4 0 -0.2
v -0.3 0 -0.2
v -0.2 0 -0.2
v 0.2 0 -0.2
v 0.3 0 -0.2
v 0.4 0 -0.2
v 0.5 0 -0.2
v -0.4 0 -0.3
v -0.3 0 -0.3
v -0.2 0 -0.3
v 0.2 0 -0.3
v 0.3 0 -0.3
v 0.4 0 -0.3
v -0.3 0 -0.4
v -0.2 0 -0.4
v 0.2 0 -0.4
v 0.3 0 -0.4
v -0.2 0 -0.5
v 0.2 0 -0.5
v -0.2 2.7 0.4
v 0.2 2.7 0.4
v -0.3 2.7 0.3
v -0.2 2.7 0.3
v 0.2 2.7 0.3
v 0.3 2.7 0.3
v -0.4 2.7 0.2
v -0.3 2.7 0.2
v -0.2 2.7 0.2
v 0.2 2.7 0.2
v 0.3 2.7 0.2
v 0.4 2.7 0.2
v -0.4 2.7 -0.2
v -0.3 2.7 -0.2
v -0.2 2.7 -0.2
v 0.2 2.7 -0.2
v 0.3 2.7 -0.2
v 0.4 2.7 -0.2
v -0.3 2.7 -0.3
v -0.2 2.7 -0.3
v 0.2 2.7 -0.3
v 0.3 2.7 -0.3
v -0.2 2.7 -0.4
v 0.2 2.7 -0.4
v -0.2 2.9 0.3
v 0.2 2.9 0.3
v -0.3 2.9 0.2
v -0.2 2.9 0.2
v 0.2 2.9 0.2
v 0.3 2.9 0.2
v -0.3 2.9 -0.2
v -0.2 2.9 -0.2
v 0.2 2.9 -0.2
v 0.3 2.9 -0.2
v -0.2 2.9 -0.3
v 0.2 2.9 -0.3
v -0.2 3 0.2
v 0.2 3 0.2
v -0.2 3 -0.2
v 0.2 3 -0.2
v -0.2 0.1 0.4
v 0.2 0.1 0.4
v -0.3 0.1 0.3
v -0.2 0.1 0.3
v 0.2 0.1 0.3
v 0.3 0.1 0.3
v -0.4 0.1 0.2
v -0.3 0.1 0.2
v -0.2 0.1 0.2
v 0.2 0.1 0.2
v 0.3 0.1 0.2
v 0.4 0.1 0.2
v -0.4 0.1 -0.2
v -0.3 0.1 -0.2
v -0.2 0.1 -0.2
v 0.2 0.1 -0.2
v 0.3 0.1 -0.2
v 0.4 0.1 -0.2
v -0.3 0.1 -0.3
v -0.2 0.1 -0.3
v 0.2 0.1 -0.3
v 0.3 0.1 -0.3
v -0.2 0.1 -0.4
v 0.2 0.1 -0.4
v -0.2 2.9 0.5
v 0.2 2.9 0.5
v -0.3 2.9 0.4
v -0.2 2.9 0.4
v 0.2 2.9 0.4
v 0.3 2.9 0.4
v -0.4 2.9 0.3
v -0.3 2.9 0.3
v -0.2 2.9 0.3
v 0.2 2.9 0.3
v 0.3 2.9 0.3
v 0.4 2.9 0.3
v -0.5 2.9 0.2
v -0.4 2.9 0.2
v -0.3 2.9 0.2
v -0.2 2.9 0.2
v 0.2 2.9 0.2
v 0.3 2.9 0.2
v 0.4 2.9 0.2
v 0.5 2.9 0.2
v -0.5 2.9 -0.2
v -0.4 2.9 -0.2
v -0.3 2.9 -0.2
v -0.2 2.9 -0.2
v 0.2 2.9 -0.2
v 0.3 2.9 -0.2
v 0.4 2.9 -0.2
v 0.5 2.9 -0.2
v -0.4 2.9 -0.3
v -0.3 2.9 -0.3
v -0.2 2.9 -0.3
v 0.2 2.9 -0.3
v 0.3 2.9 -0.3
v 0.4 2.9 -0.3
v -0.3 2.9 -0.4
v -0.2 2.9 -0.4
v 0.2 2.9 -0.4
v 0.3 2.9 -0.4
v -0.2 2.9 -0.5
v 0.2 2.9 -0.5
v -0.2 3 0.3
v 0.2 3 0.3
v -0.3 3 0.2
v -0.2 3 0.2
v 0.2 3 0.2
v 0.3 3 0.2
v -0.3 3 -0.2
v -0.2 3 -0.2
v 0.2 3 -0.2
v 0.3 3 -0.2
v -0.2 3 -0.3
v 0.2 3 -0.3
v -0.2 3.1 0.2
v 0.2 3.1 0.2
v -0.2 3.1 -0.2
v 0.2 3.1 -0.2

# faces
f 3/5/1 2/5/1 1/5/1
f 4/5/1 2/5/1 3/5/1
f 9/5/1 6/5/1 5/5/1
f 10/5/1 6/5/1 9/5/1
f 11/5/1 8/5/1 7/5/1
f 12/5/1 8/5/1 11/5/1
f 17/5/1 14/5/1 13/5/1
f 18/5/1 14/5/1 17/5/1
f 21/5/1 16/5/1 15/5/1
f 22/5/1 16/5/1 21/5/1
f 23/3/1 20/3/1 19/3/1
f 24/3/1 20/3/1 23/3/1
f 29/5/1 26/5/1 25/5/1
f 30/5/1 26/5/1 29/5/1
f 31/2/1 30/2/1 29/2/1
f 32/2/1 30/2/1 31/2/1
f 33/5/1 32/5/1 31/5/1
f 34/5/1 32/5/1 33/5/1
f 35/2/1 34/2/1 33/2/1
f 36/2/1 34/2/1 35/2/1
f 37/5/1 36/5/1 35/5/1
f 38/5/1 36/5/1 37/5/1
f 43/5/1 28/5/1 27/5/1
f 44/5/1 28/5/1 43/5/1
f 45/3/1 40/3/1 39/3/1
f 46/3/1 40/3/1 45/3/1
f 47/3/1 42/3/1 41/3/1
f 48/3/1 42/3/1 47/3/1
f 49/2/1 47/2/1 46/2/1
f 50/2/1 47/2/1 49/2/1
f 55/5/1 52/5/1 51/5/1
f 56/5/1 52/5/1 55/5/1
f 57/5/1 52/5/1 56/5/1
f 58/5/1 52/5/1 57/5/1
f 59/5/1 52/5/1 58/5/1
f 60/5/1 52/5/1 59/5/1
f 63/5/1 54/5/1 53/5/1
f 64/5/1 54/5/1 63/5/1
f 65/4/1 61/4/1 60/4/1
f 66/4/1 61/4/1 65/4/1
f 67/4/1 63/4/1 62/4/1
f 68/4/1 63/4/1 67/4/1
f 69/1/1 66/1/1 65/1/1
f 70/1/1 66/1/1 69/1/1
f 71/1/1 68/1/1 67/1/1
f 72/1/1 68/1/1 71/1/1
f 73/3/1 71/3/1 70/3/1
f 74/3/1 71/3/1 73/3/1
f 79/5/1 76/5/1 75/5/1
f 80/5/1 76/5/1 79/5/1
f 81/5/1 78/5/1 77/5/1
f 82/5/1 78/5/1 81/5/1
f 83/4/1 81/4/1 80/4/1
f 84/4/1 81/4/1 83/4/1
f 85/1/1 84/1/1 83/1/1
f 86/1/1 84/1/1 85/1/1
f 89/5/1 88/5/1 87/5/1
f 90/5/1 88/5/1 89/5/1
f 91/5/2 92/5/2 93/5/2
f 93/5/2 92/5/2 94/5/2
f 95/5/2 96/5/2 99/5/2
f 99/5/2 96/5/2 100/5/2
f 97/5/2 98/5/2 101/5/2
f 101/5/2 98/5/2 102/5/2
f 100/4/2 101/4/2 103/4/2
f 103/4/2 101/4/2 104/4/2
f 103/1/2 104/1/2 105/1/2
f 105/1/2 104/1/2 106/1/2
f 107/5/2 108/5/2 111/5/2
f 111/5/2 108/5/2 112/5/2
f 112/5/2 108/5/2 113/5/2
f 113/5/2 108/5/2 114/5/2
f 114/5/2 108/5/2 115/5/2
f 115/5/2 108/5/2 116/5/2
f 109/5/2 110/5/2 119/5/2
f 119/5/2 110/5/2 120/5/2
f 116/4/2 117/4/2 121/4/2
f 121/4/2 117/4/2 122/4/2
f 118/4/2 119/4/2 123/4/2
f 123/4/2 119/4/2 124/4/2
f 121/1/2 122/1/2 125/1/2
f 125/1/2 122/1/2 126/1/2
f 123/1/2 124/1/2 127/1/2
f 127/1/2 124/1/2 128/1/2
f 126/3/2 127/3/2 129/3/2
f 129/3/2 127/3/2 130/3/2
f 131/5/2 132/5/2 135/5/2
f 135/5/2 132/5/2 136/5/2
f 135/2/2 136/2/2 137/2/2
f 137/2/2 136/2/2 138/2/2
f 137/5/2 138/5/2 139/5/2
f 139/5/2 138/5/2 140/5/2
f 139/2/2 140/2/2 141/2/2
f 141/2/2 140/2/2 142/2/2
f 141/5/2 142/5/2 143/5/2
f 143/5/2 142/5/2 144/5/2
f 133/5/2 134/5/2 149/5/2
f 149/5/2 134/5/2 150/5/2
f 145/3/2 146/3/2 151/3/2
f 151/3/2 146/3/2 152/3/2
f 147/3/2 148/3/2 153/3/2
f 153/3/2 148/3/2 154/3/2
f 152/2/2 153/2/2 155/2/2
f 155/2/2 153/2/2 156/2/2
f 157/5/2 158/5/2 161/5/2
f 161/5/2 158/5/2 162/5/2
f 159/5/2 160/5/2 165/5/2
f 165/5/2 160/5/2 166/5/2
f 163/3/2 164/3/2 167/3/2
f 167/3/2 164/3/2 168/3/2
f 169/5/2 170/5/2 173/5/2
f 173/5/2 170/5/2 174/5/2
f 171/5/2 172/5/2 175/5/2
f 175/5/2 172/5/2 176/5/2
f 177/5/2 178/5/2 179/5/2
f 179/5/2 178/5/2 180/5/2
f 187/5/3 184/5/3 183/5/3
f 188/2/3 185/2/3 184/2/3
f 188/5/3 184/5/3 187/5/3
f 189/5/3 186/5/3 185/5/3
f 189/2/3 185/2/3 188/2/3
f 190/5/3 186/5/3 189/5/3
f 191/2/3 188/2/3 187/2/3
f 191/5/3 187/5/3 183/5/3
f 191/2/3 190/2/3 189/2/3
f 191/2/3 189/2/3 188/2/3
f 192/2/3 190/2/3 191/2/3
f 193/2/3 190/2/3 192/2/3
f 194/5/3 186/5/3 190/5/3
f 194/2/3 190/2/3 193/2/3
f 195/5/3 182/5/3 181/5/3
f 196/2/3 183/2/3 182/2/3
f 196/5/3 182/5/3 195/5/3
f 197/5/3 191/5/3 183/5/3
f 197/2/3 183/2/3 196/2/3
f 197/5/3 192/5/3 191/5/3
f 198/2/3 193/2/3 192/2/3
f 198/5/3 192/5/3 197/5/3
f 199/5/3 194/5/3 193/5/3
f 199/2/3 193/2/3 198/2/3
f 200/5/3 186/5/3 194/5/3
f 200/5/3 194/5/3 199/5/3
f 203/5/3 202/5/3 201/5/3
f 204/5/3 202/5/3 203/5/3
f 205/5/3 202/5/3 204/5/3
f 206/5/3 202/5/3 205/5/3
f 207/5/3 202/5/3 206/5/3
f 208/5/3 202/5/3 207/5/3
f 215/5/3 210/5/3 209/5/3
f 215/5/3 214/5/3 213/5/3
f 215/5/3 213/5/3 212/5/3
f 215/5/3 212/5/3 211/5/3
f 215/5/3 211/5/3 210/5/3
f 216/5/3 214/5/3 215/5/3
f 219/5/3 218/5/3 217/5/3
f 220/5/3 218/5/3 219/5/3
f 223/3/3 222/3/3 221/3/3
f 224/3/3 222/3/3 223/3/3
f 227/5/3 226/5/3 225/5/3
f 228/5/3 226/5/3 227/5/3
f 231/5/3 230/5/3 229/5/3
f 232/5/3 230/5/3 231/5/3
f 235/3/3 234/3/3 233/3/3
f 236/3/3 234/3/3 235/3/3
f 239/2/3 237/2/3 236/2/3
f 240/2/3 237/2/3 239/2/3
f 241/3/3 239/3/3 238/3/3
f 242/3/3 239/3/3 241/3/3
f 245/5/3 244/5/3 243/5/3
f 246/5/3 244/5/3 245/5/3
f 249/5/3 248/5/3 247/5/3
f 250/5/3 248/5/3 249/5/3
f 253/4/3 251/4/3 250/4/3
f 254/1/3 252/1/3 251/1/3
f 254/4/3 251/4/3 253/4/3
f 255/1/3 252/1/3 254/1/3
f 259/3/3 256/3/3 255/3/3
f 260/3/3 256/3/3 259/3/3
f 262/4/3 258/4/3 257/4/3
f 263/1/3 259/1/3 258/1/3
f 263/4/3 258/4/3 262/4/3
f 264/1/3 259/1/3 263/1/3
f 265/5/3 262/5/3 261/5/3
f 266/5/3 262/5/3 265/5/3
f 269/5/3 268/5/3 267/5/3
f 270/5/3 268/5/3 269/5/3
f 274/4/3 271/4/3 270/4/3
f 275/1/3 272/1/3 271/1/3
f 275/4/3 271/4/3 274/4/3
f 276/1/3 272/1/3 275/1/3
f 277/5/3 274/5/3 273/5/3
f 278/5/3 274/5/3 277/5/3
f 281/5/3 280/5/3 279/5/3
f 282/5/3 280/5/3 281/5/3
f 285/5/4 286/5/4 289/5/4
f 286/2/4 287/2/4 290/2/4
f 289/5/4 286/5/4 290/5/4
f 287/5/4 288/5/4 291/5/4
f 290/2/4 287/2/4 291/2/4
f 291/5/4 288/5/4 292/5/4
f 289/2/4 290/2/4 293/2/4
f 285/5/4 289/5/4 293/5/4
f 291/2/4 292/2/4 293/2/4
f 290/2/4 291/2/4 293/2/4
f 293/2/4 292/2/4 294/2/4
f 294/2/4 292/2/4 295/2/4
f 292/5/4 288/5/4 296/5/4
f 295/2/4 292/2/4 296/2/4
f 283/5/4 284/5/4 297/5/4
f 284/2/4 285/2/4 298/2/4
f 297/5/4 284/5/4 298/5/4
f 285/5/4 293/5/4 299/5/4
f 298/2/4 285/2/4 299/2/4
f 293/5/4 294/5/4 299/5/4
f 294/2/4 295/2/4 300/2/4
f 299/5/4 294/5/4 300/5/4
f 295/5/4 296/5/4 301/5/4
f 300/2/4 295/2/4 301/2/4
f 296/5/4 288/5/4 302/5/4
f 301/5/4 296/5/4 302/5/4
f 303/5/4 304/5/4 305/5/4
f 305/5/4 304/5/4 306/5/4
f 306/4/4 307/4/4 310/4/4
f 307/1/4 308/1/4 311/1/4
f 310/4/4 307/4/4 311/4/4
f 311/1/4 308/1/4 312/1/4
f 309/5/4 310/5/4 313/5/4
f 313/5/4 310/5/4 314/5/4
f 315/5/4 316/5/4 317/5/4
f 317/5/4 316/5/4 318/5/4
f 318/4/4 319/4/4 321/4/4
f 319/1/4 320/1/4 322/1/4
f 321/4/4 319/4/4 322/4/4
f 322/1/4 320/1/4 323/1/4
f 323/3/4 324/3/4 327/3/4
f 327/3/4 324/3/4 328/3/4
f 325/4/4 326/4/4 330/4/4
f 326/1/4 327/1/4 331/1/4
f 330/4/4 326/4/4 331/4/4
f 331/1/4 327/1/4 332/1/4
f 329/5/4 330/5/4 333/5/4
f 333/5/4 330/5/4 334/5/4
f 335/5/4 336/5/4 337/5/4
f 337/5/4 336/5/4 338/5/4
f 339/3/4 340/3/4 341/3/4
f 341/3/4 340/3/4 342/3/4
f 342/2/4 343/2/4 345/2/4
f 345/2/4 343/2/4 346/2/4
f 344/3/4 345/3/4 347/3/4
f 347/3/4 345/3/4 348/3/4
f 349/5/4 350/5/4 351/5/4
f 351/5/4 350/5/4 352/5/4
f 353/5/4 354/5/4 355/5/4
f 355/5/4 354/5/4 356/5/4
f 357/3/4 358/3/4 359/3/4
f 359/3/4 358/3/4 360/3/4
f 361/5/4 362/5/4 363/5/4
f 363/5/4 362/5/4 364/5/4
f 365/5/4 366/5/4 367/5/4
f 367/5/4 366/5/4 368/5/4
f 369/5/4 370/5/4 371/5/4
f 371/5/4 370/5/4 372/5/4
f 373/5/4 374/5/4 375/5/4
f 375/5/4 374/5/4 376/5/4
f 380/5/5 378/5/5 377/5/5
f 381/5/5 378/5/5 380/5/5
f 384/5/5 380/5/5 379/5/5
f 385/1/5 381/1/5 380/1/5
f 385/5/5 380/5/5 384/5/5
f 386/5/5 382/5/5 381/5/5
f 386/1/5 381/1/5 385/1/5
f 387/5/5 382/5/5 386/5/5
f 390/5/5 384/5/5 383/5/5
f 391/1/5 385/1/5 384/1/5
f 391/5/5 384/5/5 390/5/5
f 392/3/5 386/3/5 385/3/5
f 392/1/5 385/1/5 391/1/5
f 393/1/5 387/1/5 386/1/5
f 393/3/5 386/3/5 392/3/5
f 394/5/5 388/5/5 387/5/5
f 394/1/5 387/1/5 393/1/5
f 395/5/5 388/5/5 394/5/5
f 397/5/5 390/5/5 389/5/5
f 398/1/5 391/1/5 390/1/5
f 398/5/5 390/5/5 397/5/5
f 399/3/5 393/3/5 392/3/5
f 399/1/5 391/1/5 398/1/5
f 399/3/5 392/3/5 391/3/5
f 399/3/5 394/3/5 393/3/5
f 400/3/5 394/3/5 399/3/5
f 401/3/5 394/3/5 400/3/5
f 402/1/5 395/1/5 394/1/5
f 402/3/5 394/3/5 401/3/5
f 403/5/5 396/5/5 395/5/5
f 403/1/5 395/1/5 402/1/5
f 404/5/5 396/5/5 403/5/5
f 405/5/5 399/5/5 398/5/5
f 406/1/5 400/1/5 399/1/5
f 406/5/5 399/5/5 405/5/5
f 407/3/5 401/3/5 400/3/5
f 407/1/5 400/1/5 406/1/5
f 408/1/5 402/1/5 401/1/5
f 408/3/5 401/3/5 407/3/5
f 409/5/5 403/5/5 402/5/5
f 409/1/5 402/1/5 408/1/5
f 410/5/5 403/5/5 409/5/5
f 411/5/5 407/5/5 406/5/5
f 412/1/5 408/1/5 407/1/5
f 412/5/5 407/5/5 411/5/5
f 413/5/5 409/5/5 408/5/5
f 413/1/5 408/1/5 412/1/5
f 414/5/5 409/5/5 413/5/5
f 415/5/5 413/5/5 412/5/5
f 416/5/5 413/5/5 415/5/5
f 420/4/5 418/4/5 417/4/5
f 421/4/5 418/4/5 420/4/5
f 424/4/5 420/4/5 419/4/5
f 425/4/5 420/4/5 424/4/5
f 426/4/5 422/4/5 421/4/5
f 427/4/5 422/4/5 426/4/5
f 429/4/5 424/4/5 423/4/5
f 430/4/5 424/4/5 429/4/5
f 433/4/5 428/4/5 427/4/5
f 434/4/5 428/4/5 433/4/5
f 435/4/5 431/4/5 430/4/5
f 436/4/5 431/4/5 435/4/5
f 437/4/5 433/4/5 432/4/5
f 438/4/5 433/4/5 437/4/5
f 439/4/5 437/4/5 436/4/5
f 440/4/5 437/4/5 439/4/5
f 444/3/5 442/3/5 441/3/5
f 445/3/5 442/3/5 444/3/5
f 447/3/5 444/3/5 443/3/5
f 448/3/5 444/3/5 447/3/5
f 449/3/5 446/3/5 445/3/5
f 450/3/5 446/3/5 449/3/5
f 451/3/5 449/3/5 448/3/5
f 452/3/5 449/3/5 451/3/5
f 455/2/5 454/2/5 453/2/5
f 456/2/5 454/2/5 455/2/5
f 457/1/6 458/1/6 460/1/6
f 460/1/6 458/1/6 461/1/6
f 459/1/6 460/1/6 464/1/6
f 460/3/6 461/3/6 465/3/6
f 464/1/6 460/1/6 465/1/6
f 461/1/6 462/1/6 466/1/6
f 465/3/6 461/3/6 466/3/6
f 466/1/6 462/1/6 467/1/6
f 463/1/6 464/1/6 469/1/6
f 464/3/6 465/3/6 470/3/6
f 469/1/6 464/1/6 470/1/6
f 465/3/6 466/3/6 470/3/6
f 466/3/6 467/3/6 470/3/6
f 470/3/6 467/3/6 471/3/6
f 471/3/6 467/3/6 472/3/6
f 467/1/6 468/1/6 473/1/6
f 472/3/6 467/3/6 473/3/6
f 473/1/6 468/1/6 474/1/6
f 470/1/6 471/1/6 475/1/6
f 471/3/6 472/3/6 476/3/6
f 475/1/6 471/1/6 476/1/6
f 472/1/6 473/1/6 477/1/6
f 476/3/6 472/3/6 477/3/6
f 477/1/6 473/1/6 478/1/6
f 476/1/6 477/1/6 479/1/6
f 479/1/6 477/1/6 480/1/6
f 481/5/6 482/5/6 484/5/6
f 484/5/6 482/5/6 485/5/6
f 483/5/6 484/5/6 488/5/6
f 484/1/6 485/1/6 489/1/6
f 488/5/6 484/5/6 489/5/6
f 485/5/6 486/5/6 490/5/6
f 489/1/6 485/1/6 490/1/6
f 490/5/6 486/5/6 491/5/6
f 487/5/6 488/5/6 494/5/6
f 488/1/6 489/1/6 495/1/6
f 494/5/6 488/5/6 495/5/6
f 495/1/6 489/1/6 496/1/6
f 490/1/6 491/1/6 497/1/6
f 491/5/6 492/5/6 498/5/6
f 497/1/6 491/1/6 498/1/6
f 498/5/6 492/5/6 499/5/6
f 493/5/6 494/5/6 501/5/6
f 494/1/6 495/1/6 502/1/6
f 501/5/6 494/5/6 502/5/6
f 502/1/6 495/1/6 503/1/6
f 498/1/6 499/1/6 506/1/6
f 499/5/6 500/5/6 507/5/6
f 506/1/6 499/1/6 507/1/6
f 507/5/6 500/5/6 508/5/6
f 502/5/6 503/5/6 509/5/6
f 503/1/6 504/1/6 510/1/6
f 509/5/6 503/5/6 510/5/6
f 510/1/6 504/1/6 511/1/6
f 505/1/6 506/1/6 512/1/6
f 506/5/6 507/5/6 513/5/6
f 512/1/6 506/1/6 513/1/6
f 513/5/6 507/5/6 514/5/6
f 510/5/6 511/5/6 515/5/6
f 511/1/6 512/1/6 516/1/6
f 515/5/6 511/5/6 516/5/6
f 512/5/6 513/5/6 517/5/6
f 516/1/6 512/1/6 517/1/6
f 517/5/6 513/5/6 518/5/6
f 516/5/6 517/5/6 519/5/6
f 519/5/6 517/5/6 520/5/6
f 521/3/6 522/3/6 524/3/6
f 524/3/6 522/3/6 525/3/6
f 523/3/6 524/3/6 527/3/6
f 527/3/6 524/3/6 528/3/6
f 525/3/6 526/3/6 529/3/6
f 529/3/6 526/3/6 530/3/6
f 528/3/6 529/3/6 531/3/6
f 531/3/6 529/3/6 532/3/6
f 533/2/6 534/2/6 535/2/6
f 535/2/6 534/2/6 536/2/6
