# MagicaVoxel @ Ephtracy

# group
o 

# material
mtllib sandtower_1.0-6.mtl
usemtl palette

# normals
vn -1 0 0
vn 1 0 0
vn 0 0 1
vn 0 0 -1
vn 0 -1 0
vn 0 1 0

# texcoords
vt 0.462891 0.5
vt 0.486328 0.5
vt 0.490234 0.5

# verts
v -1.1 0.9 19.9
v -1.1 0.9 2.7
v -1.1 1.9 19.9
v -1.1 1.9 19.3
v -1.1 2.1 8.7
v -1.1 2.1 8.5
v -1.1 2.3 17.7
v -1.1 2.3 8.7
v -1.1 2.3 8.5
v -1.1 2.3 2.7
v -1.1 3.9 19.3
v -1.1 3.9 17.9
v -1.1 3.9 17.7
v -1.1 16.5 17.9
v -1.1 16.5 17.7
v -1.1 16.7 19.3
v -1.1 16.7 17.7
v -1.1 19.5 17.7
v -1.1 19.5 2.7
v -0.9 2.1 8.7
v -0.9 2.1 8.5
v -0.9 2.3 8.7
v -0.9 2.3 8.5
v 2.1 15.1 19.3
v 2.1 15.1 17.7
v 2.1 16.7 19.3
v 2.1 16.7 17.7
v 3.7 1.9 19.3
v 3.7 1.9 17.7
v 3.7 3.9 19.3
v 3.7 3.9 17.7
v 3.7 15.1 19.3
v 3.7 15.1 17.7
v 13.3 1.9 17.7
v 13.3 1.9 2.7
v 13.3 3.9 17.7
v 13.3 3.9 2.7
v 13.3 19.5 17.7
v 13.3 19.5 2.7
v 16.5 0.9 19.9
v 16.5 0.9 2.7
v 16.5 1.9 19.9
v 16.5 1.9 2.7
v -1.1 0.9 19.9
v -1.1 1.9 19.9
v 16.5 0.9 19.9
v 16.5 1.9 19.9
v -1.1 1.9 19.3
v -1.1 3.9 19.3
v -1.1 16.7 19.3
v 2.1 15.1 19.3
v 2.1 16.7 19.3
v 3.7 1.9 19.3
v 3.7 3.9 19.3
v 3.7 15.1 19.3
v -1.1 16.7 17.7
v -1.1 19.5 17.7
v 2.1 15.1 17.7
v 2.1 16.7 17.7
v 3.7 1.9 17.7
v 3.7 3.9 17.7
v 3.7 15.1 17.7
v 13.3 1.9 17.7
v 13.3 3.9 17.7
v 13.3 19.5 17.7
v -1.1 2.1 8.5
v -1.1 2.3 8.5
v -0.9 2.1 8.5
v -0.9 2.3 8.5
v -1.1 2.1 8.7
v -1.1 2.3 8.7
v -0.9 2.1 8.7
v -0.9 2.3 8.7
v -1.1 0.9 2.7
v -1.1 2.3 2.7
v -1.1 19.5 2.7
v 13.1 2.3 2.7
v 13.1 3.9 2.7
v 13.3 1.9 2.7
v 13.3 3.9 2.7
v 13.3 19.5 2.7
v 16.5 0.9 2.7
v 16.5 1.9 2.7
v -1.1 0.9 19.9
v 16.5 0.9 19.9
v -1.1 0.9 2.7
v 16.5 0.9 2.7
v -1.1 2.3 8.7
v -0.9 2.3 8.7
v -1.1 2.3 8.5
v -0.9 2.3 8.5
v -1.1 1.9 19.9
v 16.5 1.9 19.9
v -1.1 1.9 19.3
v 3.7 1.9 19.3
v 3.7 1.9 17.7
v 13.3 1.9 17.7
v 13.3 1.9 2.7
v 16.5 1.9 2.7
v -1.1 2.1 8.7
v -0.9 2.1 8.7
v -1.1 2.1 8.5
v -0.9 2.1 8.5
v 2.1 15.1 19.3
v 3.7 15.1 19.3
v 2.1 15.1 17.7
v 3.7 15.1 17.7
v -1.1 16.7 19.3
v 2.1 16.7 19.3
v -1.1 16.7 17.7
v 2.1 16.7 17.7
v -1.1 19.5 17.7
v 13.3 19.5 17.7
v -1.1 19.5 2.7
v 13.3 19.5 2.7

# faces
f 3/2/1 2/2/1 1/2/1
f 4/2/1 2/2/1 3/2/1
f 5/2/1 2/2/1 4/2/1
f 6/2/1 2/2/1 5/2/1
f 7/2/1 5/2/1 4/2/1
f 8/2/1 5/2/1 7/2/1
f 9/2/1 2/2/1 6/2/1
f 10/2/1 2/2/1 9/2/1
f 11/2/1 7/2/1 4/2/1
f 12/2/1 7/2/1 11/2/1
f 13/3/1 8/3/1 7/3/1
f 13/2/1 7/2/1 12/2/1
f 13/3/1 9/3/1 8/3/1
f 13/3/1 10/3/1 9/3/1
f 14/1/1 12/1/1 11/1/1
f 14/3/1 13/3/1 12/3/1
f 15/3/1 10/3/1 13/3/1
f 15/3/1 13/3/1 14/3/1
f 16/1/1 14/1/1 11/1/1
f 16/1/1 15/1/1 14/1/1
f 17/3/1 10/3/1 15/3/1
f 17/1/1 15/1/1 16/1/1
f 18/3/1 10/3/1 17/3/1
f 19/3/1 10/3/1 18/3/1
f 22/2/1 21/2/1 20/2/1
f 23/2/1 21/2/1 22/2/1
f 24/1/2 25/1/2 26/1/2
f 26/1/2 25/1/2 27/1/2
f 28/2/2 29/2/2 30/2/2
f 30/2/2 29/2/2 31/2/2
f 30/1/2 31/1/2 32/1/2
f 32/1/2 31/1/2 33/1/2
f 34/2/2 35/2/2 36/2/2
f 36/2/2 35/2/2 37/2/2
f 36/3/2 37/3/2 38/3/2
f 38/3/2 37/3/2 39/3/2
f 40/2/2 41/2/2 42/2/2
f 42/2/2 41/2/2 43/2/2
f 46/2/3 45/2/3 44/2/3
f 47/2/3 45/2/3 46/2/3
f 51/1/3 50/1/3 49/1/3
f 52/1/3 50/1/3 51/1/3
f 53/2/3 49/2/3 48/2/3
f 54/1/3 51/1/3 49/1/3
f 54/2/3 49/2/3 53/2/3
f 55/1/3 51/1/3 54/1/3
f 59/3/3 57/3/3 56/3/3
f 62/3/3 59/3/3 58/3/3
f 63/2/3 61/2/3 60/2/3
f 64/3/3 62/3/3 61/3/3
f 64/2/3 61/2/3 63/2/3
f 65/3/3 57/3/3 59/3/3
f 65/3/3 62/3/3 64/3/3
f 65/3/3 59/3/3 62/3/3
f 68/2/3 67/2/3 66/2/3
f 69/2/3 67/2/3 68/2/3
f 70/2/4 71/2/4 72/2/4
f 72/2/4 71/2/4 73/2/4
f 74/2/4 75/2/4 77/2/4
f 75/3/4 76/3/4 77/3/4
f 77/3/4 76/3/4 78/3/4
f 74/2/4 77/2/4 79/2/4
f 77/2/4 78/2/4 79/2/4
f 78/3/4 76/3/4 80/3/4
f 79/2/4 78/2/4 80/2/4
f 80/3/4 76/3/4 81/3/4
f 74/2/4 79/2/4 82/2/4
f 82/2/4 79/2/4 83/2/4
f 86/2/5 85/2/5 84/2/5
f 87/2/5 85/2/5 86/2/5
f 90/3/5 89/3/5 88/3/5
f 91/3/5 89/3/5 90/3/5
f 92/2/6 93/2/6 94/2/6
f 94/2/6 93/2/6 95/2/6
f 95/2/6 93/2/6 96/2/6
f 96/2/6 93/2/6 97/2/6
f 97/2/6 93/2/6 98/2/6
f 98/2/6 93/2/6 99/2/6
f 100/2/6 101/2/6 102/2/6
f 102/2/6 101/2/6 103/2/6
f 104/1/6 105/1/6 106/1/6
f 106/1/6 105/1/6 107/1/6
f 108/1/6 109/1/6 110/1/6
f 110/1/6 109/1/6 111/1/6
f 112/3/6 113/3/6 114/3/6
f 114/3/6 113/3/6 115/3/6
