# MagicaVoxel @ Ephtracy

# group
o 

# material
mtllib sandtower_1.0-2.mtl
usemtl palette

# normals
vn -1 0 0
vn 1 0 0
vn 0 0 1
vn 0 0 -1
vn 0 -1 0
vn 0 1 0

# texcoords
vt 0.462891 0.5
vt 0.490234 0.5

# verts
v -15.5 19.5 17.7
v -15.5 19.5 2.7
v -15.5 35.7 17.7
v -15.5 35.7 2.7
v -10.9 23.1 19.1
v -10.9 23.1 17.7
v -10.9 29.5 19.1
v -10.9 29.5 17.7
v -9.3 29.5 19.1
v -9.3 29.5 17.7
v -9.3 31.1 19.1
v -9.3 31.1 17.7
v -6.1 24.7 19.1
v -6.1 24.7 18.3
v -6.1 29.5 19.1
v -6.1 29.5 18.3
v -9.3 24.7 19.1
v -9.3 24.7 18.3
v -9.3 29.5 19.1
v -9.3 29.5 18.3
v -6.1 29.5 19.1
v -6.1 29.5 17.7
v -6.1 31.1 19.1
v -6.1 31.1 17.7
v -4.5 23.1 19.1
v -4.5 23.1 17.7
v -4.5 29.5 19.1
v -4.5 29.5 17.7
v -1.1 19.5 17.7
v -1.1 19.5 2.7
v -1.1 35.7 17.7
v -1.1 35.7 2.7
v -10.9 23.1 19.1
v -10.9 29.5 19.1
v -9.3 24.7 19.1
v -9.3 29.5 19.1
v -9.3 31.1 19.1
v -6.1 24.7 19.1
v -6.1 29.5 19.1
v -6.1 31.1 19.1
v -4.5 23.1 19.1
v -4.5 29.5 19.1
v -9.3 24.7 18.3
v -9.3 29.5 18.3
v -6.1 24.7 18.3
v -6.1 29.5 18.3
v -15.5 19.5 17.7
v -15.5 35.7 17.7
v -10.9 23.1 17.7
v -10.9 29.5 17.7
v -9.3 29.5 17.7
v -9.3 31.1 17.7
v -6.1 29.5 17.7
v -6.1 31.1 17.7
v -4.5 23.1 17.7
v -4.5 29.5 17.7
v -1.1 19.5 17.7
v -1.1 35.7 17.7
v -15.5 19.5 2.7
v -15.5 35.7 2.7
v -1.1 19.5 2.7
v -1.1 35.7 2.7
v -15.5 19.5 17.7
v -1.1 19.5 17.7
v -15.5 19.5 2.7
v -1.1 19.5 2.7
v -10.9 23.1 19.1
v -4.5 23.1 19.1
v -10.9 23.1 17.7
v -4.5 23.1 17.7
v -9.3 29.5 19.1
v -6.1 29.5 19.1
v -9.3 29.5 18.3
v -6.1 29.5 18.3
v -9.3 24.7 19.1
v -6.1 24.7 19.1
v -9.3 24.7 18.3
v -6.1 24.7 18.3
v -10.9 29.5 19.1
v -9.3 29.5 19.1
v -6.1 29.5 19.1
v -4.5 29.5 19.1
v -10.9 29.5 17.7
v -9.3 29.5 17.7
v -6.1 29.5 17.7
v -4.5 29.5 17.7
v -9.3 31.1 19.1
v -6.1 31.1 19.1
v -9.3 31.1 17.7
v -6.1 31.1 17.7
v -15.5 35.7 17.7
v -1.1 35.7 17.7
v -15.5 35.7 2.7
v -1.1 35.7 2.7

# faces
f 3/2/1 2/2/1 1/2/1
f 4/2/1 2/2/1 3/2/1
f 7/1/1 6/1/1 5/1/1
f 8/1/1 6/1/1 7/1/1
f 11/1/1 10/1/1 9/1/1
f 12/1/1 10/1/1 11/1/1
f 15/1/1 14/1/1 13/1/1
f 16/1/1 14/1/1 15/1/1
f 17/1/2 18/1/2 19/1/2
f 19/1/2 18/1/2 20/1/2
f 21/1/2 22/1/2 23/1/2
f 23/1/2 22/1/2 24/1/2
f 25/1/2 26/1/2 27/1/2
f 27/1/2 26/1/2 28/1/2
f 29/2/2 30/2/2 31/2/2
f 31/2/2 30/2/2 32/2/2
f 35/1/3 34/1/3 33/1/3
f 36/1/3 34/1/3 35/1/3
f 38/1/3 35/1/3 33/1/3
f 39/1/3 37/1/3 36/1/3
f 40/1/3 37/1/3 39/1/3
f 41/1/3 38/1/3 33/1/3
f 41/1/3 39/1/3 38/1/3
f 42/1/3 39/1/3 41/1/3
f 45/2/3 44/2/3 43/2/3
f 46/2/3 44/2/3 45/2/3
f 49/2/3 48/2/3 47/2/3
f 50/2/3 48/2/3 49/2/3
f 51/2/3 48/2/3 50/2/3
f 52/2/3 48/2/3 51/2/3
f 54/2/3 48/2/3 52/2/3
f 55/2/3 49/2/3 47/2/3
f 56/2/3 54/2/3 53/2/3
f 57/2/3 55/2/3 47/2/3
f 57/2/3 56/2/3 55/2/3
f 58/2/3 54/2/3 56/2/3
f 58/2/3 56/2/3 57/2/3
f 58/2/3 48/2/3 54/2/3
f 59/2/4 60/2/4 61/2/4
f 61/2/4 60/2/4 62/2/4
f 65/2/5 64/2/5 63/2/5
f 66/2/5 64/2/5 65/2/5
f 69/1/5 68/1/5 67/1/5
f 70/1/5 68/1/5 69/1/5
f 73/1/5 72/1/5 71/1/5
f 74/1/5 72/1/5 73/1/5
f 75/1/6 76/1/6 77/1/6
f 77/1/6 76/1/6 78/1/6
f 79/1/6 80/1/6 83/1/6
f 83/1/6 80/1/6 84/1/6
f 81/1/6 82/1/6 85/1/6
f 85/1/6 82/1/6 86/1/6
f 87/1/6 88/1/6 89/1/6
f 89/1/6 88/1/6 90/1/6
f 91/2/6 92/2/6 93/2/6
f 93/2/6 92/2/6 94/2/6
