# MagicaVoxel @ Ephtracy

# group
o 

# material
mtllib sandtower_1.0-10.mtl
usemtl palette

# normals
vn -1 0 0
vn 1 0 0
vn 0 0 1
vn 0 0 -1
vn 0 -1 0
vn 0 1 0

# texcoords
vt 0.462891 0.5
vt 0.486328 0.5
vt 0.490234 0.5

# verts
v -1.1 35.7 1.7
v -1.1 35.7 -14.3
v -1.1 35.8 1.7
v -1.1 35.8 -14.1
v -1.1 37.1 -14.1
v -1.1 37.1 -14.3
v -1.1 37.1 -15.9
v -1.1 40.1 1.7
v -1.1 40.1 -14.3
v -1.1 40.3 1.7
v -1.1 40.3 -9.5
v -1.1 49.9 -9.5
v -1.1 49.9 -14.3
v -1.1 49.9 -15.9
v 10.1 40.3 1.7
v 10.1 40.3 -1.5
v 10.1 40.3 -9.5
v 10.1 40.3 -12.7
v 10.1 43.5 -12.7
v 10.1 43.5 -14.3
v 10.1 43.5 -15.9
v 10.1 49.9 1.7
v 10.1 49.9 -1.5
v 10.1 49.9 -9.5
v 10.1 49.9 -14.3
v 10.1 49.9 -15.9
v 13.3 40.3 -1.5
v 13.3 40.3 -9.5
v 13.3 43.5 -1.5
v 13.3 43.5 -9.5
v 2.1 40.3 -9.5
v 2.1 40.3 -12.7
v 2.1 43.5 -12.7
v 2.1 43.5 -14.3
v 2.1 43.5 -15.9
v 2.1 49.9 -9.5
v 2.1 49.9 -14.3
v 2.1 49.9 -15.9
v 14.9 35.7 1.7
v 14.9 35.7 -14.3
v 14.9 37.1 1.7
v 14.9 37.1 -14.3
v 16.5 37.1 1.7
v 16.5 37.1 -15.9
v 16.5 43.5 -1.5
v 16.5 43.5 -9.5
v 16.5 49.9 1.7
v 16.5 49.9 -1.5
v 16.5 49.9 -9.5
v 16.5 49.9 -15.9
v -1.1 35.7 1.7
v -1.1 35.8 1.7
v -1.1 40.1 1.7
v -1.1 40.3 1.7
v 10.1 40.3 1.7
v 10.1 49.9 1.7
v 14.7 35.8 1.7
v 14.7 37.1 1.7
v 14.9 35.7 1.7
v 14.9 37.1 1.7
v 14.9 40.1 1.7
v 14.9 49.9 1.7
v 16.5 37.1 1.7
v 16.5 49.9 1.7
v -1.1 40.3 -9.5
v -1.1 49.9 -9.5
v 2.1 40.3 -9.5
v 2.1 49.9 -9.5
v 10.1 40.3 -9.5
v 10.1 49.9 -9.5
v 13.3 40.3 -9.5
v 13.3 43.5 -9.5
v 14.9 43.5 -9.5
v 14.9 49.9 -9.5
v 16.5 43.5 -9.5
v 16.5 49.9 -9.5
v 2.1 40.3 -12.7
v 2.1 43.5 -12.7
v 10.1 40.3 -12.7
v 10.1 43.5 -12.7
v 10.1 40.3 -1.5
v 10.1 49.9 -1.5
v 13.3 40.3 -1.5
v 13.3 43.5 -1.5
v 14.9 43.5 -1.5
v 14.9 49.9 -1.5
v 16.5 43.5 -1.5
v 16.5 49.9 -1.5
v -1.1 35.7 -14.3
v -1.1 37.1 -14.3
v 14.9 35.7 -14.3
v 14.9 37.1 -14.3
v -1.1 37.1 -15.9
v -1.1 49.9 -15.9
v 2.1 43.5 -15.9
v 2.1 49.9 -15.9
v 10.1 43.5 -15.9
v 10.1 49.9 -15.9
v 16.5 37.1 -15.9
v 16.5 49.9 -15.9
v -1.1 35.7 1.7
v 14.9 35.7 1.7
v -1.1 35.7 -14.3
v 14.9 35.7 -14.3
v 14.9 37.1 1.7
v 16.5 37.1 1.7
v -1.1 37.1 -14.3
v 14.9 37.1 -14.3
v -1.1 37.1 -15.9
v 16.5 37.1 -15.9
v -1.1 40.3 1.7
v 10.1 40.3 1.7
v 10.1 40.3 -1.5
v 13.3 40.3 -1.5
v -1.1 40.3 -9.5
v 2.1 40.3 -9.5
v 10.1 40.3 -9.5
v 13.3 40.3 -9.5
v 2.1 40.3 -12.7
v 10.1 40.3 -12.7
v 13.3 43.5 -1.5
v 14.9 43.5 -1.5
v 16.5 43.5 -1.5
v 13.3 43.5 -9.5
v 14.9 43.5 -9.5
v 16.5 43.5 -9.5
v 2.1 43.5 -12.7
v 10.1 43.5 -12.7
v 2.1 43.5 -14.3
v 10.1 43.5 -14.3
v 2.1 43.5 -15.9
v 10.1 43.5 -15.9
v 10.1 49.9 1.7
v 14.9 49.9 1.7
v 16.5 49.9 1.7
v 10.1 49.9 -1.5
v 14.9 49.9 -1.5
v 16.5 49.9 -1.5
v -1.1 49.9 -9.5
v 2.1 49.9 -9.5
v 10.1 49.9 -9.5
v 14.9 49.9 -9.5
v 16.5 49.9 -9.5
v -1.1 49.9 -14.3
v 2.1 49.9 -14.3
v 10.1 49.9 -14.3
v 14.9 49.9 -14.3
v -1.1 49.9 -15.9
v 2.1 49.9 -15.9
v 10.1 49.9 -15.9
v 16.5 49.9 -15.9

# faces
f 3/1/1 2/1/1 1/1/1
f 4/1/1 2/1/1 3/1/1
f 5/3/1 4/3/1 3/3/1
f 5/1/1 2/1/1 4/1/1
f 6/1/1 2/1/1 5/1/1
f 8/3/1 5/3/1 3/3/1
f 8/3/1 7/3/1 6/3/1
f 8/3/1 6/3/1 5/3/1
f 9/3/1 7/3/1 8/3/1
f 10/2/1 9/2/1 8/2/1
f 11/2/1 9/2/1 10/2/1
f 12/2/1 9/2/1 11/2/1
f 13/3/1 7/3/1 9/3/1
f 13/2/1 9/2/1 12/2/1
f 14/3/1 7/3/1 13/3/1
f 19/2/1 18/2/1 17/2/1
f 22/2/1 16/2/1 15/2/1
f 23/2/1 16/2/1 22/2/1
f 24/2/1 19/2/1 17/2/1
f 24/2/1 20/2/1 19/2/1
f 25/3/1 21/3/1 20/3/1
f 25/2/1 20/2/1 24/2/1
f 26/3/1 21/3/1 25/3/1
f 29/2/1 28/2/1 27/2/1
f 30/2/1 28/2/1 29/2/1
f 31/2/2 32/2/2 33/2/2
f 31/2/2 33/2/2 36/2/2
f 33/2/2 34/2/2 36/2/2
f 34/3/2 35/3/2 37/3/2
f 36/2/2 34/2/2 37/2/2
f 37/3/2 35/3/2 38/3/2
f 39/1/2 40/1/2 41/1/2
f 41/1/2 40/1/2 42/1/2
f 43/3/2 44/3/2 45/3/2
f 45/3/2 44/3/2 46/3/2
f 43/3/2 45/3/2 47/3/2
f 47/3/2 45/3/2 48/3/2
f 46/3/2 44/3/2 49/3/2
f 49/3/2 44/3/2 50/3/2
f 55/2/3 54/2/3 53/2/3
f 57/1/3 52/1/3 51/1/3
f 57/3/3 53/3/3 52/3/3
f 58/3/3 53/3/3 57/3/3
f 59/1/3 57/1/3 51/1/3
f 59/1/3 58/1/3 57/1/3
f 60/3/3 53/3/3 58/3/3
f 60/1/3 58/1/3 59/1/3
f 61/2/3 56/2/3 55/2/3
f 61/3/3 53/3/3 60/3/3
f 61/2/3 55/2/3 53/2/3
f 62/2/3 56/2/3 61/2/3
f 63/3/3 61/3/3 60/3/3
f 63/3/3 62/3/3 61/3/3
f 64/3/3 62/3/3 63/3/3
f 67/2/3 66/2/3 65/2/3
f 68/2/3 66/2/3 67/2/3
f 71/2/3 70/2/3 69/2/3
f 72/2/3 70/2/3 71/2/3
f 73/2/3 70/2/3 72/2/3
f 74/2/3 70/2/3 73/2/3
f 75/3/3 74/3/3 73/3/3
f 76/3/3 74/3/3 75/3/3
f 79/2/3 78/2/3 77/2/3
f 80/2/3 78/2/3 79/2/3
f 81/2/4 82/2/4 83/2/4
f 83/2/4 82/2/4 84/2/4
f 84/2/4 82/2/4 85/2/4
f 85/2/4 82/2/4 86/2/4
f 85/3/4 86/3/4 87/3/4
f 87/3/4 86/3/4 88/3/4
f 89/1/4 90/1/4 91/1/4
f 91/1/4 90/1/4 92/1/4
f 93/3/4 94/3/4 95/3/4
f 95/3/4 94/3/4 96/3/4
f 93/3/4 95/3/4 97/3/4
f 93/3/4 97/3/4 99/3/4
f 97/3/4 98/3/4 99/3/4
f 99/3/4 98/3/4 100/3/4
f 103/1/5 102/1/5 101/1/5
f 104/1/5 102/1/5 103/1/5
f 108/3/5 106/3/5 105/3/5
f 109/3/5 108/3/5 107/3/5
f 110/3/5 106/3/5 108/3/5
f 110/3/5 108/3/5 109/3/5
f 111/2/6 112/2/6 113/2/6
f 111/2/6 113/2/6 115/2/6
f 113/2/6 114/2/6 115/2/6
f 115/2/6 114/2/6 116/2/6
f 116/2/6 114/2/6 117/2/6
f 117/2/6 114/2/6 118/2/6
f 116/2/6 117/2/6 119/2/6
f 119/2/6 117/2/6 120/2/6
f 121/2/6 122/2/6 124/2/6
f 122/3/6 123/3/6 125/3/6
f 124/2/6 122/2/6 125/2/6
f 125/3/6 123/3/6 126/3/6
f 127/2/6 128/2/6 129/2/6
f 129/2/6 128/2/6 130/2/6
f 129/3/6 130/3/6 131/3/6
f 131/3/6 130/3/6 132/3/6
f 133/2/6 134/2/6 136/2/6
f 134/3/6 135/3/6 137/3/6
f 136/2/6 134/2/6 137/2/6
f 137/3/6 135/3/6 138/3/6
f 139/2/6 140/2/6 144/2/6
f 144/2/6 140/2/6 145/2/6
f 141/2/6 142/2/6 146/2/6
f 142/3/6 143/3/6 147/3/6
f 146/2/6 142/2/6 147/2/6
f 144/3/6 145/3/6 148/3/6
f 148/3/6 145/3/6 149/3/6
f 146/3/6 147/3/6 150/3/6
f 147/3/6 143/3/6 151/3/6
f 150/3/6 147/3/6 151/3/6
