# MagicaVoxel @ Ephtracy

# group
o 

# material
mtllib kompas-1.mtl
usemtl palette

# normals
vn -1 0 0
vn 1 0 0
vn 0 0 1
vn 0 0 -1
vn 0 -1 0
vn 0 1 0

# texcoords
vt 0.146484 0.5
vt 0.923828 0.5
vt 0.958984 0.5
vt 0.990234 0.5

# verts
v -0.6 -0.1 0.2
v -0.6 -0.1 0
v -0.6 -0.1 -0.1
v -0.6 -0.1 -0.3
v -0.6 0 0.2
v -0.6 0 0
v -0.6 0 -0.1
v -0.6 0 -0.3
v -0.6 0.1 0
v -0.6 0.1 -0.1
v -0.5 -0.1 0.3
v -0.5 -0.1 0.2
v -0.5 -0.1 -0.3
v -0.5 -0.1 -0.4
v -0.5 0 0.3
v -0.5 0 0.2
v -0.5 0 0.1
v -0.5 0 0
v -0.5 0 -0.1
v -0.5 0 -0.2
v -0.5 0 -0.3
v -0.5 0 -0.4
v -0.5 0.1 0.1
v -0.5 0.1 0
v -0.5 0.1 -0.1
v -0.5 0.1 -0.2
v -0.4 -0.1 0.4
v -0.4 -0.1 0.3
v -0.4 -0.1 -0.4
v -0.4 -0.1 -0.5
v -0.4 0 0.4
v -0.4 0 0.3
v -0.4 0 0.2
v -0.4 0 0.1
v -0.4 0 -0.2
v -0.4 0 -0.3
v -0.4 0 -0.4
v -0.4 0 -0.5
v -0.4 0.1 0.2
v -0.4 0.1 0.1
v -0.4 0.1 -0.2
v -0.4 0.1 -0.3
v -0.3 -0.1 0.5
v -0.3 -0.1 0.4
v -0.3 -0.1 -0.5
v -0.3 -0.1 -0.6
v -0.3 0 0.5
v -0.3 0 0.4
v -0.3 0 -0.5
v -0.3 0 -0.6
v -0.3 0 0.2
v -0.3 0 0
v -0.3 0 -0.1
v -0.3 0 -0.3
v -0.3 0.1 0.2
v -0.3 0.1 0
v -0.3 0.1 -0.1
v -0.3 0.1 -0.3
v -5.96046e-08 0 0
v -5.96046e-08 0 -0.1
v -5.96046e-08 0.1 0
v -5.96046e-08 0.1 -0.1
v 0.2 -0.1 0.5
v 0.2 -0.1 0.4
v 0.2 -0.1 -0.5
v 0.2 -0.1 -0.6
v 0.2 0 0.5
v 0.2 0 0.4
v 0.2 0 -0.5
v 0.2 0 -0.6
v 0.3 -0.1 0.4
v 0.3 -0.1 0.3
v 0.3 -0.1 -0.4
v 0.3 -0.1 -0.5
v 0.3 0 0.4
v 0.3 0 0.3
v 0.3 0 -0.4
v 0.3 0 -0.5
v 0.4 -0.1 0.3
v 0.4 -0.1 0.2
v 0.4 -0.1 -0.3
v 0.4 -0.1 -0.4
v 0.4 0 0.3
v 0.4 0 0.2
v 0.4 0 -0.3
v 0.4 0 -0.4
v 0.5 -0.1 0.2
v 0.5 -0.1 0
v 0.5 -0.1 -0.1
v 0.5 -0.1 -0.3
v 0.5 0 0.2
v 0.5 0 0
v 0.5 0 -0.1
v 0.5 0 -0.3
v -0.3 -0.1 0.5
v -0.3 0 0.5
v -0.1 -0.1 0.5
v -0.1 0 0.5
v -5.96046e-08 -0.1 0.5
v -5.96046e-08 0 0.5
v 0.2 -0.1 0.5
v 0.2 0 0.5
v -0.4 -0.1 0.4
v -0.4 0 0.4
v -0.3 -0.1 0.4
v -0.3 0 0.4
v 0.2 -0.1 0.4
v 0.2 0 0.4
v 0.3 -0.1 0.4
v 0.3 0 0.4
v -0.5 -0.1 0.3
v -0.5 0 0.3
v -0.4 -0.1 0.3
v -0.4 0 0.3
v 0.3 -0.1 0.3
v 0.3 0 0.3
v 0.4 -0.1 0.3
v 0.4 0 0.3
v -0.6 -0.1 0.2
v -0.6 0 0.2
v -0.5 -0.1 0.2
v -0.5 0 0.2
v -0.4 0 0.2
v -0.4 0.1 0.2
v -0.3 0 0.2
v -0.3 0.1 0.2
v 0.4 -0.1 0.2
v 0.4 0 0.2
v 0.5 -0.1 0.2
v 0.5 0 0.2
v -0.5 0 0.1
v -0.5 0.1 0.1
v -0.4 0 0.1
v -0.4 0.1 0.1
v -0.6 0 0
v -0.6 0.1 0
v -0.5 0 0
v -0.5 0.1 0
v -0.3 0 0
v -0.3 0.1 0
v -0.1 0 0
v -5.96046e-08 0 0
v -5.96046e-08 0.1 0
v -0.6 0 -0.1
v -0.6 0.1 -0.1
v -0.5 0 -0.1
v -0.5 0.1 -0.1
v -0.3 0 -0.1
v -0.3 0.1 -0.1
v -0.1 0 -0.1
v -5.96046e-08 0 -0.1
v -5.96046e-08 0.1 -0.1
v -0.5 0 -0.2
v -0.5 0.1 -0.2
v -0.4 0 -0.2
v -0.4 0.1 -0.2
v -0.6 -0.1 -0.3
v -0.6 0 -0.3
v -0.5 -0.1 -0.3
v -0.5 0 -0.3
v -0.4 0 -0.3
v -0.4 0.1 -0.3
v -0.3 0 -0.3
v -0.3 0.1 -0.3
v 0.4 -0.1 -0.3
v 0.4 0 -0.3
v 0.5 -0.1 -0.3
v 0.5 0 -0.3
v -0.5 -0.1 -0.4
v -0.5 0 -0.4
v -0.4 -0.1 -0.4
v -0.4 0 -0.4
v 0.3 -0.1 -0.4
v 0.3 0 -0.4
v 0.4 -0.1 -0.4
v 0.4 0 -0.4
v -0.4 -0.1 -0.5
v -0.4 0 -0.5
v -0.3 -0.1 -0.5
v -0.3 0 -0.5
v 0.2 -0.1 -0.5
v 0.2 0 -0.5
v 0.3 -0.1 -0.5
v 0.3 0 -0.5
v -0.3 -0.1 -0.6
v -0.3 0 -0.6
v -0.1 -0.1 -0.6
v -0.1 0 -0.6
v -5.96046e-08 -0.1 -0.6
v -5.96046e-08 0 -0.6
v 0.2 -0.1 -0.6
v 0.2 0 -0.6
v -0.3 -0.1 0.5
v -0.1 -0.1 0.5
v -5.96046e-08 -0.1 0.5
v 0.2 -0.1 0.5
v -0.4 -0.1 0.4
v -0.3 -0.1 0.4
v 0.2 -0.1 0.4
v 0.3 -0.1 0.4
v -0.5 -0.1 0.3
v -0.4 -0.1 0.3
v 0.3 -0.1 0.3
v 0.4 -0.1 0.3
v -0.6 -0.1 0.2
v -0.5 -0.1 0.2
v 0.4 -0.1 0.2
v 0.5 -0.1 0.2
v -0.6 -0.1 0
v -0.1 -0.1 0
v -5.96046e-08 -0.1 0
v 0.5 -0.1 0
v -0.6 -0.1 -0.1
v -0.1 -0.1 -0.1
v -5.96046e-08 -0.1 -0.1
v 0.5 -0.1 -0.1
v -0.6 -0.1 -0.3
v -0.5 -0.1 -0.3
v 0.4 -0.1 -0.3
v 0.5 -0.1 -0.3
v -0.5 -0.1 -0.4
v -0.4 -0.1 -0.4
v 0.3 -0.1 -0.4
v 0.4 -0.1 -0.4
v -0.4 -0.1 -0.5
v -0.3 -0.1 -0.5
v 0.2 -0.1 -0.5
v 0.3 -0.1 -0.5
v -0.3 -0.1 -0.6
v -0.1 -0.1 -0.6
v -5.96046e-08 -0.1 -0.6
v 0.2 -0.1 -0.6
v -0.3 0 0.5
v -0.1 0 0.5
v -5.96046e-08 0 0.5
v 0.2 0 0.5
v -0.4 0 0.4
v -0.3 0 0.4
v 0.2 0 0.4
v 0.3 0 0.4
v -0.5 0 0.3
v -0.4 0 0.3
v 0.3 0 0.3
v 0.4 0 0.3
v -0.6 0 0.2
v -0.5 0 0.2
v -0.4 0 0.2
v -0.3 0 0.2
v 0.4 0 0.2
v 0.5 0 0.2
v -0.5 0 0.1
v -0.4 0 0.1
v -0.6 0 0
v -0.5 0 0
v -0.3 0 0
v -0.1 0 0
v -5.96046e-08 0 0
v 0.5 0 0
v -0.6 0 -0.1
v -0.5 0 -0.1
v -0.3 0 -0.1
v -0.1 0 -0.1
v -5.96046e-08 0 -0.1
v 0.5 0 -0.1
v -0.5 0 -0.2
v -0.4 0 -0.2
v -0.6 0 -0.3
v -0.5 0 -0.3
v -0.4 0 -0.3
v -0.3 0 -0.3
v 0.4 0 -0.3
v 0.5 0 -0.3
v -0.5 0 -0.4
v -0.4 0 -0.4
v 0.3 0 -0.4
v 0.4 0 -0.4
v -0.4 0 -0.5
v -0.3 0 -0.5
v 0.2 0 -0.5
v 0.3 0 -0.5
v -0.3 0 -0.6
v -0.1 0 -0.6
v -5.96046e-08 0 -0.6
v 0.2 0 -0.6
v -0.4 0.1 0.2
v -0.3 0.1 0.2
v -0.5 0.1 0.1
v -0.4 0.1 0.1
v -0.6 0.1 0
v -0.5 0.1 0
v -0.3 0.1 0
v -5.96046e-08 0.1 0
v -0.6 0.1 -0.1
v -0.5 0.1 -0.1
v -0.3 0.1 -0.1
v -5.96046e-08 0.1 -0.1
v -0.5 0.1 -0.2
v -0.4 0.1 -0.2
v -0.4 0.1 -0.3
v -0.3 0.1 -0.3

# faces
f 5/3/1 2/3/1 1/3/1
f 6/4/1 3/4/1 2/4/1
f 6/3/1 2/3/1 5/3/1
f 7/2/1 4/2/1 3/2/1
f 7/4/1 3/4/1 6/4/1
f 8/2/1 4/2/1 7/2/1
f 9/1/1 7/1/1 6/1/1
f 10/1/1 7/1/1 9/1/1
f 15/3/1 12/3/1 11/3/1
f 16/3/1 12/3/1 15/3/1
f 21/2/1 14/2/1 13/2/1
f 22/2/1 14/2/1 21/2/1
f 23/1/1 18/1/1 17/1/1
f 24/1/1 18/1/1 23/1/1
f 25/1/1 20/1/1 19/1/1
f 26/1/1 20/1/1 25/1/1
f 31/3/1 28/3/1 27/3/1
f 32/3/1 28/3/1 31/3/1
f 37/2/1 30/2/1 29/2/1
f 38/2/1 30/2/1 37/2/1
f 39/1/1 34/1/1 33/1/1
f 40/1/1 34/1/1 39/1/1
f 41/1/1 36/1/1 35/1/1
f 42/1/1 36/1/1 41/1/1
f 47/3/1 44/3/1 43/3/1
f 48/3/1 44/3/1 47/3/1
f 49/2/1 46/2/1 45/2/1
f 50/2/1 46/2/1 49/2/1
f 51/1/2 52/1/2 55/1/2
f 55/1/2 52/1/2 56/1/2
f 53/1/2 54/1/2 57/1/2
f 57/1/2 54/1/2 58/1/2
f 59/1/2 60/1/2 61/1/2
f 61/1/2 60/1/2 62/1/2
f 63/2/2 64/2/2 67/2/2
f 67/2/2 64/2/2 68/2/2
f 65/3/2 66/3/2 69/3/2
f 69/3/2 66/3/2 70/3/2
f 71/2/2 72/2/2 75/2/2
f 75/2/2 72/2/2 76/2/2
f 73/3/2 74/3/2 77/3/2
f 77/3/2 74/3/2 78/3/2
f 79/2/2 80/2/2 83/2/2
f 83/2/2 80/2/2 84/2/2
f 81/3/2 82/3/2 85/3/2
f 85/3/2 82/3/2 86/3/2
f 87/2/2 88/2/2 91/2/2
f 88/4/2 89/4/2 92/4/2
f 91/2/2 88/2/2 92/2/2
f 89/3/2 90/3/2 93/3/2
f 92/4/2 89/4/2 93/4/2
f 93/3/2 90/3/2 94/3/2
f 97/3/3 96/3/3 95/3/3
f 98/3/3 96/3/3 97/3/3
f 99/4/3 98/4/3 97/4/3
f 100/4/3 98/4/3 99/4/3
f 101/2/3 100/2/3 99/2/3
f 102/2/3 100/2/3 101/2/3
f 105/3/3 104/3/3 103/3/3
f 106/3/3 104/3/3 105/3/3
f 109/2/3 108/2/3 107/2/3
f 110/2/3 108/2/3 109/2/3
f 113/3/3 112/3/3 111/3/3
f 114/3/3 112/3/3 113/3/3
f 117/2/3 116/2/3 115/2/3
f 118/2/3 116/2/3 117/2/3
f 121/3/3 120/3/3 119/3/3
f 122/3/3 120/3/3 121/3/3
f 125/1/3 124/1/3 123/1/3
f 126/1/3 124/1/3 125/1/3
f 129/2/3 128/2/3 127/2/3
f 130/2/3 128/2/3 129/2/3
f 133/1/3 132/1/3 131/1/3
f 134/1/3 132/1/3 133/1/3
f 137/1/3 136/1/3 135/1/3
f 138/1/3 136/1/3 137/1/3
f 141/1/3 140/1/3 139/1/3
f 142/1/3 140/1/3 141/1/3
f 143/1/3 140/1/3 142/1/3
f 144/1/4 145/1/4 146/1/4
f 146/1/4 145/1/4 147/1/4
f 148/1/4 149/1/4 150/1/4
f 150/1/4 149/1/4 151/1/4
f 151/1/4 149/1/4 152/1/4
f 153/1/4 154/1/4 155/1/4
f 155/1/4 154/1/4 156/1/4
f 157/2/4 158/2/4 159/2/4
f 159/2/4 158/2/4 160/2/4
f 161/1/4 162/1/4 163/1/4
f 163/1/4 162/1/4 164/1/4
f 165/3/4 166/3/4 167/3/4
f 167/3/4 166/3/4 168/3/4
f 169/2/4 170/2/4 171/2/4
f 171/2/4 170/2/4 172/2/4
f 173/3/4 174/3/4 175/3/4
f 175/3/4 174/3/4 176/3/4
f 177/2/4 178/2/4 179/2/4
f 179/2/4 178/2/4 180/2/4
f 181/3/4 182/3/4 183/3/4
f 183/3/4 182/3/4 184/3/4
f 185/2/4 186/2/4 187/2/4
f 187/2/4 186/2/4 188/2/4
f 187/4/4 188/4/4 189/4/4
f 189/4/4 188/4/4 190/4/4
f 189/3/4 190/3/4 191/3/4
f 191/3/4 190/3/4 192/3/4
f 198/3/5 194/3/5 193/3/5
f 199/2/5 196/2/5 195/2/5
f 202/3/5 198/3/5 197/3/5
f 203/2/5 200/2/5 199/2/5
f 206/3/5 202/3/5 201/3/5
f 207/2/5 204/2/5 203/2/5
f 209/3/5 206/3/5 205/3/5
f 210/4/5 195/4/5 194/4/5
f 210/3/5 206/3/5 209/3/5
f 210/3/5 194/3/5 198/3/5
f 210/3/5 198/3/5 202/3/5
f 210/3/5 202/3/5 206/3/5
f 211/2/5 208/2/5 207/2/5
f 211/4/5 195/4/5 210/4/5
f 211/2/5 207/2/5 203/2/5
f 211/2/5 203/2/5 199/2/5
f 211/2/5 199/2/5 195/2/5
f 212/2/5 208/2/5 211/2/5
f 213/4/5 210/4/5 209/4/5
f 213/4/5 211/4/5 210/4/5
f 213/4/5 212/4/5 211/4/5
f 214/4/5 212/4/5 213/4/5
f 215/4/5 212/4/5 214/4/5
f 216/4/5 212/4/5 215/4/5
f 217/2/5 214/2/5 213/2/5
f 218/2/5 214/2/5 217/2/5
f 219/3/5 216/3/5 215/3/5
f 220/3/5 216/3/5 219/3/5
f 221/2/5 214/2/5 218/2/5
f 222/2/5 214/2/5 221/2/5
f 223/3/5 219/3/5 215/3/5
f 224/3/5 219/3/5 223/3/5
f 225/2/5 214/2/5 222/2/5
f 226/2/5 214/2/5 225/2/5
f 227/3/5 223/3/5 215/3/5
f 228/3/5 223/3/5 227/3/5
f 229/2/5 214/2/5 226/2/5
f 230/4/5 215/4/5 214/4/5
f 230/2/5 214/2/5 229/2/5
f 231/3/5 227/3/5 215/3/5
f 231/4/5 215/4/5 230/4/5
f 232/3/5 227/3/5 231/3/5
f 233/3/6 234/3/6 238/3/6
f 235/2/6 236/2/6 239/2/6
f 237/3/6 238/3/6 242/3/6
f 239/2/6 240/2/6 243/2/6
f 241/3/6 242/3/6 246/3/6
f 242/3/6 238/3/6 247/3/6
f 246/3/6 242/3/6 247/3/6
f 238/3/6 234/3/6 248/3/6
f 247/3/6 238/3/6 248/3/6
f 243/2/6 244/2/6 249/2/6
f 246/3/6 247/3/6 251/3/6
f 245/3/6 246/3/6 251/3/6
f 251/3/6 247/3/6 252/3/6
f 245/3/6 251/3/6 253/3/6
f 253/3/6 251/3/6 254/3/6
f 248/3/6 234/3/6 255/3/6
f 234/4/6 235/4/6 256/4/6
f 255/3/6 234/3/6 256/3/6
f 249/2/6 250/2/6 257/2/6
f 256/4/6 235/4/6 257/4/6
f 235/2/6 239/2/6 257/2/6
f 243/2/6 249/2/6 257/2/6
f 239/2/6 243/2/6 257/2/6
f 257/2/6 250/2/6 258/2/6
f 257/4/6 258/4/6 263/4/6
f 263/4/6 258/4/6 264/4/6
f 259/2/6 260/2/6 265/2/6
f 259/2/6 265/2/6 267/2/6
f 265/2/6 266/2/6 267/2/6
f 267/2/6 266/2/6 268/2/6
f 268/2/6 266/2/6 269/2/6
f 261/2/6 262/2/6 270/2/6
f 263/3/6 264/3/6 271/3/6
f 271/3/6 264/3/6 272/3/6
f 268/2/6 269/2/6 273/2/6
f 269/2/6 270/2/6 273/2/6
f 273/2/6 270/2/6 274/2/6
f 263/3/6 271/3/6 275/3/6
f 275/3/6 271/3/6 276/3/6
f 274/2/6 270/2/6 277/2/6
f 270/2/6 262/2/6 278/2/6
f 277/2/6 270/2/6 278/2/6
f 263/3/6 275/3/6 279/3/6
f 279/3/6 275/3/6 280/3/6
f 278/2/6 262/2/6 281/2/6
f 262/4/6 263/4/6 282/4/6
f 281/2/6 262/2/6 282/2/6
f 263/3/6 279/3/6 283/3/6
f 282/4/6 263/4/6 283/4/6
f 283/3/6 279/3/6 284/3/6
f 285/1/6 286/1/6 288/1/6
f 287/1/6 288/1/6 290/1/6
f 288/1/6 286/1/6 291/1/6
f 290/1/6 288/1/6 291/1/6
f 289/1/6 290/1/6 293/1/6
f 291/1/6 292/1/6 293/1/6
f 290/1/6 291/1/6 293/1/6
f 293/1/6 292/1/6 294/1/6
f 294/1/6 292/1/6 295/1/6
f 295/1/6 292/1/6 296/1/6
f 294/1/6 295/1/6 297/1/6
f 297/1/6 295/1/6 298/1/6
f 298/1/6 295/1/6 299/1/6
f 299/1/6 295/1/6 300/1/6
