# MagicaVoxel @ Ephtracy

# group
o 

# material
mtllib glue_3_1.4.mtl
usemtl palette

# normals
vn -1 0 0
vn 1 0 0
vn 0 0 1
vn 0 0 -1
vn 0 -1 0
vn 0 1 0

# texcoords
vt 0.474609 0.5
vt 0.958984 0.5
vt 0.990234 0.5

# verts
v -0.7 -1.1 0.4
v -0.7 -1.1 -0.5
v -0.7 0.2 0.4
v -0.7 0.2 -0.5
v -0.7 4.3 0.4
v -0.7 4.3 -0.5
v -0.7 5 0.4
v -0.7 5 -0.5
v -0.6 -1.1 0.6
v -0.6 -1.1 0.4
v -0.6 -1.1 -0.5
v -0.6 -1.1 -0.7
v -0.6 0.2 0.6
v -0.6 0.2 0.4
v -0.6 0.2 -0.5
v -0.6 0.2 -0.7
v -0.6 4.3 0.6
v -0.6 4.3 0.4
v -0.6 4.3 -0.5
v -0.6 4.3 -0.7
v -0.6 5 0.6
v -0.6 5 0.4
v -0.6 5 -0.5
v -0.6 5 -0.7
v -0.4 -1.1 0.7
v -0.4 -1.1 0.6
v -0.4 -1.1 -0.7
v -0.4 -1.1 -0.8
v -0.4 0.2 0.7
v -0.4 0.2 0.6
v -0.4 0.2 -0.7
v -0.4 0.2 -0.8
v -0.4 4.3 0.7
v -0.4 4.3 0.6
v -0.4 4.3 -0.7
v -0.4 4.3 -0.8
v -0.4 5 0.7
v -0.4 5 0.6
v -0.4 5 -0.7
v -0.4 5 -0.8
v 0.5 -1 0.6
v 0.5 -1 0.4
v 0.5 -1 -0.5
v 0.5 -1 -0.7
v 0.5 0.2 0.6
v 0.5 0.2 0.4
v 0.5 0.2 -0.5
v 0.5 0.2 -0.7
v 0.5 4.3 0.6
v 0.5 4.3 0.4
v 0.5 4.3 -0.5
v 0.5 4.3 -0.7
v 0.5 4.9 0.6
v 0.5 4.9 0.4
v 0.5 4.9 -0.5
v 0.5 4.9 -0.7
v 0.7 -1 0.4
v 0.7 -1 -0.5
v 0.7 0.2 0.4
v 0.7 0.2 -0.5
v 0.7 4.3 0.4
v 0.7 4.3 -0.5
v 0.7 4.9 0.4
v 0.7 4.9 -0.5
v -0.6 -1 0.4
v -0.6 -1 -0.5
v -0.6 0.2 0.4
v -0.6 0.2 -0.5
v -0.6 4.3 0.4
v -0.6 4.3 -0.5
v -0.6 4.9 0.4
v -0.6 4.9 -0.5
v -0.4 -1 0.6
v -0.4 -1 0.4
v -0.4 -1 -0.5
v -0.4 -1 -0.7
v -0.4 0.2 0.6
v -0.4 0.2 0.4
v -0.4 0.2 -0.5
v -0.4 0.2 -0.7
v -0.4 4.3 0.6
v -0.4 4.3 0.4
v -0.4 4.3 -0.5
v -0.4 4.3 -0.7
v -0.4 4.9 0.6
v -0.4 4.9 0.4
v -0.4 4.9 -0.5
v -0.4 4.9 -0.7
v 0.5 -1.1 0.7
v 0.5 -1.1 0.6
v 0.5 -1.1 -0.7
v 0.5 -1.1 -0.8
v 0.5 0.2 0.7
v 0.5 0.2 0.6
v 0.5 0.2 -0.7
v 0.5 0.2 -0.8
v 0.5 4.3 0.7
v 0.5 4.3 0.6
v 0.5 4.3 -0.7
v 0.5 4.3 -0.8
v 0.5 5 0.7
v 0.5 5 0.6
v 0.5 5 -0.7
v 0.5 5 -0.8
v 0.7 -1.1 0.6
v 0.7 -1.1 0.4
v 0.7 -1.1 -0.5
v 0.7 -1.1 -0.7
v 0.7 0.2 0.6
v 0.7 0.2 0.4
v 0.7 0.2 -0.5
v 0.7 0.2 -0.7
v 0.7 4.3 0.6
v 0.7 4.3 0.4
v 0.7 4.3 -0.5
v 0.7 4.3 -0.7
v 0.7 5 0.6
v 0.7 5 0.4
v 0.7 5 -0.5
v 0.7 5 -0.7
v 0.8 -1.1 0.4
v 0.8 -1.1 -0.5
v 0.8 0.2 0.4
v 0.8 0.2 -0.5
v 0.8 4.3 0.4
v 0.8 4.3 -0.5
v 0.8 5 0.4
v 0.8 5 -0.5
v -0.4 -1.1 0.7
v -0.4 0.2 0.7
v -0.4 4.3 0.7
v -0.4 5 0.7
v -0.3 0.7 0.7
v -0.3 1.4 0.7
v -0.3 1.5 0.7
v -0.3 2.2 0.7
v -0.3 2.3 0.7
v -0.3 3 0.7
v -0.3 3.1 0.7
v -0.3 3.8 0.7
v -0.2 0.8 0.7
v -0.2 1 0.7
v -0.2 1.1 0.7
v -0.2 1.3 0.7
v -0.2 1.6 0.7
v -0.2 2.2 0.7
v -0.2 2.4 0.7
v -0.2 3 0.7
v -0.2 3.2 0.7
v -0.2 3.7 0.7
v -0.1 3.4 0.7
v -0.1 3.5 0.7
v 0.3 1.6 0.7
v 0.3 2.2 0.7
v 0.3 3.2 0.7
v 0.3 3.4 0.7
v 0.4 0.7 0.7
v 0.4 0.8 0.7
v 0.4 1 0.7
v 0.4 1.1 0.7
v 0.4 1.3 0.7
v 0.4 1.4 0.7
v 0.4 1.5 0.7
v 0.4 2.2 0.7
v 0.4 2.3 0.7
v 0.4 2.4 0.7
v 0.4 3.1 0.7
v 0.4 3.5 0.7
v 0.4 3.7 0.7
v 0.4 3.8 0.7
v 0.5 -1.1 0.7
v 0.5 0.2 0.7
v 0.5 4.3 0.7
v 0.5 5 0.7
v -0.6 -1.1 0.6
v -0.6 0.2 0.6
v -0.6 4.3 0.6
v -0.6 5 0.6
v -0.4 -1.1 0.6
v -0.4 0.2 0.6
v -0.4 4.3 0.6
v -0.4 5 0.6
v 0.5 -1.1 0.6
v 0.5 0.2 0.6
v 0.5 4.3 0.6
v 0.5 5 0.6
v 0.7 -1.1 0.6
v 0.7 0.2 0.6
v 0.7 4.3 0.6
v 0.7 5 0.6
v -0.7 -1.1 0.4
v -0.7 0.2 0.4
v -0.7 4.3 0.4
v -0.7 5 0.4
v -0.6 -1.1 0.4
v -0.6 0.2 0.4
v -0.6 4.3 0.4
v -0.6 5 0.4
v 0.7 -1.1 0.4
v 0.7 0.2 0.4
v 0.7 4.3 0.4
v 0.7 5 0.4
v 0.8 -1.1 0.4
v 0.8 0.2 0.4
v 0.8 4.3 0.4
v 0.8 5 0.4
v -0.6 -1 -0.5
v -0.6 0.2 -0.5
v -0.6 4.3 -0.5
v -0.6 4.9 -0.5
v -0.4 -1 -0.5
v -0.4 0.2 -0.5
v -0.4 4.3 -0.5
v -0.4 4.9 -0.5
v 0.5 -1 -0.5
v 0.5 0.2 -0.5
v 0.5 4.3 -0.5
v 0.5 4.9 -0.5
v 0.7 -1 -0.5
v 0.7 0.2 -0.5
v 0.7 4.3 -0.5
v 0.7 4.9 -0.5
v -0.4 -1 -0.7
v -0.4 0.2 -0.7
v -0.4 4.3 -0.7
v -0.4 4.9 -0.7
v 0.5 -1 -0.7
v 0.5 0.2 -0.7
v 0.5 4.3 -0.7
v 0.5 4.9 -0.7
v -0.4 -1 0.6
v -0.4 0.2 0.6
v -0.4 4.3 0.6
v -0.4 4.9 0.6
v -0.3 0.7 0.6
v -0.3 1.4 0.6
v -0.3 1.5 0.6
v -0.3 2.2 0.6
v -0.3 2.3 0.6
v -0.3 3 0.6
v -0.3 3.1 0.6
v -0.3 3.8 0.6
v -0.2 0.8 0.6
v -0.2 1 0.6
v -0.2 1.1 0.6
v -0.2 1.3 0.6
v -0.2 1.6 0.6
v -0.2 2.2 0.6
v -0.2 2.4 0.6
v -0.2 3 0.6
v -0.2 3.2 0.6
v -0.2 3.7 0.6
v -0.1 3.4 0.6
v -0.1 3.5 0.6
v 0.3 1.6 0.6
v 0.3 2.2 0.6
v 0.3 3.2 0.6
v 0.3 3.4 0.6
v 0.4 0.7 0.6
v 0.4 0.8 0.6
v 0.4 1 0.6
v 0.4 1.1 0.6
v 0.4 1.3 0.6
v 0.4 1.4 0.6
v 0.4 1.5 0.6
v 0.4 2.2 0.6
v 0.4 2.3 0.6
v 0.4 2.4 0.6
v 0.4 3.1 0.6
v 0.4 3.5 0.6
v 0.4 3.7 0.6
v 0.4 3.8 0.6
v 0.5 -1 0.6
v 0.5 0.2 0.6
v 0.5 4.3 0.6
v 0.5 4.9 0.6
v -0.6 -1 0.4
v -0.6 0.2 0.4
v -0.6 4.3 0.4
v -0.6 4.9 0.4
v -0.4 -1 0.4
v -0.4 0.2 0.4
v -0.4 4.3 0.4
v -0.4 4.9 0.4
v 0.5 -1 0.4
v 0.5 0.2 0.4
v 0.5 4.3 0.4
v 0.5 4.9 0.4
v 0.7 -1 0.4
v 0.7 0.2 0.4
v 0.7 4.3 0.4
v 0.7 4.9 0.4
v -0.7 -1.1 -0.5
v -0.7 0.2 -0.5
v -0.7 4.3 -0.5
v -0.7 5 -0.5
v -0.6 -1.1 -0.5
v -0.6 0.2 -0.5
v -0.6 4.3 -0.5
v -0.6 5 -0.5
v 0.7 -1.1 -0.5
v 0.7 0.2 -0.5
v 0.7 4.3 -0.5
v 0.7 5 -0.5
v 0.8 -1.1 -0.5
v 0.8 0.2 -0.5
v 0.8 4.3 -0.5
v 0.8 5 -0.5
v -0.6 -1.1 -0.7
v -0.6 0.2 -0.7
v -0.6 4.3 -0.7
v -0.6 5 -0.7
v -0.4 -1.1 -0.7
v -0.4 0.2 -0.7
v -0.4 4.3 -0.7
v -0.4 5 -0.7
v 0.5 -1.1 -0.7
v 0.5 0.2 -0.7
v 0.5 4.3 -0.7
v 0.5 5 -0.7
v 0.7 -1.1 -0.7
v 0.7 0.2 -0.7
v 0.7 4.3 -0.7
v 0.7 5 -0.7
v -0.4 -1.1 -0.8
v -0.4 0.2 -0.8
v -0.4 4.3 -0.8
v -0.4 5 -0.8
v 0.5 -1.1 -0.8
v 0.5 0.2 -0.8
v 0.5 4.3 -0.8
v 0.5 5 -0.8
v -0.4 -1.1 0.7
v 0.5 -1.1 0.7
v -0.6 -1.1 0.6
v -0.4 -1.1 0.6
v 0.5 -1.1 0.6
v 0.7 -1.1 0.6
v -0.7 -1.1 0.4
v -0.6 -1.1 0.4
v 0.7 -1.1 0.4
v 0.8 -1.1 0.4
v -0.7 -1.1 -0.5
v -0.6 -1.1 -0.5
v 0.7 -1.1 -0.5
v 0.8 -1.1 -0.5
v -0.6 -1.1 -0.7
v -0.4 -1.1 -0.7
v 0.5 -1.1 -0.7
v 0.7 -1.1 -0.7
v -0.4 -1.1 -0.8
v 0.5 -1.1 -0.8
v -0.4 4.9 0.6
v 0.5 4.9 0.6
v -0.6 4.9 0.4
v -0.4 4.9 0.4
v 0.5 4.9 0.4
v 0.7 4.9 0.4
v -0.6 4.9 -0.5
v -0.4 4.9 -0.5
v 0.5 4.9 -0.5
v 0.7 4.9 -0.5
v -0.4 4.9 -0.7
v 0.5 4.9 -0.7
v -0.4 -1 0.6
v 0.5 -1 0.6
v -0.6 -1 0.4
v -0.4 -1 0.4
v 0.5 -1 0.4
v 0.7 -1 0.4
v -0.6 -1 -0.5
v -0.4 -1 -0.5
v 0.5 -1 -0.5
v 0.7 -1 -0.5
v -0.4 -1 -0.7
v 0.5 -1 -0.7
v -0.4 5 0.7
v 0.5 5 0.7
v -0.6 5 0.6
v -0.4 5 0.6
v 0.5 5 0.6
v 0.7 5 0.6
v -0.7 5 0.4
v -0.6 5 0.4
v 0.7 5 0.4
v 0.8 5 0.4
v -0.7 5 -0.5
v -0.6 5 -0.5
v 0.7 5 -0.5
v 0.8 5 -0.5
v -0.6 5 -0.7
v -0.4 5 -0.7
v 0.5 5 -0.7
v 0.7 5 -0.7
v -0.4 5 -0.8
v 0.5 5 -0.8

# faces
f 3/1/1 2/1/1 1/1/1
f 4/1/1 2/1/1 3/1/1
f 5/3/1 4/3/1 3/3/1
f 6/3/1 4/3/1 5/3/1
f 7/1/1 6/1/1 5/1/1
f 8/1/1 6/1/1 7/1/1
f 13/1/1 10/1/1 9/1/1
f 14/1/1 10/1/1 13/1/1
f 15/1/1 12/1/1 11/1/1
f 16/1/1 12/1/1 15/1/1
f 17/3/1 14/3/1 13/3/1
f 18/3/1 14/3/1 17/3/1
f 19/3/1 16/3/1 15/3/1
f 20/3/1 16/3/1 19/3/1
f 21/1/1 18/1/1 17/1/1
f 22/1/1 18/1/1 21/1/1
f 23/1/1 20/1/1 19/1/1
f 24/1/1 20/1/1 23/1/1
f 29/1/1 26/1/1 25/1/1
f 30/1/1 26/1/1 29/1/1
f 31/1/1 28/1/1 27/1/1
f 32/1/1 28/1/1 31/1/1
f 33/3/1 30/3/1 29/3/1
f 34/3/1 30/3/1 33/3/1
f 35/3/1 32/3/1 31/3/1
f 36/3/1 32/3/1 35/3/1
f 37/1/1 34/1/1 33/1/1
f 38/1/1 34/1/1 37/1/1
f 39/1/1 36/1/1 35/1/1
f 40/1/1 36/1/1 39/1/1
f 45/1/1 42/1/1 41/1/1
f 46/1/1 42/1/1 45/1/1
f 47/1/1 44/1/1 43/1/1
f 48/1/1 44/1/1 47/1/1
f 49/3/1 46/3/1 45/3/1
f 50/3/1 46/3/1 49/3/1
f 51/3/1 48/3/1 47/3/1
f 52/3/1 48/3/1 51/3/1
f 53/1/1 50/1/1 49/1/1
f 54/1/1 50/1/1 53/1/1
f 55/1/1 52/1/1 51/1/1
f 56/1/1 52/1/1 55/1/1
f 59/1/1 58/1/1 57/1/1
f 60/1/1 58/1/1 59/1/1
f 61/3/1 60/3/1 59/3/1
f 62/3/1 60/3/1 61/3/1
f 63/1/1 62/1/1 61/1/1
f 64/1/1 62/1/1 63/1/1
f 65/1/2 66/1/2 67/1/2
f 67/1/2 66/1/2 68/1/2
f 67/3/2 68/3/2 69/3/2
f 69/3/2 68/3/2 70/3/2
f 69/1/2 70/1/2 71/1/2
f 71/1/2 70/1/2 72/1/2
f 73/1/2 74/1/2 77/1/2
f 77/1/2 74/1/2 78/1/2
f 75/1/2 76/1/2 79/1/2
f 79/1/2 76/1/2 80/1/2
f 77/3/2 78/3/2 81/3/2
f 81/3/2 78/3/2 82/3/2
f 79/3/2 80/3/2 83/3/2
f 83/3/2 80/3/2 84/3/2
f 81/1/2 82/1/2 85/1/2
f 85/1/2 82/1/2 86/1/2
f 83/1/2 84/1/2 87/1/2
f 87/1/2 84/1/2 88/1/2
f 89/1/2 90/1/2 93/1/2
f 93/1/2 90/1/2 94/1/2
f 91/1/2 92/1/2 95/1/2
f 95/1/2 92/1/2 96/1/2
f 93/3/2 94/3/2 97/3/2
f 97/3/2 94/3/2 98/3/2
f 95/3/2 96/3/2 99/3/2
f 99/3/2 96/3/2 100/3/2
f 97/1/2 98/1/2 101/1/2
f 101/1/2 98/1/2 102/1/2
f 99/1/2 100/1/2 103/1/2
f 103/1/2 100/1/2 104/1/2
f 105/1/2 106/1/2 109/1/2
f 109/1/2 106/1/2 110/1/2
f 107/1/2 108/1/2 111/1/2
f 111/1/2 108/1/2 112/1/2
f 109/3/2 110/3/2 113/3/2
f 113/3/2 110/3/2 114/3/2
f 111/3/2 112/3/2 115/3/2
f 115/3/2 112/3/2 116/3/2
f 113/1/2 114/1/2 117/1/2
f 117/1/2 114/1/2 118/1/2
f 115/1/2 116/1/2 119/1/2
f 119/1/2 116/1/2 120/1/2
f 121/1/2 122/1/2 123/1/2
f 123/1/2 122/1/2 124/1/2
f 123/3/2 124/3/2 125/3/2
f 125/3/2 124/3/2 126/3/2
f 125/1/2 126/1/2 127/1/2
f 127/1/2 126/1/2 128/1/2
f 133/3/3 131/3/3 130/3/3
f 134/3/3 131/3/3 133/3/3
f 135/3/3 131/3/3 134/3/3
f 136/3/3 131/3/3 135/3/3
f 137/3/3 131/3/3 136/3/3
f 138/3/3 131/3/3 137/3/3
f 139/3/3 131/3/3 138/3/3
f 140/3/3 131/3/3 139/3/3
f 141/2/3 134/2/3 133/2/3
f 142/2/3 134/2/3 141/2/3
f 143/2/3 134/2/3 142/2/3
f 144/2/3 134/2/3 143/2/3
f 145/2/3 136/2/3 135/2/3
f 146/3/3 137/3/3 136/3/3
f 146/2/3 136/2/3 145/2/3
f 147/2/3 138/2/3 137/2/3
f 148/3/3 139/3/3 138/3/3
f 148/2/3 138/2/3 147/2/3
f 149/2/3 140/2/3 139/2/3
f 150/2/3 140/2/3 149/2/3
f 151/3/3 150/3/3 149/3/3
f 152/3/3 150/3/3 151/3/3
f 153/2/3 145/2/3 135/2/3
f 153/3/3 146/3/3 145/3/3
f 154/3/3 137/3/3 146/3/3
f 154/3/3 146/3/3 153/3/3
f 155/2/3 149/2/3 139/2/3
f 155/3/3 151/3/3 149/3/3
f 156/2/3 152/2/3 151/2/3
f 156/3/3 151/3/3 155/3/3
f 157/3/3 133/3/3 130/3/3
f 157/2/3 141/2/3 133/2/3
f 158/3/3 142/3/3 141/3/3
f 158/2/3 141/2/3 157/2/3
f 159/2/3 143/2/3 142/2/3
f 159/3/3 142/3/3 158/3/3
f 160/3/3 144/3/3 143/3/3
f 160/2/3 143/2/3 159/2/3
f 161/2/3 134/2/3 144/2/3
f 161/3/3 144/3/3 160/3/3
f 162/3/3 135/3/3 134/3/3
f 162/2/3 134/2/3 161/2/3
f 163/2/3 153/2/3 135/2/3
f 163/3/3 135/3/3 162/3/3
f 163/2/3 154/2/3 153/2/3
f 164/3/3 137/3/3 154/3/3
f 164/2/3 154/2/3 163/2/3
f 165/2/3 147/2/3 137/2/3
f 165/3/3 137/3/3 164/3/3
f 166/3/3 148/3/3 147/3/3
f 166/2/3 147/2/3 165/2/3
f 167/3/3 139/3/3 148/3/3
f 167/3/3 148/3/3 166/3/3
f 167/2/3 156/2/3 155/2/3
f 167/2/3 155/2/3 139/2/3
f 168/2/3 152/2/3 156/2/3
f 168/2/3 156/2/3 167/2/3
f 168/3/3 150/3/3 152/3/3
f 169/2/3 140/2/3 150/2/3
f 169/3/3 150/3/3 168/3/3
f 170/3/3 131/3/3 140/3/3
f 170/2/3 140/2/3 169/2/3
f 171/1/3 130/1/3 129/1/3
f 172/3/3 167/3/3 166/3/3
f 172/1/3 130/1/3 171/1/3
f 172/3/3 169/3/3 168/3/3
f 172/3/3 170/3/3 169/3/3
f 172/3/3 163/3/3 162/3/3
f 172/3/3 159/3/3 158/3/3
f 172/3/3 158/3/3 157/3/3
f 172/3/3 157/3/3 130/3/3
f 172/3/3 168/3/3 167/3/3
f 172/3/3 166/3/3 165/3/3
f 172/3/3 164/3/3 163/3/3
f 172/3/3 162/3/3 161/3/3
f 172/3/3 165/3/3 164/3/3
f 172/3/3 160/3/3 159/3/3
f 172/3/3 161/3/3 160/3/3
f 173/3/3 131/3/3 170/3/3
f 173/3/3 170/3/3 172/3/3
f 173/1/3 132/1/3 131/1/3
f 174/1/3 132/1/3 173/1/3
f 179/1/3 176/1/3 175/1/3
f 180/3/3 177/3/3 176/3/3
f 180/1/3 176/1/3 179/1/3
f 181/1/3 178/1/3 177/1/3
f 181/3/3 177/3/3 180/3/3
f 182/1/3 178/1/3 181/1/3
f 187/1/3 184/1/3 183/1/3
f 188/3/3 185/3/3 184/3/3
f 188/1/3 184/1/3 187/1/3
f 189/1/3 186/1/3 185/1/3
f 189/3/3 185/3/3 188/3/3
f 190/1/3 186/1/3 189/1/3
f 195/1/3 192/1/3 191/1/3
f 196/3/3 193/3/3 192/3/3
f 196/1/3 192/1/3 195/1/3
f 197/1/3 194/1/3 193/1/3
f 197/3/3 193/3/3 196/3/3
f 198/1/3 194/1/3 197/1/3
f 203/1/3 200/1/3 199/1/3
f 204/3/3 201/3/3 200/3/3
f 204/1/3 200/1/3 203/1/3
f 205/1/3 202/1/3 201/1/3
f 205/3/3 201/3/3 204/3/3
f 206/1/3 202/1/3 205/1/3
f 211/1/3 208/1/3 207/1/3
f 212/3/3 209/3/3 208/3/3
f 212/1/3 208/1/3 211/1/3
f 213/1/3 210/1/3 209/1/3
f 213/3/3 209/3/3 212/3/3
f 214/1/3 210/1/3 213/1/3
f 219/1/3 216/1/3 215/1/3
f 220/3/3 217/3/3 216/3/3
f 220/1/3 216/1/3 219/1/3
f 221/1/3 218/1/3 217/1/3
f 221/3/3 217/3/3 220/3/3
f 222/1/3 218/1/3 221/1/3
f 227/1/3 224/1/3 223/1/3
f 228/3/3 225/3/3 224/3/3
f 228/1/3 224/1/3 227/1/3
f 229/1/3 226/1/3 225/1/3
f 229/3/3 225/3/3 228/3/3
f 230/1/3 226/1/3 229/1/3
f 232/3/4 233/3/4 235/3/4
f 235/3/4 233/3/4 236/3/4
f 236/3/4 233/3/4 237/3/4
f 237/3/4 233/3/4 238/3/4
f 238/3/4 233/3/4 239/3/4
f 239/3/4 233/3/4 240/3/4
f 240/3/4 233/3/4 241/3/4
f 241/3/4 233/3/4 242/3/4
f 235/2/4 236/2/4 243/2/4
f 243/2/4 236/2/4 244/2/4
f 244/2/4 236/2/4 245/2/4
f 245/2/4 236/2/4 246/2/4
f 237/2/4 238/2/4 247/2/4
f 238/3/4 239/3/4 248/3/4
f 247/2/4 238/2/4 248/2/4
f 239/2/4 240/2/4 249/2/4
f 240/3/4 241/3/4 250/3/4
f 249/2/4 240/2/4 250/2/4
f 241/2/4 242/2/4 251/2/4
f 251/2/4 242/2/4 252/2/4
f 251/3/4 252/3/4 253/3/4
f 253/3/4 252/3/4 254/3/4
f 237/2/4 247/2/4 255/2/4
f 247/3/4 248/3/4 255/3/4
f 248/3/4 239/3/4 256/3/4
f 255/3/4 248/3/4 256/3/4
f 241/2/4 251/2/4 257/2/4
f 251/3/4 253/3/4 257/3/4
f 253/2/4 254/2/4 258/2/4
f 257/3/4 253/3/4 258/3/4
f 232/3/4 235/3/4 259/3/4
f 235/2/4 243/2/4 259/2/4
f 243/3/4 244/3/4 260/3/4
f 259/2/4 243/2/4 260/2/4
f 244/2/4 245/2/4 261/2/4
f 260/3/4 244/3/4 261/3/4
f 245/3/4 246/3/4 262/3/4
f 261/2/4 245/2/4 262/2/4
f 246/2/4 236/2/4 263/2/4
f 262/3/4 246/3/4 263/3/4
f 236/3/4 237/3/4 264/3/4
f 263/2/4 236/2/4 264/2/4
f 237/2/4 255/2/4 265/2/4
f 264/3/4 237/3/4 265/3/4
f 255/2/4 256/2/4 265/2/4
f 256/3/4 239/3/4 266/3/4
f 265/2/4 256/2/4 266/2/4
f 239/2/4 249/2/4 267/2/4
f 266/3/4 239/3/4 267/3/4
f 249/3/4 250/3/4 268/3/4
f 267/2/4 249/2/4 268/2/4
f 250/3/4 241/3/4 269/3/4
f 268/3/4 250/3/4 269/3/4
f 257/2/4 258/2/4 269/2/4
f 241/2/4 257/2/4 269/2/4
f 258/2/4 254/2/4 270/2/4
f 269/2/4 258/2/4 270/2/4
f 254/3/4 252/3/4 270/3/4
f 252/2/4 242/2/4 271/2/4
f 270/3/4 252/3/4 271/3/4
f 242/3/4 233/3/4 272/3/4
f 271/2/4 242/2/4 272/2/4
f 231/1/4 232/1/4 273/1/4
f 268/3/4 269/3/4 274/3/4
f 273/1/4 232/1/4 274/1/4
f 270/3/4 271/3/4 274/3/4
f 271/3/4 272/3/4 274/3/4
f 264/3/4 265/3/4 274/3/4
f 260/3/4 261/3/4 274/3/4
f 259/3/4 260/3/4 274/3/4
f 232/3/4 259/3/4 274/3/4
f 269/3/4 270/3/4 274/3/4
f 267/3/4 268/3/4 274/3/4
f 265/3/4 266/3/4 274/3/4
f 263/3/4 264/3/4 274/3/4
f 266/3/4 267/3/4 274/3/4
f 261/3/4 262/3/4 274/3/4
f 262/3/4 263/3/4 274/3/4
f 272/3/4 233/3/4 275/3/4
f 274/3/4 272/3/4 275/3/4
f 233/1/4 234/1/4 275/1/4
f 275/1/4 234/1/4 276/1/4
f 277/1/4 278/1/4 281/1/4
f 278/3/4 279/3/4 282/3/4
f 281/1/4 278/1/4 282/1/4
f 279/1/4 280/1/4 283/1/4
f 282/3/4 279/3/4 283/3/4
f 283/1/4 280/1/4 284/1/4
f 285/1/4 286/1/4 289/1/4
f 286/3/4 287/3/4 290/3/4
f 289/1/4 286/1/4 290/1/4
f 287/1/4 288/1/4 291/1/4
f 290/3/4 287/3/4 291/3/4
f 291/1/4 288/1/4 292/1/4
f 293/1/4 294/1/4 297/1/4
f 294/3/4 295/3/4 298/3/4
f 297/1/4 294/1/4 298/1/4
f 295/1/4 296/1/4 299/1/4
f 298/3/4 295/3/4 299/3/4
f 299/1/4 296/1/4 300/1/4
f 301/1/4 302/1/4 305/1/4
f 302/3/4 303/3/4 306/3/4
f 305/1/4 302/1/4 306/1/4
f 303/1/4 304/1/4 307/1/4
f 306/3/4 303/3/4 307/3/4
f 307/1/4 304/1/4 308/1/4
f 309/1/4 310/1/4 313/1/4
f 310/3/4 311/3/4 314/3/4
f 313/1/4 310/1/4 314/1/4
f 311/1/4 312/1/4 315/1/4
f 314/3/4 311/3/4 315/3/4
f 315/1/4 312/1/4 316/1/4
f 317/1/4 318/1/4 321/1/4
f 318/3/4 319/3/4 322/3/4
f 321/1/4 318/1/4 322/1/4
f 319/1/4 320/1/4 323/1/4
f 322/3/4 319/3/4 323/3/4
f 323/1/4 320/1/4 324/1/4
f 325/1/4 326/1/4 329/1/4
f 326/3/4 327/3/4 330/3/4
f 329/1/4 326/1/4 330/1/4
f 327/1/4 328/1/4 331/1/4
f 330/3/4 327/3/4 331/3/4
f 331/1/4 328/1/4 332/1/4
f 336/1/5 334/1/5 333/1/5
f 337/1/5 334/1/5 336/1/5
f 340/1/5 336/1/5 335/1/5
f 340/1/5 338/1/5 337/1/5
f 340/1/5 337/1/5 336/1/5
f 341/1/5 338/1/5 340/1/5
f 343/1/5 340/1/5 339/1/5
f 343/1/5 342/1/5 341/1/5
f 343/1/5 341/1/5 340/1/5
f 344/1/5 342/1/5 343/1/5
f 345/1/5 342/1/5 344/1/5
f 346/1/5 342/1/5 345/1/5
f 347/1/5 345/1/5 344/1/5
f 348/1/5 345/1/5 347/1/5
f 349/1/5 345/1/5 348/1/5
f 350/1/5 345/1/5 349/1/5
f 351/1/5 349/1/5 348/1/5
f 352/1/5 349/1/5 351/1/5
f 356/1/5 354/1/5 353/1/5
f 357/1/5 354/1/5 356/1/5
f 359/1/5 356/1/5 355/1/5
f 359/1/5 358/1/5 357/1/5
f 359/1/5 357/1/5 356/1/5
f 360/1/5 358/1/5 359/1/5
f 361/1/5 358/1/5 360/1/5
f 362/1/5 358/1/5 361/1/5
f 363/1/5 361/1/5 360/1/5
f 364/1/5 361/1/5 363/1/5
f 365/1/6 366/1/6 368/1/6
f 368/1/6 366/1/6 369/1/6
f 367/1/6 368/1/6 371/1/6
f 369/1/6 370/1/6 371/1/6
f 368/1/6 369/1/6 371/1/6
f 371/1/6 370/1/6 372/1/6
f 372/1/6 370/1/6 373/1/6
f 373/1/6 370/1/6 374/1/6
f 372/1/6 373/1/6 375/1/6
f 375/1/6 373/1/6 376/1/6
f 377/1/6 378/1/6 380/1/6
f 380/1/6 378/1/6 381/1/6
f 379/1/6 380/1/6 384/1/6
f 381/1/6 382/1/6 384/1/6
f 380/1/6 381/1/6 384/1/6
f 384/1/6 382/1/6 385/1/6
f 383/1/6 384/1/6 387/1/6
f 385/1/6 386/1/6 387/1/6
f 384/1/6 385/1/6 387/1/6
f 387/1/6 386/1/6 388/1/6
f 388/1/6 386/1/6 389/1/6
f 389/1/6 386/1/6 390/1/6
f 388/1/6 389/1/6 391/1/6
f 391/1/6 389/1/6 392/1/6
f 392/1/6 389/1/6 393/1/6
f 393/1/6 389/1/6 394/1/6
f 392/1/6 393/1/6 395/1/6
f 395/1/6 393/1/6 396/1/6
