# MagicaVoxel @ Ephtracy

# group
o 

# material
mtllib Glue(v1.2.0).mtl
usemtl palette

# normals
vn -1 0 0
vn 1 0 0
vn 0 0 1
vn 0 0 -1
vn 0 -1 0
vn 0 1 0

# texcoords
vt 0.0175781 0.5
vt 0.0566406 0.5
vt 0.474609 0.5
vt 0.994141 0.5

# verts
v -0.5 0 0.3
v -0.5 0 -0.3
v -0.5 0.9 0.3
v -0.5 0.9 -0.3
v -0.5 3.6 0.3
v -0.5 3.6 -0.3
v -0.5 4.1 0.3
v -0.5 4.1 -0.3
v -0.4 0 0.4
v -0.4 0 0.3
v -0.4 0 -0.3
v -0.4 0 -0.4
v -0.4 0.9 0.4
v -0.4 0.9 0.3
v -0.4 0.9 -0.3
v -0.4 0.9 -0.4
v -0.4 3.6 0.4
v -0.4 3.6 0.3
v -0.4 3.6 -0.3
v -0.4 3.6 -0.4
v -0.4 4.1 0.4
v -0.4 4.1 0.3
v -0.4 4.1 -0.3
v -0.4 4.1 -0.4
v -0.3 0 0.5
v -0.3 0 0.4
v -0.3 0 -0.4
v -0.3 0 -0.5
v -0.3 0.9 0.5
v -0.3 0.9 0.4
v -0.3 0.9 -0.4
v -0.3 0.9 -0.5
v -0.3 3.6 0.5
v -0.3 3.6 0.4
v -0.3 3.6 -0.4
v -0.3 3.6 -0.5
v -0.3 4.1 0.5
v -0.3 4.1 0.4
v -0.3 4.1 -0.4
v -0.3 4.1 -0.5
v 0.3 0.1 0.4
v 0.3 0.1 0.3
v 0.3 0.1 -0.3
v 0.3 0.1 -0.4
v 0.3 0.9 0.4
v 0.3 0.9 0.3
v 0.3 0.9 -0.3
v 0.3 0.9 -0.4
v 0.3 3.6 0.4
v 0.3 3.6 0.3
v 0.3 3.6 -0.3
v 0.3 3.6 -0.4
v 0.3 4 0.4
v 0.3 4 0.3
v 0.3 4 -0.3
v 0.3 4 -0.4
v 0.4 0.1 0.3
v 0.4 0.1 -0.3
v 0.4 0.9 0.3
v 0.4 0.9 -0.3
v 0.4 3.6 0.3
v 0.4 3.6 -0.3
v 0.4 4 0.3
v 0.4 4 -0.3
v -0.4 0.1 0.3
v -0.4 0.1 -0.3
v -0.4 0.9 0.3
v -0.4 0.9 -0.3
v -0.4 3.6 0.3
v -0.4 3.6 -0.3
v -0.4 4 0.3
v -0.4 4 -0.3
v -0.3 0.1 0.4
v -0.3 0.1 0.3
v -0.3 0.1 -0.3
v -0.3 0.1 -0.4
v -0.3 0.9 0.4
v -0.3 0.9 0.3
v -0.3 0.9 -0.3
v -0.3 0.9 -0.4
v -0.3 3.6 0.4
v -0.3 3.6 0.3
v -0.3 3.6 -0.3
v -0.3 3.6 -0.4
v -0.3 4 0.4
v -0.3 4 0.3
v -0.3 4 -0.3
v -0.3 4 -0.4
v 0.3 0 0.5
v 0.3 0 0.4
v 0.3 0 -0.4
v 0.3 0 -0.5
v 0.3 0.9 0.5
v 0.3 0.9 0.4
v 0.3 0.9 -0.4
v 0.3 0.9 -0.5
v 0.3 3.6 0.5
v 0.3 3.6 0.4
v 0.3 3.6 -0.4
v 0.3 3.6 -0.5
v 0.3 4.1 0.5
v 0.3 4.1 0.4
v 0.3 4.1 -0.4
v 0.3 4.1 -0.5
v 0.4 0 0.4
v 0.4 0 0.3
v 0.4 0 -0.3
v 0.4 0 -0.4
v 0.4 0.9 0.4
v 0.4 0.9 0.3
v 0.4 0.9 -0.3
v 0.4 0.9 -0.4
v 0.4 3.6 0.4
v 0.4 3.6 0.3
v 0.4 3.6 -0.3
v 0.4 3.6 -0.4
v 0.4 4.1 0.4
v 0.4 4.1 0.3
v 0.4 4.1 -0.3
v 0.4 4.1 -0.4
v 0.5 0 0.3
v 0.5 0 -0.3
v 0.5 0.9 0.3
v 0.5 0.9 -0.3
v 0.5 3.6 0.3
v 0.5 3.6 -0.3
v 0.5 4.1 0.3
v 0.5 4.1 -0.3
v -0.3 0 0.5
v -0.3 0.9 0.5
v -0.3 3.6 0.5
v -0.3 4.1 0.5
v -0.2 1.1 0.5
v -0.2 1.6 0.5
v -0.2 1.7 0.5
v -0.2 2.2 0.5
v -0.2 2.3 0.5
v -0.2 2.8 0.5
v -0.2 2.9 0.5
v -0.2 3.4 0.5
v -0.1 1.2 0.5
v -0.1 1.3 0.5
v -0.1 1.4 0.5
v -0.1 1.5 0.5
v -0.1 1.8 0.5
v -0.1 2.2 0.5
v -0.1 2.4 0.5
v -0.1 2.8 0.5
v -0.1 3 0.5
v -0.1 3.3 0.5
v 0 3.1 0.5
v 0 3.2 0.5
v 0.1 1.8 0.5
v 0.1 2.2 0.5
v 0.1 3 0.5
v 0.1 3.1 0.5
v 0.2 1.1 0.5
v 0.2 1.2 0.5
v 0.2 1.3 0.5
v 0.2 1.4 0.5
v 0.2 1.5 0.5
v 0.2 1.6 0.5
v 0.2 1.7 0.5
v 0.2 2.2 0.5
v 0.2 2.3 0.5
v 0.2 2.4 0.5
v 0.2 2.9 0.5
v 0.2 3.2 0.5
v 0.2 3.3 0.5
v 0.2 3.4 0.5
v 0.3 0 0.5
v 0.3 0.9 0.5
v 0.3 3.6 0.5
v 0.3 4.1 0.5
v -0.4 0 0.4
v -0.4 0.9 0.4
v -0.4 3.6 0.4
v -0.4 4.1 0.4
v -0.3 0 0.4
v -0.3 0.9 0.4
v -0.3 3.6 0.4
v -0.3 4.1 0.4
v 0.3 0 0.4
v 0.3 0.9 0.4
v 0.3 3.6 0.4
v 0.3 4.1 0.4
v 0.4 0 0.4
v 0.4 0.9 0.4
v 0.4 3.6 0.4
v 0.4 4.1 0.4
v -0.5 0 0.3
v -0.5 0.9 0.3
v -0.5 3.6 0.3
v -0.5 4.1 0.3
v -0.4 0 0.3
v -0.4 0.9 0.3
v -0.4 3.6 0.3
v -0.4 4.1 0.3
v 0.4 0 0.3
v 0.4 0.9 0.3
v 0.4 3.6 0.3
v 0.4 4.1 0.3
v 0.5 0 0.3
v 0.5 0.9 0.3
v 0.5 3.6 0.3
v 0.5 4.1 0.3
v -0.4 0.1 -0.3
v -0.4 0.9 -0.3
v -0.4 3.6 -0.3
v -0.4 4 -0.3
v -0.3 0.1 -0.3
v -0.3 0.9 -0.3
v -0.3 3.6 -0.3
v -0.3 4 -0.3
v 0.3 0.1 -0.3
v 0.3 0.9 -0.3
v 0.3 3.6 -0.3
v 0.3 4 -0.3
v 0.4 0.1 -0.3
v 0.4 0.9 -0.3
v 0.4 3.6 -0.3
v 0.4 4 -0.3
v -0.3 0.1 -0.4
v -0.3 0.9 -0.4
v -0.3 3.6 -0.4
v -0.3 4 -0.4
v 0.3 0.1 -0.4
v 0.3 0.9 -0.4
v 0.3 3.6 -0.4
v 0.3 4 -0.4
v -0.3 0.1 0.4
v -0.3 0.9 0.4
v -0.3 3.6 0.4
v -0.3 4 0.4
v -0.2 1.1 0.4
v -0.2 1.6 0.4
v -0.2 1.7 0.4
v -0.2 2.2 0.4
v -0.2 2.3 0.4
v -0.2 2.8 0.4
v -0.2 2.9 0.4
v -0.2 3.4 0.4
v -0.1 1.2 0.4
v -0.1 1.3 0.4
v -0.1 1.4 0.4
v -0.1 1.5 0.4
v -0.1 1.8 0.4
v -0.1 2.2 0.4
v -0.1 2.4 0.4
v -0.1 2.8 0.4
v -0.1 3 0.4
v -0.1 3.3 0.4
v 0 3.1 0.4
v 0 3.2 0.4
v 0.1 1.8 0.4
v 0.1 2.2 0.4
v 0.1 3 0.4
v 0.1 3.1 0.4
v 0.2 1.1 0.4
v 0.2 1.2 0.4
v 0.2 1.3 0.4
v 0.2 1.4 0.4
v 0.2 1.5 0.4
v 0.2 1.6 0.4
v 0.2 1.7 0.4
v 0.2 2.2 0.4
v 0.2 2.3 0.4
v 0.2 2.4 0.4
v 0.2 2.9 0.4
v 0.2 3.2 0.4
v 0.2 3.3 0.4
v 0.2 3.4 0.4
v 0.3 0.1 0.4
v 0.3 0.9 0.4
v 0.3 3.6 0.4
v 0.3 4 0.4
v -0.4 0.1 0.3
v -0.4 0.9 0.3
v -0.4 3.6 0.3
v -0.4 4 0.3
v -0.3 0.1 0.3
v -0.3 0.9 0.3
v -0.3 3.6 0.3
v -0.3 4 0.3
v 0.3 0.1 0.3
v 0.3 0.9 0.3
v 0.3 3.6 0.3
v 0.3 4 0.3
v 0.4 0.1 0.3
v 0.4 0.9 0.3
v 0.4 3.6 0.3
v 0.4 4 0.3
v -0.5 0 -0.3
v -0.5 0.9 -0.3
v -0.5 3.6 -0.3
v -0.5 4.1 -0.3
v -0.4 0 -0.3
v -0.4 0.9 -0.3
v -0.4 3.6 -0.3
v -0.4 4.1 -0.3
v 0.4 0 -0.3
v 0.4 0.9 -0.3
v 0.4 3.6 -0.3
v 0.4 4.1 -0.3
v 0.5 0 -0.3
v 0.5 0.9 -0.3
v 0.5 3.6 -0.3
v 0.5 4.1 -0.3
v -0.4 0 -0.4
v -0.4 0.9 -0.4
v -0.4 3.6 -0.4
v -0.4 4.1 -0.4
v -0.3 0 -0.4
v -0.3 0.9 -0.4
v -0.3 3.6 -0.4
v -0.3 4.1 -0.4
v 0.3 0 -0.4
v 0.3 0.9 -0.4
v 0.3 3.6 -0.4
v 0.3 4.1 -0.4
v 0.4 0 -0.4
v 0.4 0.9 -0.4
v 0.4 3.6 -0.4
v 0.4 4.1 -0.4
v -0.3 0 -0.5
v -0.3 0.9 -0.5
v -0.3 3.6 -0.5
v -0.3 4.1 -0.5
v 0.3 0 -0.5
v 0.3 0.9 -0.5
v 0.3 3.6 -0.5
v 0.3 4.1 -0.5
v -0.3 0 0.5
v 0.3 0 0.5
v -0.4 0 0.4
v -0.3 0 0.4
v 0.3 0 0.4
v 0.4 0 0.4
v -0.5 0 0.3
v -0.4 0 0.3
v -0.3 0 0.3
v 0.3 0 0.3
v 0.4 0 0.3
v 0.5 0 0.3
v -0.5 0 -0.3
v -0.4 0 -0.3
v -0.3 0 -0.3
v 0.3 0 -0.3
v 0.4 0 -0.3
v 0.5 0 -0.3
v -0.4 0 -0.4
v -0.3 0 -0.4
v 0.3 0 -0.4
v 0.4 0 -0.4
v -0.3 0 -0.5
v 0.3 0 -0.5
v -0.3 4 0.4
v 0.3 4 0.4
v -0.4 4 0.3
v -0.3 4 0.3
v 0.3 4 0.3
v 0.4 4 0.3
v -0.4 4 -0.3
v -0.3 4 -0.3
v 0.3 4 -0.3
v 0.4 4 -0.3
v -0.3 4 -0.4
v 0.3 4 -0.4
v -0.3 0.1 0.4
v 0.3 0.1 0.4
v -0.4 0.1 0.3
v -0.3 0.1 0.3
v 0.3 0.1 0.3
v 0.4 0.1 0.3
v -0.4 0.1 -0.3
v -0.3 0.1 -0.3
v 0.3 0.1 -0.3
v 0.4 0.1 -0.3
v -0.3 0.1 -0.4
v 0.3 0.1 -0.4
v -0.3 4.1 0.5
v 0.3 4.1 0.5
v -0.4 4.1 0.4
v -0.3 4.1 0.4
v 0.3 4.1 0.4
v 0.4 4.1 0.4
v -0.5 4.1 0.3
v -0.4 4.1 0.3
v 0.4 4.1 0.3
v 0.5 4.1 0.3
v -0.5 4.1 -0.3
v -0.4 4.1 -0.3
v 0.4 4.1 -0.3
v 0.5 4.1 -0.3
v -0.4 4.1 -0.4
v -0.3 4.1 -0.4
v 0.3 4.1 -0.4
v 0.4 4.1 -0.4
v -0.3 4.1 -0.5
v 0.3 4.1 -0.5

# faces
f 3/3/1 2/3/1 1/3/1
f 4/3/1 2/3/1 3/3/1
f 5/2/1 4/2/1 3/2/1
f 6/2/1 4/2/1 5/2/1
f 7/3/1 6/3/1 5/3/1
f 8/3/1 6/3/1 7/3/1
f 13/3/1 10/3/1 9/3/1
f 14/3/1 10/3/1 13/3/1
f 15/3/1 12/3/1 11/3/1
f 16/3/1 12/3/1 15/3/1
f 17/2/1 14/2/1 13/2/1
f 18/2/1 14/2/1 17/2/1
f 19/2/1 16/2/1 15/2/1
f 20/2/1 16/2/1 19/2/1
f 21/3/1 18/3/1 17/3/1
f 22/3/1 18/3/1 21/3/1
f 23/3/1 20/3/1 19/3/1
f 24/3/1 20/3/1 23/3/1
f 29/3/1 26/3/1 25/3/1
f 30/3/1 26/3/1 29/3/1
f 31/3/1 28/3/1 27/3/1
f 32/3/1 28/3/1 31/3/1
f 33/2/1 30/2/1 29/2/1
f 34/2/1 30/2/1 33/2/1
f 35/2/1 32/2/1 31/2/1
f 36/2/1 32/2/1 35/2/1
f 37/3/1 34/3/1 33/3/1
f 38/3/1 34/3/1 37/3/1
f 39/3/1 36/3/1 35/3/1
f 40/3/1 36/3/1 39/3/1
f 45/3/1 42/3/1 41/3/1
f 46/3/1 42/3/1 45/3/1
f 47/3/1 44/3/1 43/3/1
f 48/3/1 44/3/1 47/3/1
f 49/2/1 46/2/1 45/2/1
f 50/2/1 46/2/1 49/2/1
f 51/2/1 48/2/1 47/2/1
f 52/2/1 48/2/1 51/2/1
f 53/3/1 50/3/1 49/3/1
f 54/3/1 50/3/1 53/3/1
f 55/3/1 52/3/1 51/3/1
f 56/3/1 52/3/1 55/3/1
f 59/3/1 58/3/1 57/3/1
f 60/3/1 58/3/1 59/3/1
f 61/2/1 60/2/1 59/2/1
f 62/2/1 60/2/1 61/2/1
f 63/3/1 62/3/1 61/3/1
f 64/3/1 62/3/1 63/3/1
f 65/3/2 66/3/2 67/3/2
f 67/3/2 66/3/2 68/3/2
f 67/2/2 68/2/2 69/2/2
f 69/2/2 68/2/2 70/2/2
f 69/3/2 70/3/2 71/3/2
f 71/3/2 70/3/2 72/3/2
f 73/3/2 74/3/2 77/3/2
f 77/3/2 74/3/2 78/3/2
f 75/3/2 76/3/2 79/3/2
f 79/3/2 76/3/2 80/3/2
f 77/2/2 78/2/2 81/2/2
f 81/2/2 78/2/2 82/2/2
f 79/2/2 80/2/2 83/2/2
f 83/2/2 80/2/2 84/2/2
f 81/3/2 82/3/2 85/3/2
f 85/3/2 82/3/2 86/3/2
f 83/3/2 84/3/2 87/3/2
f 87/3/2 84/3/2 88/3/2
f 89/3/2 90/3/2 93/3/2
f 93/3/2 90/3/2 94/3/2
f 91/3/2 92/3/2 95/3/2
f 95/3/2 92/3/2 96/3/2
f 93/2/2 94/2/2 97/2/2
f 97/2/2 94/2/2 98/2/2
f 95/2/2 96/2/2 99/2/2
f 99/2/2 96/2/2 100/2/2
f 97/3/2 98/3/2 101/3/2
f 101/3/2 98/3/2 102/3/2
f 99/3/2 100/3/2 103/3/2
f 103/3/2 100/3/2 104/3/2
f 105/3/2 106/3/2 109/3/2
f 109/3/2 106/3/2 110/3/2
f 107/3/2 108/3/2 111/3/2
f 111/3/2 108/3/2 112/3/2
f 109/2/2 110/2/2 113/2/2
f 113/2/2 110/2/2 114/2/2
f 111/2/2 112/2/2 115/2/2
f 115/2/2 112/2/2 116/2/2
f 113/3/2 114/3/2 117/3/2
f 117/3/2 114/3/2 118/3/2
f 115/3/2 116/3/2 119/3/2
f 119/3/2 116/3/2 120/3/2
f 121/3/2 122/3/2 123/3/2
f 123/3/2 122/3/2 124/3/2
f 123/2/2 124/2/2 125/2/2
f 125/2/2 124/2/2 126/2/2
f 125/3/2 126/3/2 127/3/2
f 127/3/2 126/3/2 128/3/2
f 133/2/3 131/2/3 130/2/3
f 134/2/3 131/2/3 133/2/3
f 135/2/3 131/2/3 134/2/3
f 136/2/3 131/2/3 135/2/3
f 137/2/3 131/2/3 136/2/3
f 138/2/3 131/2/3 137/2/3
f 139/2/3 131/2/3 138/2/3
f 140/2/3 131/2/3 139/2/3
f 141/4/3 134/4/3 133/4/3
f 142/4/3 134/4/3 141/4/3
f 143/4/3 134/4/3 142/4/3
f 144/4/3 134/4/3 143/4/3
f 145/4/3 136/4/3 135/4/3
f 146/2/3 137/2/3 136/2/3
f 146/4/3 136/4/3 145/4/3
f 147/4/3 138/4/3 137/4/3
f 148/2/3 139/2/3 138/2/3
f 148/4/3 138/4/3 147/4/3
f 149/4/3 140/4/3 139/4/3
f 150/4/3 140/4/3 149/4/3
f 151/2/3 150/2/3 149/2/3
f 152/2/3 150/2/3 151/2/3
f 153/4/3 145/4/3 135/4/3
f 153/2/3 146/2/3 145/2/3
f 154/2/3 137/2/3 146/2/3
f 154/2/3 146/2/3 153/2/3
f 155/4/3 149/4/3 139/4/3
f 155/2/3 151/2/3 149/2/3
f 156/4/3 152/4/3 151/4/3
f 156/2/3 151/2/3 155/2/3
f 157/2/3 133/2/3 130/2/3
f 157/4/3 141/4/3 133/4/3
f 158/2/3 142/2/3 141/2/3
f 158/4/3 141/4/3 157/4/3
f 159/4/3 143/4/3 142/4/3
f 159/2/3 142/2/3 158/2/3
f 160/2/3 144/2/3 143/2/3
f 160/4/3 143/4/3 159/4/3
f 161/4/3 134/4/3 144/4/3
f 161/2/3 144/2/3 160/2/3
f 162/2/3 135/2/3 134/2/3
f 162/4/3 134/4/3 161/4/3
f 163/4/3 153/4/3 135/4/3
f 163/2/3 135/2/3 162/2/3
f 163/4/3 154/4/3 153/4/3
f 164/2/3 137/2/3 154/2/3
f 164/4/3 154/4/3 163/4/3
f 165/4/3 147/4/3 137/4/3
f 165/2/3 137/2/3 164/2/3
f 166/2/3 148/2/3 147/2/3
f 166/4/3 147/4/3 165/4/3
f 167/2/3 139/2/3 148/2/3
f 167/2/3 148/2/3 166/2/3
f 167/4/3 156/4/3 155/4/3
f 167/4/3 155/4/3 139/4/3
f 168/4/3 152/4/3 156/4/3
f 168/4/3 156/4/3 167/4/3
f 168/2/3 150/2/3 152/2/3
f 169/4/3 140/4/3 150/4/3
f 169/2/3 150/2/3 168/2/3
f 170/2/3 131/2/3 140/2/3
f 170/4/3 140/4/3 169/4/3
f 171/3/3 130/3/3 129/3/3
f 172/2/3 167/2/3 166/2/3
f 172/3/3 130/3/3 171/3/3
f 172/2/3 169/2/3 168/2/3
f 172/2/3 170/2/3 169/2/3
f 172/2/3 163/2/3 162/2/3
f 172/2/3 159/2/3 158/2/3
f 172/2/3 158/2/3 157/2/3
f 172/2/3 157/2/3 130/2/3
f 172/2/3 168/2/3 167/2/3
f 172/2/3 166/2/3 165/2/3
f 172/2/3 164/2/3 163/2/3
f 172/2/3 162/2/3 161/2/3
f 172/2/3 165/2/3 164/2/3
f 172/2/3 160/2/3 159/2/3
f 172/2/3 161/2/3 160/2/3
f 173/2/3 131/2/3 170/2/3
f 173/2/3 170/2/3 172/2/3
f 173/3/3 132/3/3 131/3/3
f 174/3/3 132/3/3 173/3/3
f 179/3/3 176/3/3 175/3/3
f 180/2/3 177/2/3 176/2/3
f 180/3/3 176/3/3 179/3/3
f 181/3/3 178/3/3 177/3/3
f 181/2/3 177/2/3 180/2/3
f 182/3/3 178/3/3 181/3/3
f 187/3/3 184/3/3 183/3/3
f 188/2/3 185/2/3 184/2/3
f 188/3/3 184/3/3 187/3/3
f 189/3/3 186/3/3 185/3/3
f 189/2/3 185/2/3 188/2/3
f 190/3/3 186/3/3 189/3/3
f 195/3/3 192/3/3 191/3/3
f 196/2/3 193/2/3 192/2/3
f 196/3/3 192/3/3 195/3/3
f 197/3/3 194/3/3 193/3/3
f 197/2/3 193/2/3 196/2/3
f 198/3/3 194/3/3 197/3/3
f 203/3/3 200/3/3 199/3/3
f 204/2/3 201/2/3 200/2/3
f 204/3/3 200/3/3 203/3/3
f 205/3/3 202/3/3 201/3/3
f 205/2/3 201/2/3 204/2/3
f 206/3/3 202/3/3 205/3/3
f 211/3/3 208/3/3 207/3/3
f 212/2/3 209/2/3 208/2/3
f 212/3/3 208/3/3 211/3/3
f 213/3/3 210/3/3 209/3/3
f 213/2/3 209/2/3 212/2/3
f 214/3/3 210/3/3 213/3/3
f 219/3/3 216/3/3 215/3/3
f 220/2/3 217/2/3 216/2/3
f 220/3/3 216/3/3 219/3/3
f 221/3/3 218/3/3 217/3/3
f 221/2/3 217/2/3 220/2/3
f 222/3/3 218/3/3 221/3/3
f 227/3/3 224/3/3 223/3/3
f 228/2/3 225/2/3 224/2/3
f 228/3/3 224/3/3 227/3/3
f 229/3/3 226/3/3 225/3/3
f 229/2/3 225/2/3 228/2/3
f 230/3/3 226/3/3 229/3/3
f 232/2/4 233/2/4 235/2/4
f 235/2/4 233/2/4 236/2/4
f 236/2/4 233/2/4 237/2/4
f 237/2/4 233/2/4 238/2/4
f 238/2/4 233/2/4 239/2/4
f 239/2/4 233/2/4 240/2/4
f 240/2/4 233/2/4 241/2/4
f 241/2/4 233/2/4 242/2/4
f 235/4/4 236/4/4 243/4/4
f 243/4/4 236/4/4 244/4/4
f 244/4/4 236/4/4 245/4/4
f 245/4/4 236/4/4 246/4/4
f 237/4/4 238/4/4 247/4/4
f 238/2/4 239/2/4 248/2/4
f 247/4/4 238/4/4 248/4/4
f 239/4/4 240/4/4 249/4/4
f 240/2/4 241/2/4 250/2/4
f 249/4/4 240/4/4 250/4/4
f 241/4/4 242/4/4 251/4/4
f 251/4/4 242/4/4 252/4/4
f 251/2/4 252/2/4 253/2/4
f 253/2/4 252/2/4 254/2/4
f 237/4/4 247/4/4 255/4/4
f 247/2/4 248/2/4 255/2/4
f 248/2/4 239/2/4 256/2/4
f 255/2/4 248/2/4 256/2/4
f 241/4/4 251/4/4 257/4/4
f 251/2/4 253/2/4 257/2/4
f 253/4/4 254/4/4 258/4/4
f 257/2/4 253/2/4 258/2/4
f 232/2/4 235/2/4 259/2/4
f 235/4/4 243/4/4 259/4/4
f 243/2/4 244/2/4 260/2/4
f 259/4/4 243/4/4 260/4/4
f 244/4/4 245/4/4 261/4/4
f 260/2/4 244/2/4 261/2/4
f 245/2/4 246/2/4 262/2/4
f 261/4/4 245/4/4 262/4/4
f 246/4/4 236/4/4 263/4/4
f 262/2/4 246/2/4 263/2/4
f 236/2/4 237/2/4 264/2/4
f 263/4/4 236/4/4 264/4/4
f 237/4/4 255/4/4 265/4/4
f 264/2/4 237/2/4 265/2/4
f 255/4/4 256/4/4 265/4/4
f 256/2/4 239/2/4 266/2/4
f 265/4/4 256/4/4 266/4/4
f 239/4/4 249/4/4 267/4/4
f 266/2/4 239/2/4 267/2/4
f 249/2/4 250/2/4 268/2/4
f 267/4/4 249/4/4 268/4/4
f 250/2/4 241/2/4 269/2/4
f 268/2/4 250/2/4 269/2/4
f 257/4/4 258/4/4 269/4/4
f 241/4/4 257/4/4 269/4/4
f 258/4/4 254/4/4 270/4/4
f 269/4/4 258/4/4 270/4/4
f 254/2/4 252/2/4 270/2/4
f 252/4/4 242/4/4 271/4/4
f 270/2/4 252/2/4 271/2/4
f 242/2/4 233/2/4 272/2/4
f 271/4/4 242/4/4 272/4/4
f 231/3/4 232/3/4 273/3/4
f 268/2/4 269/2/4 274/2/4
f 273/3/4 232/3/4 274/3/4
f 270/2/4 271/2/4 274/2/4
f 271/2/4 272/2/4 274/2/4
f 264/2/4 265/2/4 274/2/4
f 260/2/4 261/2/4 274/2/4
f 259/2/4 260/2/4 274/2/4
f 232/2/4 259/2/4 274/2/4
f 269/2/4 270/2/4 274/2/4
f 267/2/4 268/2/4 274/2/4
f 265/2/4 266/2/4 274/2/4
f 263/2/4 264/2/4 274/2/4
f 266/2/4 267/2/4 274/2/4
f 261/2/4 262/2/4 274/2/4
f 262/2/4 263/2/4 274/2/4
f 272/2/4 233/2/4 275/2/4
f 274/2/4 272/2/4 275/2/4
f 233/3/4 234/3/4 275/3/4
f 275/3/4 234/3/4 276/3/4
f 277/3/4 278/3/4 281/3/4
f 278/2/4 279/2/4 282/2/4
f 281/3/4 278/3/4 282/3/4
f 279/3/4 280/3/4 283/3/4
f 282/2/4 279/2/4 283/2/4
f 283/3/4 280/3/4 284/3/4
f 285/3/4 286/3/4 289/3/4
f 286/2/4 287/2/4 290/2/4
f 289/3/4 286/3/4 290/3/4
f 287/3/4 288/3/4 291/3/4
f 290/2/4 287/2/4 291/2/4
f 291/3/4 288/3/4 292/3/4
f 293/3/4 294/3/4 297/3/4
f 294/2/4 295/2/4 298/2/4
f 297/3/4 294/3/4 298/3/4
f 295/3/4 296/3/4 299/3/4
f 298/2/4 295/2/4 299/2/4
f 299/3/4 296/3/4 300/3/4
f 301/3/4 302/3/4 305/3/4
f 302/2/4 303/2/4 306/2/4
f 305/3/4 302/3/4 306/3/4
f 303/3/4 304/3/4 307/3/4
f 306/2/4 303/2/4 307/2/4
f 307/3/4 304/3/4 308/3/4
f 309/3/4 310/3/4 313/3/4
f 310/2/4 311/2/4 314/2/4
f 313/3/4 310/3/4 314/3/4
f 311/3/4 312/3/4 315/3/4
f 314/2/4 311/2/4 315/2/4
f 315/3/4 312/3/4 316/3/4
f 317/3/4 318/3/4 321/3/4
f 318/2/4 319/2/4 322/2/4
f 321/3/4 318/3/4 322/3/4
f 319/3/4 320/3/4 323/3/4
f 322/2/4 319/2/4 323/2/4
f 323/3/4 320/3/4 324/3/4
f 325/3/4 326/3/4 329/3/4
f 326/2/4 327/2/4 330/2/4
f 329/3/4 326/3/4 330/3/4
f 327/3/4 328/3/4 331/3/4
f 330/2/4 327/2/4 331/2/4
f 331/3/4 328/3/4 332/3/4
f 336/3/5 334/3/5 333/3/5
f 337/3/5 334/3/5 336/3/5
f 340/3/5 336/3/5 335/3/5
f 341/1/5 337/1/5 336/1/5
f 341/3/5 336/3/5 340/3/5
f 342/3/5 338/3/5 337/3/5
f 342/1/5 337/1/5 341/1/5
f 343/3/5 338/3/5 342/3/5
f 345/3/5 340/3/5 339/3/5
f 346/1/5 341/1/5 340/1/5
f 346/3/5 340/3/5 345/3/5
f 346/1/5 342/1/5 341/1/5
f 346/1/5 343/1/5 342/1/5
f 347/1/5 343/1/5 346/1/5
f 348/1/5 343/1/5 347/1/5
f 349/3/5 344/3/5 343/3/5
f 349/1/5 343/1/5 348/1/5
f 350/3/5 344/3/5 349/3/5
f 351/3/5 347/3/5 346/3/5
f 352/1/5 348/1/5 347/1/5
f 352/3/5 347/3/5 351/3/5
f 353/3/5 349/3/5 348/3/5
f 353/1/5 348/1/5 352/1/5
f 354/3/5 349/3/5 353/3/5
f 355/3/5 353/3/5 352/3/5
f 356/3/5 353/3/5 355/3/5
f 360/3/5 358/3/5 357/3/5
f 361/3/5 358/3/5 360/3/5
f 363/3/5 360/3/5 359/3/5
f 363/3/5 362/3/5 361/3/5
f 363/3/5 361/3/5 360/3/5
f 364/3/5 362/3/5 363/3/5
f 365/3/5 362/3/5 364/3/5
f 366/3/5 362/3/5 365/3/5
f 367/3/5 365/3/5 364/3/5
f 368/3/5 365/3/5 367/3/5
f 369/1/6 370/1/6 372/1/6
f 372/1/6 370/1/6 373/1/6
f 371/1/6 372/1/6 375/1/6
f 373/1/6 374/1/6 375/1/6
f 372/1/6 373/1/6 375/1/6
f 375/1/6 374/1/6 376/1/6
f 376/1/6 374/1/6 377/1/6
f 377/1/6 374/1/6 378/1/6
f 376/1/6 377/1/6 379/1/6
f 379/1/6 377/1/6 380/1/6
f 381/3/6 382/3/6 384/3/6
f 384/3/6 382/3/6 385/3/6
f 383/3/6 384/3/6 388/3/6
f 385/3/6 386/3/6 388/3/6
f 384/3/6 385/3/6 388/3/6
f 388/3/6 386/3/6 389/3/6
f 387/3/6 388/3/6 391/3/6
f 389/3/6 390/3/6 391/3/6
f 388/3/6 389/3/6 391/3/6
f 391/3/6 390/3/6 392/3/6
f 392/3/6 390/3/6 393/3/6
f 393/3/6 390/3/6 394/3/6
f 392/3/6 393/3/6 395/3/6
f 395/3/6 393/3/6 396/3/6
f 396/3/6 393/3/6 397/3/6
f 397/3/6 393/3/6 398/3/6
f 396/3/6 397/3/6 399/3/6
f 399/3/6 397/3/6 400/3/6
