# MagicaVoxel @ Ephtracy

# group
o 

# material
mtllib battery_2_1.2b.mtl
usemtl palette

# normals
vn -1 0 0
vn 1 0 0
vn 0 0 1
vn 0 0 -1
vn 0 -1 0
vn 0 1 0

# texcoords
vt 0.931641 0.5
vt 0.962891 0.5
vt 0.966797 0.5
vt 0.990234 0.5

# verts
v -0.5 -0.1 0.3
v -0.5 -0.1 -0.3
v -0.5 2.8 0.3
v -0.5 2.8 -0.3
v -0.4 -0.1 0.4
v -0.4 -0.1 0.3
v -0.4 -0.1 -0.3
v -0.4 -0.1 -0.4
v -0.4 2.8 0.4
v -0.4 2.8 0.3
v -0.4 2.8 -0.3
v -0.4 2.8 -0.4
v -0.3 -0.1 0.5
v -0.3 -0.1 0.4
v -0.3 -0.1 -0.4
v -0.3 -0.1 -0.5
v -0.3 2.8 0.5
v -0.3 2.8 0.4
v -0.3 2.8 0.2
v -0.3 2.8 -0.2
v -0.3 2.8 -0.4
v -0.3 2.8 -0.5
v -0.3 2.9 0.2
v -0.3 2.9 -0.2
v -0.2 2.8 0.3
v -0.2 2.8 0.2
v -0.2 2.8 -0.2
v -0.2 2.8 -0.3
v -0.2 2.9 0.3
v -0.2 2.9 0.2
v -0.2 2.9 -0.2
v -0.2 2.9 -0.3
v -0.2 3 0.2
v -0.2 3 -0.2
v 0.2 2.6 0.3
v 0.2 2.6 0.2
v 0.2 2.6 -0.2
v 0.2 2.6 -0.3
v 0.2 2.8 0.3
v 0.2 2.8 0.2
v 0.2 2.8 -0.2
v 0.2 2.8 -0.3
v 0.2 2.9 0.2
v 0.2 2.9 -0.2
v 0.3 0 0.4
v 0.3 0 0.3
v 0.3 0 -0.3
v 0.3 0 -0.4
v 0.3 2.6 0.4
v 0.3 2.6 0.3
v 0.3 2.6 0.2
v 0.3 2.6 -0.2
v 0.3 2.6 -0.3
v 0.3 2.6 -0.4
v 0.3 2.8 0.2
v 0.3 2.8 -0.2
v 0.4 0 0.3
v 0.4 0 -0.3
v 0.4 2.6 0.3
v 0.4 2.6 -0.3
v -0.4 0 0.3
v -0.4 0 -0.3
v -0.4 2.6 0.3
v -0.4 2.6 -0.3
v -0.3 0 0.4
v -0.3 0 0.3
v -0.3 0 -0.3
v -0.3 0 -0.4
v -0.3 2.6 0.4
v -0.3 2.6 0.3
v -0.3 2.6 0.2
v -0.3 2.6 -0.2
v -0.3 2.6 -0.3
v -0.3 2.6 -0.4
v -0.3 2.8 0.2
v -0.3 2.8 -0.2
v -0.2 2.6 0.3
v -0.2 2.6 0.2
v -0.2 2.6 -0.2
v -0.2 2.6 -0.3
v -0.2 2.8 0.3
v -0.2 2.8 0.2
v -0.2 2.8 -0.2
v -0.2 2.8 -0.3
v -0.2 2.9 0.2
v -0.2 2.9 -0.2
v 0.2 2.8 0.3
v 0.2 2.8 0.2
v 0.2 2.8 -0.2
v 0.2 2.8 -0.3
v 0.2 2.9 0.3
v 0.2 2.9 0.2
v 0.2 2.9 -0.2
v 0.2 2.9 -0.3
v 0.2 3 0.2
v 0.2 3 -0.2
v 0.3 -0.1 0.5
v 0.3 -0.1 0.4
v 0.3 -0.1 -0.4
v 0.3 -0.1 -0.5
v 0.3 2.8 0.5
v 0.3 2.8 0.4
v 0.3 2.8 0.2
v 0.3 2.8 -0.2
v 0.3 2.8 -0.4
v 0.3 2.8 -0.5
v 0.3 2.9 0.2
v 0.3 2.9 -0.2
v 0.4 -0.1 0.4
v 0.4 -0.1 0.3
v 0.4 -0.1 -0.3
v 0.4 -0.1 -0.4
v 0.4 2.8 0.4
v 0.4 2.8 0.3
v 0.4 2.8 -0.3
v 0.4 2.8 -0.4
v 0.5 -0.1 0.3
v 0.5 -0.1 -0.3
v 0.5 2.8 0.3
v 0.5 2.8 -0.3
v -0.3 -0.1 0.5
v -0.3 2.8 0.5
v -0.2 0.2 0.5
v -0.2 0.3 0.5
v -0.2 2.2 0.5
v -0.2 2.4 0.5
v -0.1 2.1 0.5
v -0.1 2.2 0.5
v -0.1 2.4 0.5
v -0.1 2.5 0.5
v 0.1 2.1 0.5
v 0.1 2.2 0.5
v 0.1 2.4 0.5
v 0.1 2.5 0.5
v 0.2 0.2 0.5
v 0.2 0.3 0.5
v 0.2 2.2 0.5
v 0.2 2.4 0.5
v 0.3 -0.1 0.5
v 0.3 2.8 0.5
v -0.4 -0.1 0.4
v -0.4 2.8 0.4
v -0.3 -0.1 0.4
v -0.3 2.8 0.4
v 0.3 -0.1 0.4
v 0.3 2.8 0.4
v 0.4 -0.1 0.4
v 0.4 2.8 0.4
v -0.5 -0.1 0.3
v -0.5 2.8 0.3
v -0.4 -0.1 0.3
v -0.4 2.8 0.3
v -0.2 2.8 0.3
v -0.2 2.9 0.3
v 0.2 2.8 0.3
v 0.2 2.9 0.3
v 0.4 -0.1 0.3
v 0.4 2.8 0.3
v 0.5 -0.1 0.3
v 0.5 2.8 0.3
v -0.3 2.8 0.2
v -0.3 2.9 0.2
v -0.2 2.8 0.2
v -0.2 2.9 0.2
v -0.2 3 0.2
v 0.2 2.8 0.2
v 0.2 2.9 0.2
v 0.2 3 0.2
v 0.3 2.8 0.2
v 0.3 2.9 0.2
v -0.3 2.6 -0.2
v -0.3 2.8 -0.2
v -0.2 2.6 -0.2
v -0.2 2.8 -0.2
v -0.2 2.9 -0.2
v 0.2 2.6 -0.2
v 0.2 2.8 -0.2
v 0.2 2.9 -0.2
v 0.3 2.6 -0.2
v 0.3 2.8 -0.2
v -0.4 0 -0.3
v -0.4 2.6 -0.3
v -0.3 0 -0.3
v -0.3 2.6 -0.3
v -0.2 2.6 -0.3
v -0.2 2.8 -0.3
v 0.2 2.6 -0.3
v 0.2 2.8 -0.3
v 0.3 0 -0.3
v 0.3 2.6 -0.3
v 0.4 0 -0.3
v 0.4 2.6 -0.3
v -0.3 0 -0.4
v -0.3 2.6 -0.4
v -0.2 0.2 -0.4
v -0.2 0.3 -0.4
v -0.2 2.2 -0.4
v -0.2 2.4 -0.4
v -0.1 2.1 -0.4
v -0.1 2.2 -0.4
v -0.1 2.4 -0.4
v -0.1 2.5 -0.4
v 0.1 2.1 -0.4
v 0.1 2.2 -0.4
v 0.1 2.4 -0.4
v 0.1 2.5 -0.4
v 0.2 0.2 -0.4
v 0.2 0.3 -0.4
v 0.2 2.2 -0.4
v 0.2 2.4 -0.4
v 0.3 0 -0.4
v 0.3 2.6 -0.4
v -0.3 0 0.4
v -0.3 2.6 0.4
v -0.2 0.2 0.4
v -0.2 0.3 0.4
v -0.2 2.2 0.4
v -0.2 2.4 0.4
v -0.1 2.1 0.4
v -0.1 2.2 0.4
v -0.1 2.4 0.4
v -0.1 2.5 0.4
v 0.1 2.1 0.4
v 0.1 2.2 0.4
v 0.1 2.4 0.4
v 0.1 2.5 0.4
v 0.2 0.2 0.4
v 0.2 0.3 0.4
v 0.2 2.2 0.4
v 0.2 2.4 0.4
v 0.3 0 0.4
v 0.3 2.6 0.4
v -0.4 0 0.3
v -0.4 2.6 0.3
v -0.3 0 0.3
v -0.3 2.6 0.3
v -0.2 2.6 0.3
v -0.2 2.8 0.3
v 0.2 2.6 0.3
v 0.2 2.8 0.3
v 0.3 0 0.3
v 0.3 2.6 0.3
v 0.4 0 0.3
v 0.4 2.6 0.3
v -0.3 2.6 0.2
v -0.3 2.8 0.2
v -0.2 2.6 0.2
v -0.2 2.8 0.2
v -0.2 2.9 0.2
v 0.2 2.6 0.2
v 0.2 2.8 0.2
v 0.2 2.9 0.2
v 0.3 2.6 0.2
v 0.3 2.8 0.2
v -0.3 2.8 -0.2
v -0.3 2.9 -0.2
v -0.2 2.8 -0.2
v -0.2 2.9 -0.2
v -0.2 3 -0.2
v 0.2 2.8 -0.2
v 0.2 2.9 -0.2
v 0.2 3 -0.2
v 0.3 2.8 -0.2
v 0.3 2.9 -0.2
v -0.5 -0.1 -0.3
v -0.5 2.8 -0.3
v -0.4 -0.1 -0.3
v -0.4 2.8 -0.3
v -0.2 2.8 -0.3
v -0.2 2.9 -0.3
v 0.2 2.8 -0.3
v 0.2 2.9 -0.3
v 0.4 -0.1 -0.3
v 0.4 2.8 -0.3
v 0.5 -0.1 -0.3
v 0.5 2.8 -0.3
v -0.4 -0.1 -0.4
v -0.4 2.8 -0.4
v -0.3 -0.1 -0.4
v -0.3 2.8 -0.4
v 0.3 -0.1 -0.4
v 0.3 2.8 -0.4
v 0.4 -0.1 -0.4
v 0.4 2.8 -0.4
v -0.3 -0.1 -0.5
v -0.3 2.8 -0.5
v -0.2 0.2 -0.5
v -0.2 0.3 -0.5
v -0.2 2.2 -0.5
v -0.2 2.4 -0.5
v -0.1 2.1 -0.5
v -0.1 2.2 -0.5
v -0.1 2.4 -0.5
v -0.1 2.5 -0.5
v 0.1 2.1 -0.5
v 0.1 2.2 -0.5
v 0.1 2.4 -0.5
v 0.1 2.5 -0.5
v 0.2 0.2 -0.5
v 0.2 0.3 -0.5
v 0.2 2.2 -0.5
v 0.2 2.4 -0.5
v 0.3 -0.1 -0.5
v 0.3 2.8 -0.5
v -0.3 -0.1 0.5
v 0.3 -0.1 0.5
v -0.4 -0.1 0.4
v -0.3 -0.1 0.4
v 0.3 -0.1 0.4
v 0.4 -0.1 0.4
v -0.5 -0.1 0.3
v -0.4 -0.1 0.3
v -0.3 -0.1 0.3
v -0.2 -0.1 0.3
v 0.2 -0.1 0.3
v 0.3 -0.1 0.3
v 0.4 -0.1 0.3
v 0.5 -0.1 0.3
v -0.3 -0.1 0.2
v -0.2 -0.1 0.2
v 0.2 -0.1 0.2
v 0.3 -0.1 0.2
v -0.3 -0.1 -0.2
v -0.2 -0.1 -0.2
v 0.2 -0.1 -0.2
v 0.3 -0.1 -0.2
v -0.5 -0.1 -0.3
v -0.4 -0.1 -0.3
v -0.3 -0.1 -0.3
v -0.2 -0.1 -0.3
v 0.2 -0.1 -0.3
v 0.3 -0.1 -0.3
v 0.4 -0.1 -0.3
v 0.5 -0.1 -0.3
v -0.4 -0.1 -0.4
v -0.3 -0.1 -0.4
v 0.3 -0.1 -0.4
v 0.4 -0.1 -0.4
v -0.3 -0.1 -0.5
v 0.3 -0.1 -0.5
v -0.3 2.6 0.4
v 0.3 2.6 0.4
v -0.4 2.6 0.3
v -0.3 2.6 0.3
v -0.2 2.6 0.3
v 0.2 2.6 0.3
v 0.3 2.6 0.3
v 0.4 2.6 0.3
v -0.3 2.6 0.2
v -0.2 2.6 0.2
v 0.2 2.6 0.2
v 0.3 2.6 0.2
v -0.3 2.6 -0.2
v -0.2 2.6 -0.2
v 0.2 2.6 -0.2
v 0.3 2.6 -0.2
v -0.4 2.6 -0.3
v -0.3 2.6 -0.3
v -0.2 2.6 -0.3
v 0.2 2.6 -0.3
v 0.3 2.6 -0.3
v 0.4 2.6 -0.3
v -0.3 2.6 -0.4
v 0.3 2.6 -0.4
v -0.2 2.8 0.3
v 0.2 2.8 0.3
v -0.3 2.8 0.2
v -0.2 2.8 0.2
v 0.2 2.8 0.2
v 0.3 2.8 0.2
v -0.3 2.8 -0.2
v -0.2 2.8 -0.2
v 0.2 2.8 -0.2
v 0.3 2.8 -0.2
v -0.2 2.8 -0.3
v 0.2 2.8 -0.3
v -0.2 2.9 0.2
v 0.2 2.9 0.2
v -0.2 2.9 -0.2
v 0.2 2.9 -0.2
v -0.3 0 0.4
v 0.3 0 0.4
v -0.4 0 0.3
v -0.3 0 0.3
v -0.2 0 0.3
v 0.2 0 0.3
v 0.3 0 0.3
v 0.4 0 0.3
v -0.3 0 0.2
v -0.2 0 0.2
v 0.2 0 0.2
v 0.3 0 0.2
v -0.3 0 -0.2
v -0.2 0 -0.2
v 0.2 0 -0.2
v 0.3 0 -0.2
v -0.4 0 -0.3
v -0.3 0 -0.3
v -0.2 0 -0.3
v 0.2 0 -0.3
v 0.3 0 -0.3
v 0.4 0 -0.3
v -0.3 0 -0.4
v 0.3 0 -0.4
v -0.3 2.8 0.5
v 0.3 2.8 0.5
v -0.4 2.8 0.4
v -0.3 2.8 0.4
v 0.3 2.8 0.4
v 0.4 2.8 0.4
v -0.5 2.8 0.3
v -0.4 2.8 0.3
v -0.3 2.8 0.3
v -0.2 2.8 0.3
v 0.2 2.8 0.3
v 0.3 2.8 0.3
v 0.4 2.8 0.3
v 0.5 2.8 0.3
v -0.3 2.8 0.2
v -0.2 2.8 0.2
v 0.2 2.8 0.2
v 0.3 2.8 0.2
v -0.3 2.8 -0.2
v -0.2 2.8 -0.2
v 0.2 2.8 -0.2
v 0.3 2.8 -0.2
v -0.5 2.8 -0.3
v -0.4 2.8 -0.3
v -0.3 2.8 -0.3
v -0.2 2.8 -0.3
v 0.2 2.8 -0.3
v 0.3 2.8 -0.3
v 0.4 2.8 -0.3
v 0.5 2.8 -0.3
v -0.4 2.8 -0.4
v -0.3 2.8 -0.4
v 0.3 2.8 -0.4
v 0.4 2.8 -0.4
v -0.3 2.8 -0.5
v 0.3 2.8 -0.5
v -0.2 2.9 0.3
v 0.2 2.9 0.3
v -0.3 2.9 0.2
v -0.2 2.9 0.2
v 0.2 2.9 0.2
v 0.3 2.9 0.2
v -0.3 2.9 -0.2
v -0.2 2.9 -0.2
v 0.2 2.9 -0.2
v 0.3 2.9 -0.2
v -0.2 2.9 -0.3
v 0.2 2.9 -0.3
v -0.2 3 0.2
v 0.2 3 0.2
v -0.2 3 -0.2
v 0.2 3 -0.2

# faces
f 3/4/1 2/4/1 1/4/1
f 4/4/1 2/4/1 3/4/1
f 9/4/1 6/4/1 5/4/1
f 10/4/1 6/4/1 9/4/1
f 11/4/1 8/4/1 7/4/1
f 12/4/1 8/4/1 11/4/1
f 17/4/1 14/4/1 13/4/1
f 18/4/1 14/4/1 17/4/1
f 21/4/1 16/4/1 15/4/1
f 22/4/1 16/4/1 21/4/1
f 23/3/1 20/3/1 19/3/1
f 24/3/1 20/3/1 23/3/1
f 29/3/1 26/3/1 25/3/1
f 30/3/1 26/3/1 29/3/1
f 31/3/1 28/3/1 27/3/1
f 32/3/1 28/3/1 31/3/1
f 33/2/1 31/2/1 30/2/1
f 34/2/1 31/2/1 33/2/1
f 39/1/1 36/1/1 35/1/1
f 40/1/1 36/1/1 39/1/1
f 41/1/1 38/1/1 37/1/1
f 42/1/1 38/1/1 41/1/1
f 43/3/1 41/3/1 40/3/1
f 44/3/1 41/3/1 43/3/1
f 49/4/1 46/4/1 45/4/1
f 50/4/1 46/4/1 49/4/1
f 53/4/1 48/4/1 47/4/1
f 54/4/1 48/4/1 53/4/1
f 55/1/1 52/1/1 51/1/1
f 56/1/1 52/1/1 55/1/1
f 59/4/1 58/4/1 57/4/1
f 60/4/1 58/4/1 59/4/1
f 61/4/2 62/4/2 63/4/2
f 63/4/2 62/4/2 64/4/2
f 65/4/2 66/4/2 69/4/2
f 69/4/2 66/4/2 70/4/2
f 67/4/2 68/4/2 73/4/2
f 73/4/2 68/4/2 74/4/2
f 71/1/2 72/1/2 75/1/2
f 75/1/2 72/1/2 76/1/2
f 77/1/2 78/1/2 81/1/2
f 81/1/2 78/1/2 82/1/2
f 79/1/2 80/1/2 83/1/2
f 83/1/2 80/1/2 84/1/2
f 82/3/2 83/3/2 85/3/2
f 85/3/2 83/3/2 86/3/2
f 87/3/2 88/3/2 91/3/2
f 91/3/2 88/3/2 92/3/2
f 89/3/2 90/3/2 93/3/2
f 93/3/2 90/3/2 94/3/2
f 92/2/2 93/2/2 95/2/2
f 95/2/2 93/2/2 96/2/2
f 97/4/2 98/4/2 101/4/2
f 101/4/2 98/4/2 102/4/2
f 99/4/2 100/4/2 105/4/2
f 105/4/2 100/4/2 106/4/2
f 103/3/2 104/3/2 107/3/2
f 107/3/2 104/3/2 108/3/2
f 109/4/2 110/4/2 113/4/2
f 113/4/2 110/4/2 114/4/2
f 111/4/2 112/4/2 115/4/2
f 115/4/2 112/4/2 116/4/2
f 117/4/2 118/4/2 119/4/2
f 119/4/2 118/4/2 120/4/2
f 123/4/3 122/4/3 121/4/3
f 124/4/3 122/4/3 123/4/3
f 125/4/3 122/4/3 124/4/3
f 126/4/3 122/4/3 125/4/3
f 127/4/3 125/4/3 124/4/3
f 128/2/3 126/2/3 125/2/3
f 128/4/3 125/4/3 127/4/3
f 129/4/3 122/4/3 126/4/3
f 129/2/3 126/2/3 128/2/3
f 130/4/3 122/4/3 129/4/3
f 131/2/3 128/2/3 127/2/3
f 131/4/3 127/4/3 124/4/3
f 131/2/3 130/2/3 129/2/3
f 131/2/3 129/2/3 128/2/3
f 132/2/3 130/2/3 131/2/3
f 133/2/3 130/2/3 132/2/3
f 134/4/3 122/4/3 130/4/3
f 134/2/3 130/2/3 133/2/3
f 135/4/3 123/4/3 121/4/3
f 135/2/3 124/2/3 123/2/3
f 136/4/3 131/4/3 124/4/3
f 136/2/3 124/2/3 135/2/3
f 136/4/3 132/4/3 131/4/3
f 137/2/3 133/2/3 132/2/3
f 137/4/3 132/4/3 136/4/3
f 138/4/3 134/4/3 133/4/3
f 138/2/3 133/2/3 137/2/3
f 139/4/3 137/4/3 136/4/3
f 139/4/3 136/4/3 135/4/3
f 139/4/3 138/4/3 137/4/3
f 139/4/3 135/4/3 121/4/3
f 140/4/3 122/4/3 134/4/3
f 140/4/3 138/4/3 139/4/3
f 140/4/3 134/4/3 138/4/3
f 143/4/3 142/4/3 141/4/3
f 144/4/3 142/4/3 143/4/3
f 147/4/3 146/4/3 145/4/3
f 148/4/3 146/4/3 147/4/3
f 151/4/3 150/4/3 149/4/3
f 152/4/3 150/4/3 151/4/3
f 155/3/3 154/3/3 153/3/3
f 156/3/3 154/3/3 155/3/3
f 159/4/3 158/4/3 157/4/3
f 160/4/3 158/4/3 159/4/3
f 163/3/3 162/3/3 161/3/3
f 164/3/3 162/3/3 163/3/3
f 167/2/3 165/2/3 164/2/3
f 168/2/3 165/2/3 167/2/3
f 169/3/3 167/3/3 166/3/3
f 170/3/3 167/3/3 169/3/3
f 173/1/3 172/1/3 171/1/3
f 174/1/3 172/1/3 173/1/3
f 177/3/3 175/3/3 174/3/3
f 178/3/3 175/3/3 177/3/3
f 179/1/3 177/1/3 176/1/3
f 180/1/3 177/1/3 179/1/3
f 183/4/3 182/4/3 181/4/3
f 184/4/3 182/4/3 183/4/3
f 187/1/3 186/1/3 185/1/3
f 188/1/3 186/1/3 187/1/3
f 191/4/3 190/4/3 189/4/3
f 192/4/3 190/4/3 191/4/3
f 195/4/3 194/4/3 193/4/3
f 196/4/3 194/4/3 195/4/3
f 197/4/3 194/4/3 196/4/3
f 198/4/3 194/4/3 197/4/3
f 199/4/3 197/4/3 196/4/3
f 200/2/3 198/2/3 197/2/3
f 200/4/3 197/4/3 199/4/3
f 201/4/3 194/4/3 198/4/3
f 201/2/3 198/2/3 200/2/3
f 202/4/3 194/4/3 201/4/3
f 203/2/3 200/2/3 199/2/3
f 203/4/3 199/4/3 196/4/3
f 203/2/3 202/2/3 201/2/3
f 203/2/3 201/2/3 200/2/3
f 204/2/3 202/2/3 203/2/3
f 205/2/3 202/2/3 204/2/3
f 206/4/3 194/4/3 202/4/3
f 206/2/3 202/2/3 205/2/3
f 207/4/3 195/4/3 193/4/3
f 207/2/3 196/2/3 195/2/3
f 208/4/3 203/4/3 196/4/3
f 208/2/3 196/2/3 207/2/3
f 208/4/3 204/4/3 203/4/3
f 209/2/3 205/2/3 204/2/3
f 209/4/3 204/4/3 208/4/3
f 210/4/3 206/4/3 205/4/3
f 210/2/3 205/2/3 209/2/3
f 211/4/3 209/4/3 208/4/3
f 211/4/3 208/4/3 207/4/3
f 211/4/3 210/4/3 209/4/3
f 211/4/3 207/4/3 193/4/3
f 212/4/3 194/4/3 206/4/3
f 212/4/3 210/4/3 211/4/3
f 212/4/3 206/4/3 210/4/3
f 213/4/4 214/4/4 215/4/4
f 215/4/4 214/4/4 216/4/4
f 216/4/4 214/4/4 217/4/4
f 217/4/4 214/4/4 218/4/4
f 216/4/4 217/4/4 219/4/4
f 217/2/4 218/2/4 220/2/4
f 219/4/4 217/4/4 220/4/4
f 218/4/4 214/4/4 221/4/4
f 220/2/4 218/2/4 221/2/4
f 221/4/4 214/4/4 222/4/4
f 219/2/4 220/2/4 223/2/4
f 216/4/4 219/4/4 223/4/4
f 221/2/4 222/2/4 223/2/4
f 220/2/4 221/2/4 223/2/4
f 223/2/4 222/2/4 224/2/4
f 224/2/4 222/2/4 225/2/4
f 222/4/4 214/4/4 226/4/4
f 225/2/4 222/2/4 226/2/4
f 213/4/4 215/4/4 227/4/4
f 215/2/4 216/2/4 227/2/4
f 216/4/4 223/4/4 228/4/4
f 227/2/4 216/2/4 228/2/4
f 223/4/4 224/4/4 228/4/4
f 224/2/4 225/2/4 229/2/4
f 228/4/4 224/4/4 229/4/4
f 225/4/4 226/4/4 230/4/4
f 229/2/4 225/2/4 230/2/4
f 228/4/4 229/4/4 231/4/4
f 227/4/4 228/4/4 231/4/4
f 229/4/4 230/4/4 231/4/4
f 213/4/4 227/4/4 231/4/4
f 226/4/4 214/4/4 232/4/4
f 231/4/4 230/4/4 232/4/4
f 230/4/4 226/4/4 232/4/4
f 233/4/4 234/4/4 235/4/4
f 235/4/4 234/4/4 236/4/4
f 237/1/4 238/1/4 239/1/4
f 239/1/4 238/1/4 240/1/4
f 241/4/4 242/4/4 243/4/4
f 243/4/4 242/4/4 244/4/4
f 245/1/4 246/1/4 247/1/4
f 247/1/4 246/1/4 248/1/4
f 248/3/4 249/3/4 251/3/4
f 251/3/4 249/3/4 252/3/4
f 250/1/4 251/1/4 253/1/4
f 253/1/4 251/1/4 254/1/4
f 255/3/4 256/3/4 257/3/4
f 257/3/4 256/3/4 258/3/4
f 258/2/4 259/2/4 261/2/4
f 261/2/4 259/2/4 262/2/4
f 260/3/4 261/3/4 263/3/4
f 263/3/4 261/3/4 264/3/4
f 265/4/4 266/4/4 267/4/4
f 267/4/4 266/4/4 268/4/4
f 269/3/4 270/3/4 271/3/4
f 271/3/4 270/3/4 272/3/4
f 273/4/4 274/4/4 275/4/4
f 275/4/4 274/4/4 276/4/4
f 277/4/4 278/4/4 279/4/4
f 279/4/4 278/4/4 280/4/4
f 281/4/4 282/4/4 283/4/4
f 283/4/4 282/4/4 284/4/4
f 285/4/4 286/4/4 287/4/4
f 287/4/4 286/4/4 288/4/4
f 288/4/4 286/4/4 289/4/4
f 289/4/4 286/4/4 290/4/4
f 288/4/4 289/4/4 291/4/4
f 289/2/4 290/2/4 292/2/4
f 291/4/4 289/4/4 292/4/4
f 290/4/4 286/4/4 293/4/4
f 292/2/4 290/2/4 293/2/4
f 293/4/4 286/4/4 294/4/4
f 291/2/4 292/2/4 295/2/4
f 288/4/4 291/4/4 295/4/4
f 293/2/4 294/2/4 295/2/4
f 292/2/4 293/2/4 295/2/4
f 295/2/4 294/2/4 296/2/4
f 296/2/4 294/2/4 297/2/4
f 294/4/4 286/4/4 298/4/4
f 297/2/4 294/2/4 298/2/4
f 285/4/4 287/4/4 299/4/4
f 287/2/4 288/2/4 299/2/4
f 288/4/4 295/4/4 300/4/4
f 299/2/4 288/2/4 300/2/4
f 295/4/4 296/4/4 300/4/4
f 296/2/4 297/2/4 301/2/4
f 300/4/4 296/4/4 301/4/4
f 297/4/4 298/4/4 302/4/4
f 301/2/4 297/2/4 302/2/4
f 300/4/4 301/4/4 303/4/4
f 299/4/4 300/4/4 303/4/4
f 301/4/4 302/4/4 303/4/4
f 285/4/4 299/4/4 303/4/4
f 298/4/4 286/4/4 304/4/4
f 303/4/4 302/4/4 304/4/4
f 302/4/4 298/4/4 304/4/4
f 308/4/5 306/4/5 305/4/5
f 309/4/5 306/4/5 308/4/5
f 312/4/5 308/4/5 307/4/5
f 313/1/5 309/1/5 308/1/5
f 313/4/5 308/4/5 312/4/5
f 314/1/5 309/1/5 313/1/5
f 315/1/5 309/1/5 314/1/5
f 316/4/5 310/4/5 309/4/5
f 316/1/5 309/1/5 315/1/5
f 317/4/5 310/4/5 316/4/5
f 319/1/5 313/1/5 312/1/5
f 319/1/5 314/1/5 313/1/5
f 320/3/5 315/3/5 314/3/5
f 320/1/5 314/1/5 319/1/5
f 321/1/5 317/1/5 316/1/5
f 321/3/5 315/3/5 320/3/5
f 321/1/5 316/1/5 315/1/5
f 322/1/5 317/1/5 321/1/5
f 323/1/5 319/1/5 312/1/5
f 323/3/5 320/3/5 319/3/5
f 323/3/5 322/3/5 321/3/5
f 323/3/5 321/3/5 320/3/5
f 324/3/5 322/3/5 323/3/5
f 325/3/5 322/3/5 324/3/5
f 326/1/5 317/1/5 322/1/5
f 326/3/5 322/3/5 325/3/5
f 327/4/5 312/4/5 311/4/5
f 328/1/5 323/1/5 312/1/5
f 328/4/5 312/4/5 327/4/5
f 328/1/5 324/1/5 323/1/5
f 329/1/5 324/1/5 328/1/5
f 330/3/5 325/3/5 324/3/5
f 330/1/5 324/1/5 329/1/5
f 331/1/5 326/1/5 325/1/5
f 331/3/5 325/3/5 330/3/5
f 332/1/5 317/1/5 326/1/5
f 332/1/5 326/1/5 331/1/5
f 333/4/5 318/4/5 317/4/5
f 333/1/5 317/1/5 332/1/5
f 334/4/5 318/4/5 333/4/5
f 335/4/5 329/4/5 328/4/5
f 336/1/5 331/1/5 330/1/5
f 336/4/5 329/4/5 335/4/5
f 336/1/5 332/1/5 331/1/5
f 336/1/5 330/1/5 329/1/5
f 337/4/5 333/4/5 332/4/5
f 337/1/5 332/1/5 336/1/5
f 338/4/5 333/4/5 337/4/5
f 339/4/5 337/4/5 336/4/5
f 340/4/5 337/4/5 339/4/5
f 344/1/5 342/1/5 341/1/5
f 345/1/5 342/1/5 344/1/5
f 346/1/5 342/1/5 345/1/5
f 347/1/5 342/1/5 346/1/5
f 349/1/5 344/1/5 343/1/5
f 349/1/5 345/1/5 344/1/5
f 350/1/5 345/1/5 349/1/5
f 351/1/5 348/1/5 347/1/5
f 351/1/5 347/1/5 346/1/5
f 352/1/5 348/1/5 351/1/5
f 353/1/5 349/1/5 343/1/5
f 356/1/5 348/1/5 352/1/5
f 357/1/5 354/1/5 353/1/5
f 357/1/5 353/1/5 343/1/5
f 358/1/5 354/1/5 357/1/5
f 359/1/5 354/1/5 358/1/5
f 360/1/5 356/1/5 355/1/5
f 361/1/5 348/1/5 356/1/5
f 361/1/5 356/1/5 360/1/5
f 362/1/5 348/1/5 361/1/5
f 363/1/5 359/1/5 358/1/5
f 363/1/5 360/1/5 359/1/5
f 363/1/5 361/1/5 360/1/5
f 364/1/5 361/1/5 363/1/5
f 368/3/5 366/3/5 365/3/5
f 369/3/5 366/3/5 368/3/5
f 371/3/5 368/3/5 367/3/5
f 372/3/5 368/3/5 371/3/5
f 373/3/5 370/3/5 369/3/5
f 374/3/5 370/3/5 373/3/5
f 375/3/5 373/3/5 372/3/5
f 376/3/5 373/3/5 375/3/5
f 379/2/5 378/2/5 377/2/5
f 380/2/5 378/2/5 379/2/5
f 381/1/6 382/1/6 384/1/6
f 384/1/6 382/1/6 385/1/6
f 385/1/6 382/1/6 386/1/6
f 386/1/6 382/1/6 387/1/6
f 383/1/6 384/1/6 389/1/6
f 384/1/6 385/1/6 389/1/6
f 385/3/6 386/3/6 390/3/6
f 389/1/6 385/1/6 390/1/6
f 387/1/6 388/1/6 391/1/6
f 390/3/6 386/3/6 391/3/6
f 386/1/6 387/1/6 391/1/6
f 391/1/6 388/1/6 392/1/6
f 389/3/6 390/3/6 393/3/6
f 383/1/6 389/1/6 393/1/6
f 391/3/6 392/3/6 393/3/6
f 390/3/6 391/3/6 393/3/6
f 393/3/6 392/3/6 394/3/6
f 394/3/6 392/3/6 395/3/6
f 392/1/6 388/1/6 396/1/6
f 395/3/6 392/3/6 396/3/6
f 383/1/6 393/1/6 397/1/6
f 393/1/6 394/1/6 397/1/6
f 397/1/6 394/1/6 398/1/6
f 394/3/6 395/3/6 399/3/6
f 398/1/6 394/1/6 399/1/6
f 395/1/6 396/1/6 400/1/6
f 399/3/6 395/3/6 400/3/6
f 396/1/6 388/1/6 401/1/6
f 400/1/6 396/1/6 401/1/6
f 401/1/6 388/1/6 402/1/6
f 399/1/6 400/1/6 403/1/6
f 400/1/6 401/1/6 403/1/6
f 398/1/6 399/1/6 403/1/6
f 403/1/6 401/1/6 404/1/6
f 405/4/6 406/4/6 408/4/6
f 408/4/6 406/4/6 409/4/6
f 407/4/6 408/4/6 412/4/6
f 408/1/6 409/1/6 413/1/6
f 412/4/6 408/4/6 413/4/6
f 413/1/6 409/1/6 414/1/6
f 414/1/6 409/1/6 415/1/6
f 409/4/6 410/4/6 416/4/6
f 415/1/6 409/1/6 416/1/6
f 416/4/6 410/4/6 417/4/6
f 412/1/6 413/1/6 419/1/6
f 413/1/6 414/1/6 419/1/6
f 419/1/6 414/1/6 420/1/6
f 416/1/6 417/1/6 421/1/6
f 415/1/6 416/1/6 421/1/6
f 421/1/6 417/1/6 422/1/6
f 412/1/6 419/1/6 423/1/6
f 422/1/6 417/1/6 426/1/6
f 411/4/6 412/4/6 427/4/6
f 423/1/6 424/1/6 428/1/6
f 427/4/6 412/4/6 428/4/6
f 412/1/6 423/1/6 428/1/6
f 428/1/6 424/1/6 429/1/6
f 429/1/6 424/1/6 430/1/6
f 425/1/6 426/1/6 431/1/6
f 426/1/6 417/1/6 432/1/6
f 431/1/6 426/1/6 432/1/6
f 417/4/6 418/4/6 433/4/6
f 432/1/6 417/1/6 433/1/6
f 433/4/6 418/4/6 434/4/6
f 428/4/6 429/4/6 435/4/6
f 431/1/6 432/1/6 436/1/6
f 435/4/6 429/4/6 436/4/6
f 429/1/6 430/1/6 436/1/6
f 430/1/6 431/1/6 436/1/6
f 432/4/6 433/4/6 437/4/6
f 436/1/6 432/1/6 437/1/6
f 437/4/6 433/4/6 438/4/6
f 436/4/6 437/4/6 439/4/6
f 439/4/6 437/4/6 440/4/6
f 441/3/6 442/3/6 444/3/6
f 444/3/6 442/3/6 445/3/6
f 443/3/6 444/3/6 447/3/6
f 447/3/6 444/3/6 448/3/6
f 445/3/6 446/3/6 449/3/6
f 449/3/6 446/3/6 450/3/6
f 448/3/6 449/3/6 451/3/6
f 451/3/6 449/3/6 452/3/6
f 453/2/6 454/2/6 455/2/6
f 455/2/6 454/2/6 456/2/6
