<?xml version="1.0" encoding="UTF-8" standalone="no"?>
<!-- Created with Inkscape (http://www.inkscape.org/) -->

<svg
   width="192.96783mm"
   height="130.22881mm"
   viewBox="0 0 192.96783 130.22881"
   version="1.1"
   id="svg1"
   xmlns:inkscape="http://www.inkscape.org/namespaces/inkscape"
   xmlns:sodipodi="http://sodipodi.sourceforge.net/DTD/sodipodi-0.dtd"
   xmlns="http://www.w3.org/2000/svg"
   xmlns:svg="http://www.w3.org/2000/svg">
  <sodipodi:namedview
     id="namedview1"
     pagecolor="#ffffff"
     bordercolor="#999999"
     borderopacity="1"
     inkscape:showpageshadow="2"
     inkscape:pageopacity="0"
     inkscape:pagecheckerboard="0"
     inkscape:deskcolor="#d1d1d1"
     inkscape:document-units="mm" />
  <defs
     id="defs1" />
  <g
     inkscape:label="Warstwa 1"
     inkscape:groupmode="layer"
     id="layer1"
     transform="translate(-8.5160753,-7.3856005)">
    <g
       id="g12"
       transform="translate(2.4839264,-0.24329837)">
      <rect
         style="fill:#d9b771;fill-opacity:1;stroke-width:3.78988"
         id="rect1664-6"
         width="174.58957"
         height="64.322487"
         x="15.221532"
         y="64.346336" />
      <rect
         style="fill:#927b5f;fill-opacity:1;stroke:none;stroke-width:736.905;stroke-linecap:round;stroke-miterlimit:6.2;paint-order:markers fill stroke"
         id="rect1-38-5-8-3-2-9-7-0"
         width="192.96736"
         height="9.18892"
         x="6.0322552"
         y="55.157982" />
      <rect
         style="fill:#927b5f;fill-opacity:1;stroke:none;stroke-width:425.453;stroke-linecap:round;stroke-miterlimit:6.2;paint-order:markers fill stroke"
         id="rect1-38-5-8-3-2-9-7-6-0"
         width="64.322357"
         height="9.18892"
         x="64.346336"
         y="-198.99976"
         transform="rotate(90)" />
      <rect
         style="fill:#927b5f;fill-opacity:1;stroke:none;stroke-width:425.453;stroke-linecap:round;stroke-miterlimit:6.2;paint-order:markers fill stroke"
         id="rect1-38-5-8-3-2-9-7-6-3-8"
         width="64.322357"
         height="9.18892"
         x="64.346336"
         y="-15.221509"
         transform="rotate(90)" />
      <g
         id="g13148"
         transform="matrix(2.9404466,0,0,2.9404466,-2351.2864,-2760.4267)"
         style="fill:#000000;fill-opacity:1">
        <path
           id="rect1-4-2-3-7-62-3-3-1-3-2-3-82-2"
           style="fill:#000000;fill-opacity:1;stroke:#000000;stroke-width:1.42964;stroke-linecap:round;stroke-miterlimit:6.2;stroke-dasharray:none;stroke-opacity:1;paint-order:stroke markers fill"
           d="m 829.96085,964.03356 v 3.0261 h 3.02606 3.0261 3.02606 v -3.0261 h -3.02606 -3.0261 z m 9.07822,3.0261 v 3.0261 3.026 3.0261 h 3.02607 v -3.0261 -3.026 -3.0261 z m 0,9.0782 h -3.02606 -3.0261 -3.02606 v 3.02611 h 3.02606 3.0261 3.02606 z m -9.07822,0 v -3.0261 -3.026 -3.0261 h -3.02607 v 3.0261 3.026 3.0261 z" />
        <path
           id="rect1-4-2-3-7-6-0-7-2-2-3-1-6-8-6"
           style="fill:#000000;fill-opacity:1;stroke:#000000;stroke-width:1.42964;stroke-linecap:round;stroke-miterlimit:6.2;stroke-dasharray:none;stroke-opacity:1;paint-order:stroke markers fill"
           d="m 846.60425,964.03356 v 3.0261 h 3.0261 v -3.0261 z m 3.0261,3.0261 v 3.0261 h 3.02606 v -3.0261 z m 3.02606,3.0261 v 3.026 h 3.02607 v -3.026 z m 3.02607,0 h 3.02609 v -3.0261 h -3.02609 z m 3.02609,-3.0261 h 3.02607 v -3.0261 h -3.02607 z m -3.02609,6.0521 v 3.0261 h 3.02609 v -3.0261 z m 3.02609,3.0261 v 3.02611 h 3.02607 v -3.02611 z m -6.05216,-3.0261 h -3.02606 v 3.0261 h 3.02606 z m -3.02606,3.0261 h -3.0261 v 3.02611 h 3.0261 z" />
        <path
           id="rect1-38-5-8-3-2-8-7-3-6-0-9-0"
           style="fill:#000000;fill-opacity:1;stroke:#000000;stroke-width:1.42964;stroke-linecap:round;stroke-miterlimit:6.2;stroke-dasharray:none;stroke-opacity:1;paint-order:stroke markers fill"
           d="m 807.26529,964.03356 v 3.0261 3.0261 3.026 3.0261 3.02611 h 3.02606 3.02609 3.02607 3.02606 v -3.02611 h -3.02606 -3.02607 -3.02609 v -3.0261 -3.026 -3.0261 h 3.02609 3.02607 3.02606 v -3.0261 h -3.02606 -3.02607 -3.02609 z m 12.10428,3.0261 v 3.0261 h 3.0261 v -3.0261 z m 0,3.0261 h -3.02606 -3.02607 v 3.026 h 3.02607 3.02606 z m 0,3.026 v 3.0261 h 3.0261 v -3.0261 z" />
      </g>
      <g
         id="g13154"
         transform="matrix(2.5535359,0,0,2.5535359,-1856.9161,-2507.979)">
        <g
           id="g13505"
           transform="translate(1.683798)">
          <path
             id="rect1-38-80-3-4-2-4-8-0-6-5"
             style="fill:#d9b771;fill-opacity:1;stroke:#000000;stroke-width:1.42964;stroke-linecap:round;stroke-miterlimit:6.2;stroke-dasharray:none;stroke-opacity:1;paint-order:stroke markers fill"
             d="m 748.25684,985.86169 v 3.0261 3.0261 3.026 3.0261 3.02611 h 3.02606 v -3.02611 -3.0261 h 3.02607 3.0261 3.02606 v 3.0261 3.02611 h 3.02607 v -3.02611 -3.0261 -3.026 -3.0261 -3.0261 h -3.02607 -3.02606 -3.0261 -3.02607 z m 3.02606,3.0261 h 3.02607 3.0261 3.02606 v 3.0261 h -3.02606 -3.0261 -3.02607 z" />
          <path
             id="rect1-38-5-5-6-4-1-2-3-5-4-4"
             style="fill:#d9b771;fill-opacity:1;stroke:#000000;stroke-width:1.42964;stroke-linecap:round;stroke-miterlimit:6.2;stroke-dasharray:none;stroke-opacity:1;paint-order:stroke markers fill"
             d="m 787.59578,985.86169 v 3.0261 3.0261 3.026 3.0261 3.02611 h 3.02609 3.02607 3.02607 3.0261 v -3.02611 h -3.0261 -3.02607 -3.02607 v -3.0261 -3.026 -3.0261 h 3.02607 3.02607 3.0261 v -3.0261 h -3.0261 -3.02607 -3.02607 z m 12.10433,3.0261 v 3.0261 3.026 3.0261 h 3.02606 v -3.0261 -3.026 -3.0261 z" />
          <path
             id="rect1-38-8-4-0-5-4-2-3-8-2-9"
             style="fill:#d9b771;fill-opacity:1;stroke:#000000;stroke-width:1.42964;stroke-linecap:round;stroke-miterlimit:6.2;stroke-dasharray:none;stroke-opacity:1;paint-order:stroke markers fill"
             d="m 767.92631,985.86169 v 3.0261 3.0261 3.026 3.0261 3.02611 h 3.02607 v -3.02611 -3.0261 -3.026 h 3.02609 v -3.0261 h -3.02609 v -3.0261 z m 6.05216,6.0522 v 3.026 h 3.02607 v -3.026 z m 3.02607,3.026 v 3.0261 h 3.02606 v 3.02611 h 3.0261 v -3.02611 -3.0261 -3.026 -3.0261 -3.0261 h -3.0261 v 3.0261 3.0261 3.026 z" />
          <path
             id="rect1-1-4-5-4-7-5-9-1-4-9"
             style="fill:#d9b771;fill-opacity:1;stroke:#000000;stroke-width:1.42964;stroke-linecap:round;stroke-miterlimit:6.2;stroke-dasharray:none;paint-order:stroke markers fill"
             d="m 728.58734,985.86169 v 3.0261 3.0261 3.026 h 3.02607 3.02609 3.02607 3.02606 v 3.0261 h -3.02606 -3.02607 -3.02609 -3.02607 v 3.02611 h 3.02607 3.02609 3.02607 3.02606 3.0261 v -3.02611 -3.0261 -3.026 h -3.0261 -3.02606 -3.02607 -3.02609 v -3.0261 h 3.02609 3.02607 3.02606 3.0261 v -3.0261 h -3.0261 -3.02606 -3.02607 -3.02609 z" />
        </g>
      </g>
      <rect
         style="fill:#927b5f;fill-opacity:1;stroke:none;stroke-width:736.905;stroke-linecap:round;stroke-miterlimit:6.2;paint-order:markers fill stroke"
         id="rect1-38-5-8-3-2-9-7-0-6"
         width="192.96736"
         height="9.18892"
         x="6.0326366"
         y="128.66878" />
    </g>
  </g>
</svg>
