# MagicaVoxel @ Ephtracy

# group
o 

# material
mtllib battery_1_1.2r.mtl
usemtl palette

# normals
vn -1 0 0
vn 1 0 0
vn 0 0 1
vn 0 0 -1
vn 0 -1 0
vn 0 1 0

# texcoords
vt 0.0566406 0.5
vt 0.931641 0.5
vt 0.962891 0.5
vt 0.966797 0.5
vt 0.982422 0.5

# verts
v -0.5 0 0.2
v -0.5 0 -0.2
v -0.5 2.9 0.2
v -0.5 2.9 -0.2
v -0.4 0 0.3
v -0.4 0 0.2
v -0.4 0 -0.2
v -0.4 0 -0.3
v -0.4 2.9 0.3
v -0.4 2.9 0.2
v -0.4 2.9 -0.2
v -0.4 2.9 -0.3
v -0.3 0 0.4
v -0.3 0 0.3
v -0.3 0 -0.3
v -0.3 0 -0.4
v -0.3 2.9 0.4
v -0.3 2.9 0.3
v -0.3 2.9 0.2
v -0.3 2.9 -0.2
v -0.3 2.9 -0.3
v -0.3 2.9 -0.4
v -0.3 3 0.2
v -0.3 3 -0.2
v -0.2 0 0.5
v -0.2 0 0.4
v -0.2 0 -0.4
v -0.2 0 -0.5
v -0.2 0.3 0.5
v -0.2 0.3 0.4
v -0.2 0.4 0.5
v -0.2 0.4 0.4
v -0.2 2.3 0.5
v -0.2 2.3 0.4
v -0.2 2.5 0.5
v -0.2 2.5 0.4
v -0.2 2.9 0.5
v -0.2 2.9 0.4
v -0.2 2.9 0.3
v -0.2 2.9 0.2
v -0.2 2.9 -0.2
v -0.2 2.9 -0.3
v -0.2 2.9 -0.4
v -0.2 2.9 -0.5
v -0.2 3 0.3
v -0.2 3 0.2
v -0.2 3 -0.2
v -0.2 3 -0.3
v -0.2 3.1 0.2
v -0.2 3.1 -0.2
v 0.2 0.1 0.4
v 0.2 0.1 0.3
v 0.2 0.1 -0.3
v 0.2 0.1 -0.4
v 0.2 0.3 0.4
v 0.2 0.4 0.4
v 0.2 2.3 0.4
v 0.2 2.5 0.4
v 0.2 2.7 0.4
v 0.2 2.7 0.3
v 0.2 2.7 0.2
v 0.2 2.7 -0.2
v 0.2 2.7 -0.3
v 0.2 2.7 -0.4
v 0.2 2.8 0.3
v 0.2 2.8 0.2
v 0.2 2.8 -0.2
v 0.2 2.8 -0.3
v 0.2 2.9 0.3
v 0.2 2.9 0.2
v 0.2 2.9 -0.2
v 0.2 2.9 -0.3
v 0.2 3 0.2
v 0.2 3 -0.2
v 0.3 0.1 0.3
v 0.3 0.1 0.2
v 0.3 0.1 -0.2
v 0.3 0.1 -0.3
v 0.3 2.7 0.3
v 0.3 2.7 0.2
v 0.3 2.7 -0.2
v 0.3 2.7 -0.3
v 0.3 2.8 0.2
v 0.3 2.8 -0.2
v 0.3 2.9 0.2
v 0.3 2.9 -0.2
v 0.4 0.1 0.2
v 0.4 0.1 -0.2
v 0.4 2.7 0.2
v 0.4 2.7 -0.2
v -0.4 0.1 0.2
v -0.4 0.1 -0.2
v -0.4 2.7 0.2
v -0.4 2.7 -0.2
v -0.3 0.1 0.3
v -0.3 0.1 0.2
v -0.3 0.1 -0.2
v -0.3 0.1 -0.3
v -0.3 2.7 0.3
v -0.3 2.7 0.2
v -0.3 2.7 -0.2
v -0.3 2.7 -0.3
v -0.3 2.8 0.2
v -0.3 2.8 -0.2
v -0.3 2.9 0.2
v -0.3 2.9 -0.2
v -0.2 0.1 0.4
v -0.2 0.1 0.3
v -0.2 0.1 -0.3
v -0.2 0.1 -0.4
v -0.2 0.3 0.4
v -0.2 0.4 0.4
v -0.2 2.3 0.4
v -0.2 2.5 0.4
v -0.2 2.7 0.4
v -0.2 2.7 0.3
v -0.2 2.7 0.2
v -0.2 2.7 -0.2
v -0.2 2.7 -0.3
v -0.2 2.7 -0.4
v -0.2 2.8 0.3
v -0.2 2.8 0.2
v -0.2 2.8 -0.2
v -0.2 2.8 -0.3
v -0.2 2.9 0.3
v -0.2 2.9 0.2
v -0.2 2.9 -0.2
v -0.2 2.9 -0.3
v -0.2 3 0.2
v -0.2 3 -0.2
v 0.2 0 0.5
v 0.2 0 0.4
v 0.2 0 -0.4
v 0.2 0 -0.5
v 0.2 0.3 0.5
v 0.2 0.3 0.4
v 0.2 0.4 0.5
v 0.2 0.4 0.4
v 0.2 2.3 0.5
v 0.2 2.3 0.4
v 0.2 2.5 0.5
v 0.2 2.5 0.4
v 0.2 2.9 0.5
v 0.2 2.9 0.4
v 0.2 2.9 0.3
v 0.2 2.9 0.2
v 0.2 2.9 -0.2
v 0.2 2.9 -0.3
v 0.2 2.9 -0.4
v 0.2 2.9 -0.5
v 0.2 3 0.3
v 0.2 3 0.2
v 0.2 3 -0.2
v 0.2 3 -0.3
v 0.2 3.1 0.2
v 0.2 3.1 -0.2
v 0.3 0 0.4
v 0.3 0 0.3
v 0.3 0 -0.3
v 0.3 0 -0.4
v 0.3 2.9 0.4
v 0.3 2.9 0.3
v 0.3 2.9 0.2
v 0.3 2.9 -0.2
v 0.3 2.9 -0.3
v 0.3 2.9 -0.4
v 0.3 3 0.2
v 0.3 3 -0.2
v 0.4 0 0.3
v 0.4 0 0.2
v 0.4 0 -0.2
v 0.4 0 -0.3
v 0.4 2.9 0.3
v 0.4 2.9 0.2
v 0.4 2.9 -0.2
v 0.4 2.9 -0.3
v 0.5 0 0.2
v 0.5 0 -0.2
v 0.5 2.9 0.2
v 0.5 2.9 -0.2
v -0.2 0 0.5
v -0.2 0.3 0.5
v -0.2 0.4 0.5
v -0.2 2.3 0.5
v -0.2 2.5 0.5
v -0.2 2.9 0.5
v -0.1 2.2 0.5
v -0.1 2.3 0.5
v -0.1 2.5 0.5
v -0.1 2.6 0.5
v 0.1 2.2 0.5
v 0.1 2.3 0.5
v 0.1 2.5 0.5
v 0.1 2.6 0.5
v 0.2 0 0.5
v 0.2 0.3 0.5
v 0.2 0.4 0.5
v 0.2 2.3 0.5
v 0.2 2.5 0.5
v 0.2 2.9 0.5
v -0.3 0 0.4
v -0.3 2.9 0.4
v -0.2 0 0.4
v -0.2 0.3 0.4
v -0.2 0.4 0.4
v -0.2 2.3 0.4
v -0.2 2.5 0.4
v -0.2 2.9 0.4
v 0.2 0 0.4
v 0.2 0.3 0.4
v 0.2 0.4 0.4
v 0.2 2.3 0.4
v 0.2 2.5 0.4
v 0.2 2.9 0.4
v 0.3 0 0.4
v 0.3 2.9 0.4
v -0.4 0 0.3
v -0.4 2.9 0.3
v -0.3 0 0.3
v -0.3 2.9 0.3
v -0.2 2.9 0.3
v -0.2 3 0.3
v 0.2 2.9 0.3
v 0.2 3 0.3
v 0.3 0 0.3
v 0.3 2.9 0.3
v 0.4 0 0.3
v 0.4 2.9 0.3
v -0.5 0 0.2
v -0.5 2.9 0.2
v -0.4 0 0.2
v -0.4 2.9 0.2
v -0.3 2.9 0.2
v -0.3 3 0.2
v -0.2 2.9 0.2
v -0.2 3 0.2
v -0.2 3.1 0.2
v 0.2 2.9 0.2
v 0.2 3 0.2
v 0.2 3.1 0.2
v 0.3 2.9 0.2
v 0.3 3 0.2
v 0.4 0 0.2
v 0.4 2.9 0.2
v 0.5 0 0.2
v 0.5 2.9 0.2
v -0.4 0.1 -0.2
v -0.4 2.7 -0.2
v -0.3 0.1 -0.2
v -0.3 2.7 -0.2
v -0.3 2.8 -0.2
v -0.3 2.9 -0.2
v -0.2 2.7 -0.2
v -0.2 2.8 -0.2
v -0.2 2.9 -0.2
v -0.2 3 -0.2
v 0.2 2.7 -0.2
v 0.2 2.8 -0.2
v 0.2 2.9 -0.2
v 0.2 3 -0.2
v 0.3 0.1 -0.2
v 0.3 2.7 -0.2
v 0.3 2.8 -0.2
v 0.3 2.9 -0.2
v 0.4 0.1 -0.2
v 0.4 2.7 -0.2
v -0.3 0.1 -0.3
v -0.3 2.7 -0.3
v -0.2 0.1 -0.3
v -0.2 2.7 -0.3
v -0.2 2.8 -0.3
v -0.2 2.9 -0.3
v 0.2 0.1 -0.3
v 0.2 2.7 -0.3
v 0.2 2.8 -0.3
v 0.2 2.9 -0.3
v 0.3 0.1 -0.3
v 0.3 2.7 -0.3
v -0.2 0.1 -0.4
v -0.2 2.7 -0.4
v 0.2 0.1 -0.4
v 0.2 2.7 -0.4
v -0.2 0.1 0.4
v -0.2 0.3 0.4
v -0.2 0.4 0.4
v -0.2 2.3 0.4
v -0.2 2.5 0.4
v -0.2 2.7 0.4
v -0.1 2.2 0.4
v -0.1 2.3 0.4
v -0.1 2.5 0.4
v -0.1 2.6 0.4
v 0.1 2.2 0.4
v 0.1 2.3 0.4
v 0.1 2.5 0.4
v 0.1 2.6 0.4
v 0.2 0.1 0.4
v 0.2 0.3 0.4
v 0.2 0.4 0.4
v 0.2 2.3 0.4
v 0.2 2.5 0.4
v 0.2 2.7 0.4
v -0.3 0.1 0.3
v -0.3 2.7 0.3
v -0.2 0.1 0.3
v -0.2 2.7 0.3
v -0.2 2.8 0.3
v -0.2 2.9 0.3
v 0.2 0.1 0.3
v 0.2 2.7 0.3
v 0.2 2.8 0.3
v 0.2 2.9 0.3
v 0.3 0.1 0.3
v 0.3 2.7 0.3
v -0.4 0.1 0.2
v -0.4 2.7 0.2
v -0.3 0.1 0.2
v -0.3 2.7 0.2
v -0.3 2.8 0.2
v -0.3 2.9 0.2
v -0.2 2.7 0.2
v -0.2 2.8 0.2
v -0.2 2.9 0.2
v -0.2 3 0.2
v 0.2 2.7 0.2
v 0.2 2.8 0.2
v 0.2 2.9 0.2
v 0.2 3 0.2
v 0.3 0.1 0.2
v 0.3 2.7 0.2
v 0.3 2.8 0.2
v 0.3 2.9 0.2
v 0.4 0.1 0.2
v 0.4 2.7 0.2
v -0.5 0 -0.2
v -0.5 2.9 -0.2
v -0.4 0 -0.2
v -0.4 2.9 -0.2
v -0.3 2.9 -0.2
v -0.3 3 -0.2
v -0.2 2.9 -0.2
v -0.2 3 -0.2
v -0.2 3.1 -0.2
v 0.2 2.9 -0.2
v 0.2 3 -0.2
v 0.2 3.1 -0.2
v 0.3 2.9 -0.2
v 0.3 3 -0.2
v 0.4 0 -0.2
v 0.4 2.9 -0.2
v 0.5 0 -0.2
v 0.5 2.9 -0.2
v -0.4 0 -0.3
v -0.4 2.9 -0.3
v -0.3 0 -0.3
v -0.3 2.9 -0.3
v -0.2 2.9 -0.3
v -0.2 3 -0.3
v 0.2 2.9 -0.3
v 0.2 3 -0.3
v 0.3 0 -0.3
v 0.3 2.9 -0.3
v 0.4 0 -0.3
v 0.4 2.9 -0.3
v -0.3 0 -0.4
v -0.3 2.9 -0.4
v -0.2 0 -0.4
v -0.2 2.9 -0.4
v 0.2 0 -0.4
v 0.2 2.9 -0.4
v 0.3 0 -0.4
v 0.3 2.9 -0.4
v -0.2 0 -0.5
v -0.2 2.9 -0.5
v 0.2 0 -0.5
v 0.2 2.9 -0.5
v -0.2 0 0.5
v 0.2 0 0.5
v -0.3 0 0.4
v -0.2 0 0.4
v 0.2 0 0.4
v 0.3 0 0.4
v -0.4 0 0.3
v -0.3 0 0.3
v -0.2 0 0.3
v 0.2 0 0.3
v 0.3 0 0.3
v 0.4 0 0.3
v -0.5 0 0.2
v -0.4 0 0.2
v -0.3 0 0.2
v -0.2 0 0.2
v 0.2 0 0.2
v 0.3 0 0.2
v 0.4 0 0.2
v 0.5 0 0.2
v -0.5 0 -0.2
v -0.4 0 -0.2
v -0.3 0 -0.2
v -0.2 0 -0.2
v 0.2 0 -0.2
v 0.3 0 -0.2
v 0.4 0 -0.2
v 0.5 0 -0.2
v -0.4 0 -0.3
v -0.3 0 -0.3
v -0.2 0 -0.3
v 0.2 0 -0.3
v 0.3 0 -0.3
v 0.4 0 -0.3
v -0.3 0 -0.4
v -0.2 0 -0.4
v 0.2 0 -0.4
v 0.3 0 -0.4
v -0.2 0 -0.5
v 0.2 0 -0.5
v -0.2 2.7 0.4
v 0.2 2.7 0.4
v -0.3 2.7 0.3
v -0.2 2.7 0.3
v 0.2 2.7 0.3
v 0.3 2.7 0.3
v -0.4 2.7 0.2
v -0.3 2.7 0.2
v -0.2 2.7 0.2
v 0.2 2.7 0.2
v 0.3 2.7 0.2
v 0.4 2.7 0.2
v -0.4 2.7 -0.2
v -0.3 2.7 -0.2
v -0.2 2.7 -0.2
v 0.2 2.7 -0.2
v 0.3 2.7 -0.2
v 0.4 2.7 -0.2
v -0.3 2.7 -0.3
v -0.2 2.7 -0.3
v 0.2 2.7 -0.3
v 0.3 2.7 -0.3
v -0.2 2.7 -0.4
v 0.2 2.7 -0.4
v -0.2 2.9 0.3
v 0.2 2.9 0.3
v -0.3 2.9 0.2
v -0.2 2.9 0.2
v 0.2 2.9 0.2
v 0.3 2.9 0.2
v -0.3 2.9 -0.2
v -0.2 2.9 -0.2
v 0.2 2.9 -0.2
v 0.3 2.9 -0.2
v -0.2 2.9 -0.3
v 0.2 2.9 -0.3
v -0.2 3 0.2
v 0.2 3 0.2
v -0.2 3 -0.2
v 0.2 3 -0.2
v -0.2 0.1 0.4
v 0.2 0.1 0.4
v -0.3 0.1 0.3
v -0.2 0.1 0.3
v 0.2 0.1 0.3
v 0.3 0.1 0.3
v -0.4 0.1 0.2
v -0.3 0.1 0.2
v -0.2 0.1 0.2
v 0.2 0.1 0.2
v 0.3 0.1 0.2
v 0.4 0.1 0.2
v -0.4 0.1 -0.2
v -0.3 0.1 -0.2
v -0.2 0.1 -0.2
v 0.2 0.1 -0.2
v 0.3 0.1 -0.2
v 0.4 0.1 -0.2
v -0.3 0.1 -0.3
v -0.2 0.1 -0.3
v 0.2 0.1 -0.3
v 0.3 0.1 -0.3
v -0.2 0.1 -0.4
v 0.2 0.1 -0.4
v -0.2 2.9 0.5
v 0.2 2.9 0.5
v -0.3 2.9 0.4
v -0.2 2.9 0.4
v 0.2 2.9 0.4
v 0.3 2.9 0.4
v -0.4 2.9 0.3
v -0.3 2.9 0.3
v -0.2 2.9 0.3
v 0.2 2.9 0.3
v 0.3 2.9 0.3
v 0.4 2.9 0.3
v -0.5 2.9 0.2
v -0.4 2.9 0.2
v -0.3 2.9 0.2
v -0.2 2.9 0.2
v 0.2 2.9 0.2
v 0.3 2.9 0.2
v 0.4 2.9 0.2
v 0.5 2.9 0.2
v -0.5 2.9 -0.2
v -0.4 2.9 -0.2
v -0.3 2.9 -0.2
v -0.2 2.9 -0.2
v 0.2 2.9 -0.2
v 0.3 2.9 -0.2
v 0.4 2.9 -0.2
v 0.5 2.9 -0.2
v -0.4 2.9 -0.3
v -0.3 2.9 -0.3
v -0.2 2.9 -0.3
v 0.2 2.9 -0.3
v 0.3 2.9 -0.3
v 0.4 2.9 -0.3
v -0.3 2.9 -0.4
v -0.2 2.9 -0.4
v 0.2 2.9 -0.4
v 0.3 2.9 -0.4
v -0.2 2.9 -0.5
v 0.2 2.9 -0.5
v -0.2 3 0.3
v 0.2 3 0.3
v -0.3 3 0.2
v -0.2 3 0.2
v 0.2 3 0.2
v 0.3 3 0.2
v -0.3 3 -0.2
v -0.2 3 -0.2
v 0.2 3 -0.2
v 0.3 3 -0.2
v -0.2 3 -0.3
v 0.2 3 -0.3
v -0.2 3.1 0.2
v 0.2 3.1 0.2
v -0.2 3.1 -0.2
v 0.2 3.1 -0.2

# faces
f 3/1/1 2/1/1 1/1/1
f 4/1/1 2/1/1 3/1/1
f 9/1/1 6/1/1 5/1/1
f 10/1/1 6/1/1 9/1/1
f 11/1/1 8/1/1 7/1/1
f 12/1/1 8/1/1 11/1/1
f 17/1/1 14/1/1 13/1/1
f 18/1/1 14/1/1 17/1/1
f 21/1/1 16/1/1 15/1/1
f 22/1/1 16/1/1 21/1/1
f 23/4/1 20/4/1 19/4/1
f 24/4/1 20/4/1 23/4/1
f 29/1/1 26/1/1 25/1/1
f 30/1/1 26/1/1 29/1/1
f 31/3/1 30/3/1 29/3/1
f 32/3/1 30/3/1 31/3/1
f 33/1/1 32/1/1 31/1/1
f 34/1/1 32/1/1 33/1/1
f 35/3/1 34/3/1 33/3/1
f 36/3/1 34/3/1 35/3/1
f 37/1/1 36/1/1 35/1/1
f 38/1/1 36/1/1 37/1/1
f 43/1/1 28/1/1 27/1/1
f 44/1/1 28/1/1 43/1/1
f 45/4/1 40/4/1 39/4/1
f 46/4/1 40/4/1 45/4/1
f 47/4/1 42/4/1 41/4/1
f 48/4/1 42/4/1 47/4/1
f 49/3/1 47/3/1 46/3/1
f 50/3/1 47/3/1 49/3/1
f 55/1/1 52/1/1 51/1/1
f 56/1/1 52/1/1 55/1/1
f 57/1/1 52/1/1 56/1/1
f 58/1/1 52/1/1 57/1/1
f 59/1/1 52/1/1 58/1/1
f 60/1/1 52/1/1 59/1/1
f 63/1/1 54/1/1 53/1/1
f 64/1/1 54/1/1 63/1/1
f 65/5/1 61/5/1 60/5/1
f 66/5/1 61/5/1 65/5/1
f 67/5/1 63/5/1 62/5/1
f 68/5/1 63/5/1 67/5/1
f 69/2/1 66/2/1 65/2/1
f 70/2/1 66/2/1 69/2/1
f 71/2/1 68/2/1 67/2/1
f 72/2/1 68/2/1 71/2/1
f 73/4/1 71/4/1 70/4/1
f 74/4/1 71/4/1 73/4/1
f 79/1/1 76/1/1 75/1/1
f 80/1/1 76/1/1 79/1/1
f 81/1/1 78/1/1 77/1/1
f 82/1/1 78/1/1 81/1/1
f 83/5/1 81/5/1 80/5/1
f 84/5/1 81/5/1 83/5/1
f 85/2/1 84/2/1 83/2/1
f 86/2/1 84/2/1 85/2/1
f 89/1/1 88/1/1 87/1/1
f 90/1/1 88/1/1 89/1/1
f 91/1/2 92/1/2 93/1/2
f 93/1/2 92/1/2 94/1/2
f 95/1/2 96/1/2 99/1/2
f 99/1/2 96/1/2 100/1/2
f 97/1/2 98/1/2 101/1/2
f 101/1/2 98/1/2 102/1/2
f 100/5/2 101/5/2 103/5/2
f 103/5/2 101/5/2 104/5/2
f 103/2/2 104/2/2 105/2/2
f 105/2/2 104/2/2 106/2/2
f 107/1/2 108/1/2 111/1/2
f 111/1/2 108/1/2 112/1/2
f 112/1/2 108/1/2 113/1/2
f 113/1/2 108/1/2 114/1/2
f 114/1/2 108/1/2 115/1/2
f 115/1/2 108/1/2 116/1/2
f 109/1/2 110/1/2 119/1/2
f 119/1/2 110/1/2 120/1/2
f 116/5/2 117/5/2 121/5/2
f 121/5/2 117/5/2 122/5/2
f 118/5/2 119/5/2 123/5/2
f 123/5/2 119/5/2 124/5/2
f 121/2/2 122/2/2 125/2/2
f 125/2/2 122/2/2 126/2/2
f 123/2/2 124/2/2 127/2/2
f 127/2/2 124/2/2 128/2/2
f 126/4/2 127/4/2 129/4/2
f 129/4/2 127/4/2 130/4/2
f 131/1/2 132/1/2 135/1/2
f 135/1/2 132/1/2 136/1/2
f 135/3/2 136/3/2 137/3/2
f 137/3/2 136/3/2 138/3/2
f 137/1/2 138/1/2 139/1/2
f 139/1/2 138/1/2 140/1/2
f 139/3/2 140/3/2 141/3/2
f 141/3/2 140/3/2 142/3/2
f 141/1/2 142/1/2 143/1/2
f 143/1/2 142/1/2 144/1/2
f 133/1/2 134/1/2 149/1/2
f 149/1/2 134/1/2 150/1/2
f 145/4/2 146/4/2 151/4/2
f 151/4/2 146/4/2 152/4/2
f 147/4/2 148/4/2 153/4/2
f 153/4/2 148/4/2 154/4/2
f 152/3/2 153/3/2 155/3/2
f 155/3/2 153/3/2 156/3/2
f 157/1/2 158/1/2 161/1/2
f 161/1/2 158/1/2 162/1/2
f 159/1/2 160/1/2 165/1/2
f 165/1/2 160/1/2 166/1/2
f 163/4/2 164/4/2 167/4/2
f 167/4/2 164/4/2 168/4/2
f 169/1/2 170/1/2 173/1/2
f 173/1/2 170/1/2 174/1/2
f 171/1/2 172/1/2 175/1/2
f 175/1/2 172/1/2 176/1/2
f 177/1/2 178/1/2 179/1/2
f 179/1/2 178/1/2 180/1/2
f 187/1/3 184/1/3 183/1/3
f 188/3/3 185/3/3 184/3/3
f 188/1/3 184/1/3 187/1/3
f 189/1/3 186/1/3 185/1/3
f 189/3/3 185/3/3 188/3/3
f 190/1/3 186/1/3 189/1/3
f 191/3/3 188/3/3 187/3/3
f 191/1/3 187/1/3 183/1/3
f 191/3/3 190/3/3 189/3/3
f 191/3/3 189/3/3 188/3/3
f 192/3/3 190/3/3 191/3/3
f 193/3/3 190/3/3 192/3/3
f 194/1/3 186/1/3 190/1/3
f 194/3/3 190/3/3 193/3/3
f 195/1/3 182/1/3 181/1/3
f 196/3/3 183/3/3 182/3/3
f 196/1/3 182/1/3 195/1/3
f 197/1/3 191/1/3 183/1/3
f 197/3/3 183/3/3 196/3/3
f 197/1/3 192/1/3 191/1/3
f 198/3/3 193/3/3 192/3/3
f 198/1/3 192/1/3 197/1/3
f 199/1/3 194/1/3 193/1/3
f 199/3/3 193/3/3 198/3/3
f 200/1/3 186/1/3 194/1/3
f 200/1/3 194/1/3 199/1/3
f 203/1/3 202/1/3 201/1/3
f 204/1/3 202/1/3 203/1/3
f 205/1/3 202/1/3 204/1/3
f 206/1/3 202/1/3 205/1/3
f 207/1/3 202/1/3 206/1/3
f 208/1/3 202/1/3 207/1/3
f 215/1/3 210/1/3 209/1/3
f 215/1/3 214/1/3 213/1/3
f 215/1/3 213/1/3 212/1/3
f 215/1/3 212/1/3 211/1/3
f 215/1/3 211/1/3 210/1/3
f 216/1/3 214/1/3 215/1/3
f 219/1/3 218/1/3 217/1/3
f 220/1/3 218/1/3 219/1/3
f 223/4/3 222/4/3 221/4/3
f 224/4/3 222/4/3 223/4/3
f 227/1/3 226/1/3 225/1/3
f 228/1/3 226/1/3 227/1/3
f 231/1/3 230/1/3 229/1/3
f 232/1/3 230/1/3 231/1/3
f 235/4/3 234/4/3 233/4/3
f 236/4/3 234/4/3 235/4/3
f 239/3/3 237/3/3 236/3/3
f 240/3/3 237/3/3 239/3/3
f 241/4/3 239/4/3 238/4/3
f 242/4/3 239/4/3 241/4/3
f 245/1/3 244/1/3 243/1/3
f 246/1/3 244/1/3 245/1/3
f 249/1/3 248/1/3 247/1/3
f 250/1/3 248/1/3 249/1/3
f 253/5/3 251/5/3 250/5/3
f 254/2/3 252/2/3 251/2/3
f 254/5/3 251/5/3 253/5/3
f 255/2/3 252/2/3 254/2/3
f 259/4/3 256/4/3 255/4/3
f 260/4/3 256/4/3 259/4/3
f 262/5/3 258/5/3 257/5/3
f 263/2/3 259/2/3 258/2/3
f 263/5/3 258/5/3 262/5/3
f 264/2/3 259/2/3 263/2/3
f 265/1/3 262/1/3 261/1/3
f 266/1/3 262/1/3 265/1/3
f 269/1/3 268/1/3 267/1/3
f 270/1/3 268/1/3 269/1/3
f 274/5/3 271/5/3 270/5/3
f 275/2/3 272/2/3 271/2/3
f 275/5/3 271/5/3 274/5/3
f 276/2/3 272/2/3 275/2/3
f 277/1/3 274/1/3 273/1/3
f 278/1/3 274/1/3 277/1/3
f 281/1/3 280/1/3 279/1/3
f 282/1/3 280/1/3 281/1/3
f 285/1/4 286/1/4 289/1/4
f 286/3/4 287/3/4 290/3/4
f 289/1/4 286/1/4 290/1/4
f 287/1/4 288/1/4 291/1/4
f 290/3/4 287/3/4 291/3/4
f 291/1/4 288/1/4 292/1/4
f 289/3/4 290/3/4 293/3/4
f 285/1/4 289/1/4 293/1/4
f 291/3/4 292/3/4 293/3/4
f 290/3/4 291/3/4 293/3/4
f 293/3/4 292/3/4 294/3/4
f 294/3/4 292/3/4 295/3/4
f 292/1/4 288/1/4 296/1/4
f 295/3/4 292/3/4 296/3/4
f 283/1/4 284/1/4 297/1/4
f 284/3/4 285/3/4 298/3/4
f 297/1/4 284/1/4 298/1/4
f 285/1/4 293/1/4 299/1/4
f 298/3/4 285/3/4 299/3/4
f 293/1/4 294/1/4 299/1/4
f 294/3/4 295/3/4 300/3/4
f 299/1/4 294/1/4 300/1/4
f 295/1/4 296/1/4 301/1/4
f 300/3/4 295/3/4 301/3/4
f 296/1/4 288/1/4 302/1/4
f 301/1/4 296/1/4 302/1/4
f 303/1/4 304/1/4 305/1/4
f 305/1/4 304/1/4 306/1/4
f 306/5/4 307/5/4 310/5/4
f 307/2/4 308/2/4 311/2/4
f 310/5/4 307/5/4 311/5/4
f 311/2/4 308/2/4 312/2/4
f 309/1/4 310/1/4 313/1/4
f 313/1/4 310/1/4 314/1/4
f 315/1/4 316/1/4 317/1/4
f 317/1/4 316/1/4 318/1/4
f 318/5/4 319/5/4 321/5/4
f 319/2/4 320/2/4 322/2/4
f 321/5/4 319/5/4 322/5/4
f 322/2/4 320/2/4 323/2/4
f 323/4/4 324/4/4 327/4/4
f 327/4/4 324/4/4 328/4/4
f 325/5/4 326/5/4 330/5/4
f 326/2/4 327/2/4 331/2/4
f 330/5/4 326/5/4 331/5/4
f 331/2/4 327/2/4 332/2/4
f 329/1/4 330/1/4 333/1/4
f 333/1/4 330/1/4 334/1/4
f 335/1/4 336/1/4 337/1/4
f 337/1/4 336/1/4 338/1/4
f 339/4/4 340/4/4 341/4/4
f 341/4/4 340/4/4 342/4/4
f 342/3/4 343/3/4 345/3/4
f 345/3/4 343/3/4 346/3/4
f 344/4/4 345/4/4 347/4/4
f 347/4/4 345/4/4 348/4/4
f 349/1/4 350/1/4 351/1/4
f 351/1/4 350/1/4 352/1/4
f 353/1/4 354/1/4 355/1/4
f 355/1/4 354/1/4 356/1/4
f 357/4/4 358/4/4 359/4/4
f 359/4/4 358/4/4 360/4/4
f 361/1/4 362/1/4 363/1/4
f 363/1/4 362/1/4 364/1/4
f 365/1/4 366/1/4 367/1/4
f 367/1/4 366/1/4 368/1/4
f 369/1/4 370/1/4 371/1/4
f 371/1/4 370/1/4 372/1/4
f 373/1/4 374/1/4 375/1/4
f 375/1/4 374/1/4 376/1/4
f 380/1/5 378/1/5 377/1/5
f 381/1/5 378/1/5 380/1/5
f 384/1/5 380/1/5 379/1/5
f 385/2/5 381/2/5 380/2/5
f 385/1/5 380/1/5 384/1/5
f 386/1/5 382/1/5 381/1/5
f 386/2/5 381/2/5 385/2/5
f 387/1/5 382/1/5 386/1/5
f 390/1/5 384/1/5 383/1/5
f 391/2/5 385/2/5 384/2/5
f 391/1/5 384/1/5 390/1/5
f 392/4/5 386/4/5 385/4/5
f 392/2/5 385/2/5 391/2/5
f 393/2/5 387/2/5 386/2/5
f 393/4/5 386/4/5 392/4/5
f 394/1/5 388/1/5 387/1/5
f 394/2/5 387/2/5 393/2/5
f 395/1/5 388/1/5 394/1/5
f 397/1/5 390/1/5 389/1/5
f 398/2/5 391/2/5 390/2/5
f 398/1/5 390/1/5 397/1/5
f 399/4/5 393/4/5 392/4/5
f 399/2/5 391/2/5 398/2/5
f 399/4/5 392/4/5 391/4/5
f 399/4/5 394/4/5 393/4/5
f 400/4/5 394/4/5 399/4/5
f 401/4/5 394/4/5 400/4/5
f 402/2/5 395/2/5 394/2/5
f 402/4/5 394/4/5 401/4/5
f 403/1/5 396/1/5 395/1/5
f 403/2/5 395/2/5 402/2/5
f 404/1/5 396/1/5 403/1/5
f 405/1/5 399/1/5 398/1/5
f 406/2/5 400/2/5 399/2/5
f 406/1/5 399/1/5 405/1/5
f 407/4/5 401/4/5 400/4/5
f 407/2/5 400/2/5 406/2/5
f 408/2/5 402/2/5 401/2/5
f 408/4/5 401/4/5 407/4/5
f 409/1/5 403/1/5 402/1/5
f 409/2/5 402/2/5 408/2/5
f 410/1/5 403/1/5 409/1/5
f 411/1/5 407/1/5 406/1/5
f 412/2/5 408/2/5 407/2/5
f 412/1/5 407/1/5 411/1/5
f 413/1/5 409/1/5 408/1/5
f 413/2/5 408/2/5 412/2/5
f 414/1/5 409/1/5 413/1/5
f 415/1/5 413/1/5 412/1/5
f 416/1/5 413/1/5 415/1/5
f 420/5/5 418/5/5 417/5/5
f 421/5/5 418/5/5 420/5/5
f 424/5/5 420/5/5 419/5/5
f 425/5/5 420/5/5 424/5/5
f 426/5/5 422/5/5 421/5/5
f 427/5/5 422/5/5 426/5/5
f 429/5/5 424/5/5 423/5/5
f 430/5/5 424/5/5 429/5/5
f 433/5/5 428/5/5 427/5/5
f 434/5/5 428/5/5 433/5/5
f 435/5/5 431/5/5 430/5/5
f 436/5/5 431/5/5 435/5/5
f 437/5/5 433/5/5 432/5/5
f 438/5/5 433/5/5 437/5/5
f 439/5/5 437/5/5 436/5/5
f 440/5/5 437/5/5 439/5/5
f 444/4/5 442/4/5 441/4/5
f 445/4/5 442/4/5 444/4/5
f 447/4/5 444/4/5 443/4/5
f 448/4/5 444/4/5 447/4/5
f 449/4/5 446/4/5 445/4/5
f 450/4/5 446/4/5 449/4/5
f 451/4/5 449/4/5 448/4/5
f 452/4/5 449/4/5 451/4/5
f 455/3/5 454/3/5 453/3/5
f 456/3/5 454/3/5 455/3/5
f 457/2/6 458/2/6 460/2/6
f 460/2/6 458/2/6 461/2/6
f 459/2/6 460/2/6 464/2/6
f 460/4/6 461/4/6 465/4/6
f 464/2/6 460/2/6 465/2/6
f 461/2/6 462/2/6 466/2/6
f 465/4/6 461/4/6 466/4/6
f 466/2/6 462/2/6 467/2/6
f 463/2/6 464/2/6 469/2/6
f 464/4/6 465/4/6 470/4/6
f 469/2/6 464/2/6 470/2/6
f 465/4/6 466/4/6 470/4/6
f 466/4/6 467/4/6 470/4/6
f 470/4/6 467/4/6 471/4/6
f 471/4/6 467/4/6 472/4/6
f 467/2/6 468/2/6 473/2/6
f 472/4/6 467/4/6 473/4/6
f 473/2/6 468/2/6 474/2/6
f 470/2/6 471/2/6 475/2/6
f 471/4/6 472/4/6 476/4/6
f 475/2/6 471/2/6 476/2/6
f 472/2/6 473/2/6 477/2/6
f 476/4/6 472/4/6 477/4/6
f 477/2/6 473/2/6 478/2/6
f 476/2/6 477/2/6 479/2/6
f 479/2/6 477/2/6 480/2/6
f 481/1/6 482/1/6 484/1/6
f 484/1/6 482/1/6 485/1/6
f 483/1/6 484/1/6 488/1/6
f 484/2/6 485/2/6 489/2/6
f 488/1/6 484/1/6 489/1/6
f 485/1/6 486/1/6 490/1/6
f 489/2/6 485/2/6 490/2/6
f 490/1/6 486/1/6 491/1/6
f 487/1/6 488/1/6 494/1/6
f 488/2/6 489/2/6 495/2/6
f 494/1/6 488/1/6 495/1/6
f 495/2/6 489/2/6 496/2/6
f 490/2/6 491/2/6 497/2/6
f 491/1/6 492/1/6 498/1/6
f 497/2/6 491/2/6 498/2/6
f 498/1/6 492/1/6 499/1/6
f 493/1/6 494/1/6 501/1/6
f 494/2/6 495/2/6 502/2/6
f 501/1/6 494/1/6 502/1/6
f 502/2/6 495/2/6 503/2/6
f 498/2/6 499/2/6 506/2/6
f 499/1/6 500/1/6 507/1/6
f 506/2/6 499/2/6 507/2/6
f 507/1/6 500/1/6 508/1/6
f 502/1/6 503/1/6 509/1/6
f 503/2/6 504/2/6 510/2/6
f 509/1/6 503/1/6 510/1/6
f 510/2/6 504/2/6 511/2/6
f 505/2/6 506/2/6 512/2/6
f 506/1/6 507/1/6 513/1/6
f 512/2/6 506/2/6 513/2/6
f 513/1/6 507/1/6 514/1/6
f 510/1/6 511/1/6 515/1/6
f 511/2/6 512/2/6 516/2/6
f 515/1/6 511/1/6 516/1/6
f 512/1/6 513/1/6 517/1/6
f 516/2/6 512/2/6 517/2/6
f 517/1/6 513/1/6 518/1/6
f 516/1/6 517/1/6 519/1/6
f 519/1/6 517/1/6 520/1/6
f 521/4/6 522/4/6 524/4/6
f 524/4/6 522/4/6 525/4/6
f 523/4/6 524/4/6 527/4/6
f 527/4/6 524/4/6 528/4/6
f 525/4/6 526/4/6 529/4/6
f 529/4/6 526/4/6 530/4/6
f 528/4/6 529/4/6 531/4/6
f 531/4/6 529/4/6 532/4/6
f 533/3/6 534/3/6 535/3/6
f 535/3/6 534/3/6 536/3/6
